<?xml version="1.0" standalone="no"?>
<!DOCTYPE svg PUBLIC "-//W3C//DTD SVG 1.1//EN" "http://www.w3.org/Graphics/SVG/1.1/DTD/svg11.dtd">
<svg version="1.1" width="1200" height="374" onload="init(evt)" viewBox="0 0 1200 374" xmlns="http://www.w3.org/2000/svg" xmlns:xlink="http://www.w3.org/1999/xlink">
<!-- Flame graph stack visualization. See https://github.com/brendangregg/FlameGraph for latest version, and http://www.brendangregg.com/flamegraphs.html for examples. -->
<!-- NOTES:  -->
<defs>
	<linearGradient id="background" y1="0" y2="1" x1="0" x2="0" >
		<stop stop-color="#eeeeee" offset="5%" />
		<stop stop-color="#eeeeb0" offset="95%" />
	</linearGradient>
</defs>
<style type="text/css">
	text { font-family:Verdana; font-size:12px; fill:rgb(0,0,0); }
	#search { opacity:0.1; cursor:pointer; }
	#search:hover, #search.show { opacity:1; }
	#subtitle { text-anchor:middle; font-color:rgb(160,160,160); }
	#title { text-anchor:middle; font-size:17px}
	#unzoom { cursor:pointer; }
	#frames > *:hover { stroke:black; stroke-width:0.5; cursor:pointer; }
	.hide { display:none; }
	.parent { opacity:0.5; }
</style>
<script type="text/ecmascript">
<![CDATA[
	"use strict";
	var details, searchbtn, unzoombtn, matchedtxt, svg, searching;
	function init(evt) {
		details = document.getElementById("details").firstChild;
		searchbtn = document.getElementById("search");
		unzoombtn = document.getElementById("unzoom");
		matchedtxt = document.getElementById("matched");
		svg = document.getElementsByTagName("svg")[0];
		searching = 0;
	}

	window.addEventListener("click", function(e) {
		var target = find_group(e.target);
		if (target) {
			if (target.nodeName == "a") {
				if (e.ctrlKey === false) return;
				e.preventDefault();
			}
			if (target.classList.contains("parent")) unzoom();
			zoom(target);
		}
		else if (e.target.id == "unzoom") unzoom();
		else if (e.target.id == "search") search_prompt();
	}, false)

	// mouse-over for info
	// show
	window.addEventListener("mouseover", function(e) {
		var target = find_group(e.target);
		if (target) details.nodeValue = "Function: " + g_to_text(target);
	}, false)

	// clear
	window.addEventListener("mouseout", function(e) {
		var target = find_group(e.target);
		if (target) details.nodeValue = ' ';
	}, false)

	// ctrl-F for search
	window.addEventListener("keydown",function (e) {
		if (e.keyCode === 114 || (e.ctrlKey && e.keyCode === 70)) {
			e.preventDefault();
			search_prompt();
		}
	}, false)

	// functions
	function find_child(node, selector) {
		var children = node.querySelectorAll(selector);
		if (children.length) return children[0];
		return;
	}
	function find_group(node) {
		var parent = node.parentElement;
		if (!parent) return;
		if (parent.id == "frames") return node;
		return find_group(parent);
	}
	function orig_save(e, attr, val) {
		if (e.attributes["_orig_" + attr] != undefined) return;
		if (e.attributes[attr] == undefined) return;
		if (val == undefined) val = e.attributes[attr].value;
		e.setAttribute("_orig_" + attr, val);
	}
	function orig_load(e, attr) {
		if (e.attributes["_orig_"+attr] == undefined) return;
		e.attributes[attr].value = e.attributes["_orig_" + attr].value;
		e.removeAttribute("_orig_"+attr);
	}
	function g_to_text(e) {
		var text = find_child(e, "title").firstChild.nodeValue;
		return (text)
	}
	function g_to_func(e) {
		var func = g_to_text(e);
		// if there's any manipulation we want to do to the function
		// name before it's searched, do it here before returning.
		return (func);
	}
	function update_text(e) {
		var r = find_child(e, "rect");
		var t = find_child(e, "text");
		var w = parseFloat(r.attributes.width.value) -3;
		var txt = find_child(e, "title").textContent.replace(/\([^(]*\)$/,"");
		t.attributes.x.value = parseFloat(r.attributes.x.value) + 3;

		// Smaller than this size won't fit anything
		if (w < 2 * 12 * 0.59) {
			t.textContent = "";
			return;
		}

		t.textContent = txt;
		// Fit in full text width
		if (/^ *$/.test(txt) || t.getSubStringLength(0, txt.length) < w)
			return;

		for (var x = txt.length - 2; x > 0; x--) {
			if (t.getSubStringLength(0, x + 2) <= w) {
				t.textContent = txt.substring(0, x) + "..";
				return;
			}
		}
		t.textContent = "";
	}

	// zoom
	function zoom_reset(e) {
		if (e.attributes != undefined) {
			orig_load(e, "x");
			orig_load(e, "width");
		}
		if (e.childNodes == undefined) return;
		for (var i = 0, c = e.childNodes; i < c.length; i++) {
			zoom_reset(c[i]);
		}
	}
	function zoom_child(e, x, ratio) {
		if (e.attributes != undefined) {
			if (e.attributes.x != undefined) {
				orig_save(e, "x");
				e.attributes.x.value = (parseFloat(e.attributes.x.value) - x - 10) * ratio + 10;
				if (e.tagName == "text")
					e.attributes.x.value = find_child(e.parentNode, "rect[x]").attributes.x.value + 3;
			}
			if (e.attributes.width != undefined) {
				orig_save(e, "width");
				e.attributes.width.value = parseFloat(e.attributes.width.value) * ratio;
			}
		}

		if (e.childNodes == undefined) return;
		for (var i = 0, c = e.childNodes; i < c.length; i++) {
			zoom_child(c[i], x - 10, ratio);
		}
	}
	function zoom_parent(e) {
		if (e.attributes) {
			if (e.attributes.x != undefined) {
				orig_save(e, "x");
				e.attributes.x.value = 10;
			}
			if (e.attributes.width != undefined) {
				orig_save(e, "width");
				e.attributes.width.value = parseInt(svg.width.baseVal.value) - (10 * 2);
			}
		}
		if (e.childNodes == undefined) return;
		for (var i = 0, c = e.childNodes; i < c.length; i++) {
			zoom_parent(c[i]);
		}
	}
	function zoom(node) {
		var attr = find_child(node, "rect").attributes;
		var width = parseFloat(attr.width.value);
		var xmin = parseFloat(attr.x.value);
		var xmax = parseFloat(xmin + width);
		var ymin = parseFloat(attr.y.value);
		var ratio = (svg.width.baseVal.value - 2 * 10) / width;

		// XXX: Workaround for JavaScript float issues (fix me)
		var fudge = 0.0001;

		unzoombtn.classList.remove("hide");

		var el = document.getElementById("frames").children;
		for (var i = 0; i < el.length; i++) {
			var e = el[i];
			var a = find_child(e, "rect").attributes;
			var ex = parseFloat(a.x.value);
			var ew = parseFloat(a.width.value);
			var upstack;
			// Is it an ancestor
			if (0 == 0) {
				upstack = parseFloat(a.y.value) > ymin;
			} else {
				upstack = parseFloat(a.y.value) < ymin;
			}
			if (upstack) {
				// Direct ancestor
				if (ex <= xmin && (ex+ew+fudge) >= xmax) {
					e.classList.add("parent");
					zoom_parent(e);
					update_text(e);
				}
				// not in current path
				else
					e.classList.add("hide");
			}
			// Children maybe
			else {
				// no common path
				if (ex < xmin || ex + fudge >= xmax) {
					e.classList.add("hide");
				}
				else {
					zoom_child(e, xmin, ratio);
					update_text(e);
				}
			}
		}
	}
	function unzoom() {
		unzoombtn.classList.add("hide");
		var el = document.getElementById("frames").children;
		for(var i = 0; i < el.length; i++) {
			el[i].classList.remove("parent");
			el[i].classList.remove("hide");
			zoom_reset(el[i]);
			update_text(el[i]);
		}
	}

	// search
	function reset_search() {
		var el = document.querySelectorAll("#frames rect");
		for (var i = 0; i < el.length; i++) {
			orig_load(el[i], "fill")
		}
	}
	function search_prompt() {
		if (!searching) {
			var term = prompt("Enter a search term (regexp " +
			    "allowed, eg: ^ext4_)", "");
			if (term != null) {
				search(term)
			}
		} else {
			reset_search();
			searching = 0;
			searchbtn.classList.remove("show");
			searchbtn.firstChild.nodeValue = "Search"
			matchedtxt.classList.add("hide");
			matchedtxt.firstChild.nodeValue = ""
		}
	}
	function search(term) {
		var re = new RegExp(term);
		var el = document.getElementById("frames").children;
		var matches = new Object();
		var maxwidth = 0;
		for (var i = 0; i < el.length; i++) {
			var e = el[i];
			var func = g_to_func(e);
			var rect = find_child(e, "rect");
			if (func == null || rect == null)
				continue;

			// Save max width. Only works as we have a root frame
			var w = parseFloat(rect.attributes.width.value);
			if (w > maxwidth)
				maxwidth = w;

			if (func.match(re)) {
				// highlight
				var x = parseFloat(rect.attributes.x.value);
				orig_save(rect, "fill");
				rect.attributes.fill.value = "rgb(230,0,230)";

				// remember matches
				if (matches[x] == undefined) {
					matches[x] = w;
				} else {
					if (w > matches[x]) {
						// overwrite with parent
						matches[x] = w;
					}
				}
				searching = 1;
			}
		}
		if (!searching)
			return;

		searchbtn.classList.add("show");
		searchbtn.firstChild.nodeValue = "Reset Search";

		// calculate percent matched, excluding vertical overlap
		var count = 0;
		var lastx = -1;
		var lastw = 0;
		var keys = Array();
		for (k in matches) {
			if (matches.hasOwnProperty(k))
				keys.push(k);
		}
		// sort the matched frames by their x location
		// ascending, then width descending
		keys.sort(function(a, b){
			return a - b;
		});
		// Step through frames saving only the biggest bottom-up frames
		// thanks to the sort order. This relies on the tree property
		// where children are always smaller than their parents.
		var fudge = 0.0001;	// JavaScript floating point
		for (var k in keys) {
			var x = parseFloat(keys[k]);
			var w = matches[keys[k]];
			if (x >= lastx + lastw - fudge) {
				count += w;
				lastx = x;
				lastw = w;
			}
		}
		// display matched percent
		matchedtxt.classList.remove("hide");
		var pct = 100 * count / maxwidth;
		if (pct != 100) pct = pct.toFixed(1)
		matchedtxt.firstChild.nodeValue = "Matched: " + pct + "%";
	}
]]>
</script>
<rect x="0.0" y="0" width="1200.0" height="374.0" fill="url(#background)"  />
<text id="title" x="600.00" y="24" >Flame Graph</text>
<text id="details" x="10.00" y="357" > </text>
<text id="unzoom" x="10.00" y="24" class="hide">Reset Zoom</text>
<text id="search" x="1090.00" y="24" >Search</text>
<text id="matched" x="1090.00" y="357" > </text>
<g id="frames">
<g >
<title>worker_thread (2 samples, 0.36%)</title><rect x="78.2" y="261" width="4.2" height="15.0" fill="rgb(220,157,39)" rx="2" ry="2" />
<text  x="81.16" y="271.5" ></text>
</g>
<g >
<title>x86_64_start_reservations (275 samples, 49.64%)</title><rect x="604.3" y="277" width="585.7" height="15.0" fill="rgb(207,47,41)" rx="2" ry="2" />
<text  x="607.26" y="287.5" >x86_64_start_reservations</text>
</g>
<g >
<title>default_idle_call (275 samples, 49.64%)</title><rect x="604.3" y="213" width="585.7" height="15.0" fill="rgb(249,23,31)" rx="2" ry="2" />
<text  x="607.26" y="223.5" >default_idle_call</text>
</g>
<g >
<title>default_idle_call (245 samples, 44.22%)</title><rect x="82.4" y="261" width="521.9" height="15.0" fill="rgb(223,179,5)" rx="2" ry="2" />
<text  x="85.42" y="271.5" >default_idle_call</text>
</g>
<g >
<title>wb_writeback (2 samples, 0.36%)</title><rect x="78.2" y="213" width="4.2" height="15.0" fill="rgb(219,30,5)" rx="2" ry="2" />
<text  x="81.16" y="223.5" ></text>
</g>
<g >
<title>write (2 samples, 0.36%)</title><rect x="12.1" y="277" width="4.3" height="15.0" fill="rgb(223,122,30)" rx="2" ry="2" />
<text  x="15.13" y="287.5" ></text>
</g>
<g >
<title>ext4_da_get_block_prep (1 samples, 0.18%)</title><rect x="14.3" y="117" width="2.1" height="15.0" fill="rgb(249,183,8)" rx="2" ry="2" />
<text  x="17.26" y="127.5" ></text>
</g>
<g >
<title>[cp] (1 samples, 0.18%)</title><rect x="10.0" y="277" width="2.1" height="15.0" fill="rgb(207,105,6)" rx="2" ry="2" />
<text  x="13.00" y="287.5" ></text>
</g>
<g >
<title>all (554 samples, 100%)</title><rect x="10.0" y="325" width="1180.0" height="15.0" fill="rgb(239,68,44)" rx="2" ry="2" />
<text  x="13.00" y="335.5" ></text>
</g>
<g >
<title>__block_commit_write.isra.21 (1 samples, 0.18%)</title><rect x="73.9" y="117" width="2.1" height="15.0" fill="rgb(244,14,9)" rx="2" ry="2" />
<text  x="76.90" y="127.5" ></text>
</g>
<g >
<title>copy_user_enhanced_fast_string (10 samples, 1.81%)</title><rect x="29.2" y="165" width="21.3" height="15.0" fill="rgb(246,177,40)" rx="2" ry="2" />
<text  x="32.17" y="175.5" >c..</text>
</g>
<g >
<title>alloc_pages_current (2 samples, 0.36%)</title><rect x="22.8" y="133" width="4.2" height="15.0" fill="rgb(235,228,44)" rx="2" ry="2" />
<text  x="25.78" y="143.5" ></text>
</g>
<g >
<title>mark_buffer_dirty (1 samples, 0.18%)</title><rect x="73.9" y="101" width="2.1" height="15.0" fill="rgb(213,169,25)" rx="2" ry="2" />
<text  x="76.90" y="111.5" ></text>
</g>
<g >
<title>blk_mq_run_hw_queue (1 samples, 0.18%)</title><rect x="27.0" y="85" width="2.2" height="15.0" fill="rgb(251,158,50)" rx="2" ry="2" />
<text  x="30.04" y="95.5" ></text>
</g>
<g >
<title>__mark_inode_dirty (4 samples, 0.72%)</title><rect x="65.4" y="133" width="8.5" height="15.0" fill="rgb(218,49,43)" rx="2" ry="2" />
<text  x="68.38" y="143.5" ></text>
</g>
<g >
<title>ext4_mark_inode_dirty (4 samples, 0.72%)</title><rect x="65.4" y="101" width="8.5" height="15.0" fill="rgb(214,69,35)" rx="2" ry="2" />
<text  x="68.38" y="111.5" ></text>
</g>
<g >
<title>start_secondary (245 samples, 44.22%)</title><rect x="82.4" y="293" width="521.9" height="15.0" fill="rgb(218,149,21)" rx="2" ry="2" />
<text  x="85.42" y="303.5" >start_secondary</text>
</g>
<g >
<title>write (23 samples, 4.15%)</title><rect x="29.2" y="293" width="49.0" height="15.0" fill="rgb(223,2,3)" rx="2" ry="2" />
<text  x="32.17" y="303.5" >write</text>
</g>
<g >
<title>writeback_sb_inodes (2 samples, 0.36%)</title><rect x="78.2" y="181" width="4.2" height="15.0" fill="rgb(215,35,11)" rx="2" ry="2" />
<text  x="81.16" y="191.5" ></text>
</g>
<g >
<title>unmap_underlying_metadata (1 samples, 0.18%)</title><rect x="80.3" y="117" width="2.1" height="15.0" fill="rgb(229,223,35)" rx="2" ry="2" />
<text  x="83.29" y="127.5" ></text>
</g>
<g >
<title>__add_to_page_cache_locked (1 samples, 0.18%)</title><rect x="59.0" y="101" width="2.1" height="15.0" fill="rgb(210,73,26)" rx="2" ry="2" />
<text  x="61.99" y="111.5" ></text>
</g>
<g >
<title>ext4_da_write_end (7 samples, 1.26%)</title><rect x="61.1" y="165" width="14.9" height="15.0" fill="rgb(215,27,6)" rx="2" ry="2" />
<text  x="64.12" y="175.5" ></text>
</g>
<g >
<title>read (6 samples, 1.08%)</title><rect x="16.4" y="293" width="12.8" height="15.0" fill="rgb(227,99,27)" rx="2" ry="2" />
<text  x="19.39" y="303.5" ></text>
</g>
<g >
<title>sys_write (23 samples, 4.15%)</title><rect x="29.2" y="261" width="49.0" height="15.0" fill="rgb(214,132,31)" rx="2" ry="2" />
<text  x="32.17" y="271.5" >sys_..</text>
</g>
<g >
<title>__lock_text_start (1 samples, 0.18%)</title><rect x="73.9" y="69" width="2.1" height="15.0" fill="rgb(217,152,22)" rx="2" ry="2" />
<text  x="76.90" y="79.5" ></text>
</g>
<g >
<title>__ext4_journal_stop (1 samples, 0.18%)</title><rect x="63.2" y="149" width="2.2" height="15.0" fill="rgb(241,149,39)" rx="2" ry="2" />
<text  x="66.25" y="159.5" ></text>
</g>
<g >
<title>blk_flush_plug_list (1 samples, 0.18%)</title><rect x="27.0" y="133" width="2.2" height="15.0" fill="rgb(236,172,46)" rx="2" ry="2" />
<text  x="30.04" y="143.5" ></text>
</g>
<g >
<title>__ext4_get_inode_loc (1 samples, 0.18%)</title><rect x="71.8" y="69" width="2.1" height="15.0" fill="rgb(242,52,53)" rx="2" ry="2" />
<text  x="74.77" y="79.5" ></text>
</g>
<g >
<title>ext4_writepages (2 samples, 0.36%)</title><rect x="78.2" y="133" width="4.2" height="15.0" fill="rgb(234,92,51)" rx="2" ry="2" />
<text  x="81.16" y="143.5" ></text>
</g>
<g >
<title>ret_from_fork (2 samples, 0.36%)</title><rect x="78.2" y="293" width="4.2" height="15.0" fill="rgb(235,87,8)" rx="2" ry="2" />
<text  x="81.16" y="303.5" ></text>
</g>
<g >
<title>arch_cpu_idle (275 samples, 49.64%)</title><rect x="604.3" y="197" width="585.7" height="15.0" fill="rgb(232,80,8)" rx="2" ry="2" />
<text  x="607.26" y="207.5" >arch_cpu_idle</text>
</g>
<g >
<title>ext4_block_write_begin (1 samples, 0.18%)</title><rect x="14.3" y="133" width="2.1" height="15.0" fill="rgb(236,174,1)" rx="2" ry="2" />
<text  x="17.26" y="143.5" ></text>
</g>
<g >
<title>native_safe_halt (245 samples, 44.22%)</title><rect x="82.4" y="213" width="521.9" height="15.0" fill="rgb(215,214,32)" rx="2" ry="2" />
<text  x="85.42" y="223.5" >native_safe_halt</text>
</g>
<g >
<title>entry_SYSCALL_64_fastpath (6 samples, 1.08%)</title><rect x="16.4" y="277" width="12.8" height="15.0" fill="rgb(207,149,12)" rx="2" ry="2" />
<text  x="19.39" y="287.5" ></text>
</g>
<g >
<title>sys_read (6 samples, 1.08%)</title><rect x="16.4" y="261" width="12.8" height="15.0" fill="rgb(251,125,23)" rx="2" ry="2" />
<text  x="19.39" y="271.5" ></text>
</g>
<g >
<title>copy_user_enhanced_fast_string (3 samples, 0.54%)</title><rect x="16.4" y="197" width="6.4" height="15.0" fill="rgb(242,87,46)" rx="2" ry="2" />
<text  x="19.39" y="207.5" ></text>
</g>
<g >
<title>radix_tree_lookup_slot (1 samples, 0.18%)</title><rect x="80.3" y="53" width="2.1" height="15.0" fill="rgb(232,122,14)" rx="2" ry="2" />
<text  x="83.29" y="63.5" ></text>
</g>
<g >
<title>ext4_dirty_inode (4 samples, 0.72%)</title><rect x="65.4" y="117" width="8.5" height="15.0" fill="rgb(209,48,28)" rx="2" ry="2" />
<text  x="68.38" y="127.5" ></text>
</g>
<g >
<title>blk_mq_insert_requests (1 samples, 0.18%)</title><rect x="27.0" y="101" width="2.2" height="15.0" fill="rgb(225,115,40)" rx="2" ry="2" />
<text  x="30.04" y="111.5" ></text>
</g>
<g >
<title>ondemand_readahead (3 samples, 0.54%)</title><rect x="22.8" y="181" width="6.4" height="15.0" fill="rgb(244,141,39)" rx="2" ry="2" />
<text  x="25.78" y="191.5" ></text>
</g>
<g >
<title>entry_SYSCALL_64_fastpath (2 samples, 0.36%)</title><rect x="12.1" y="261" width="4.3" height="15.0" fill="rgb(233,124,17)" rx="2" ry="2" />
<text  x="15.13" y="271.5" ></text>
</g>
<g >
<title>__radix_tree_preload (1 samples, 0.18%)</title><rect x="59.0" y="69" width="2.1" height="15.0" fill="rgb(231,210,38)" rx="2" ry="2" />
<text  x="61.99" y="79.5" ></text>
</g>
<g >
<title>generic_file_read_iter (6 samples, 1.08%)</title><rect x="16.4" y="213" width="12.8" height="15.0" fill="rgb(223,168,39)" rx="2" ry="2" />
<text  x="19.39" y="223.5" ></text>
</g>
<g >
<title>page_cache_async_readahead (3 samples, 0.54%)</title><rect x="22.8" y="197" width="6.4" height="15.0" fill="rgb(222,215,39)" rx="2" ry="2" />
<text  x="25.78" y="207.5" ></text>
</g>
<g >
<title>ext4_da_get_block_prep (3 samples, 0.54%)</title><rect x="52.6" y="133" width="6.4" height="15.0" fill="rgb(218,219,30)" rx="2" ry="2" />
<text  x="55.60" y="143.5" ></text>
</g>
<g >
<title>__do_page_cache_readahead (3 samples, 0.54%)</title><rect x="22.8" y="165" width="6.4" height="15.0" fill="rgb(224,34,15)" rx="2" ry="2" />
<text  x="25.78" y="175.5" ></text>
</g>
<g >
<title>__generic_file_write_iter (23 samples, 4.15%)</title><rect x="29.2" y="197" width="49.0" height="15.0" fill="rgb(226,152,22)" rx="2" ry="2" />
<text  x="32.17" y="207.5" >__ge..</text>
</g>
<g >
<title>ext4_mark_iloc_dirty (2 samples, 0.36%)</title><rect x="67.5" y="85" width="4.3" height="15.0" fill="rgb(229,1,20)" rx="2" ry="2" />
<text  x="70.51" y="95.5" ></text>
</g>
<g >
<title>__vfs_write (2 samples, 0.36%)</title><rect x="12.1" y="213" width="4.3" height="15.0" fill="rgb(246,19,35)" rx="2" ry="2" />
<text  x="15.13" y="223.5" ></text>
</g>
<g >
<title>process_one_work (2 samples, 0.36%)</title><rect x="78.2" y="245" width="4.2" height="15.0" fill="rgb(214,186,50)" rx="2" ry="2" />
<text  x="81.16" y="255.5" ></text>
</g>
<g >
<title>[unknown] (3 samples, 0.54%)</title><rect x="10.0" y="293" width="6.4" height="15.0" fill="rgb(248,152,22)" rx="2" ry="2" />
<text  x="13.00" y="303.5" ></text>
</g>
<g >
<title>__vfs_write (23 samples, 4.15%)</title><rect x="29.2" y="229" width="49.0" height="15.0" fill="rgb(247,134,41)" rx="2" ry="2" />
<text  x="32.17" y="239.5" >__vf..</text>
</g>
<g >
<title>sys_write (2 samples, 0.36%)</title><rect x="12.1" y="245" width="4.3" height="15.0" fill="rgb(215,21,53)" rx="2" ry="2" />
<text  x="15.13" y="255.5" ></text>
</g>
<g >
<title>ext4_reserve_inode_write (1 samples, 0.18%)</title><rect x="71.8" y="85" width="2.1" height="15.0" fill="rgb(248,35,6)" rx="2" ry="2" />
<text  x="74.77" y="95.5" ></text>
</g>
<g >
<title>start_this_handle (1 samples, 0.18%)</title><rect x="50.5" y="117" width="2.1" height="15.0" fill="rgb(215,135,22)" rx="2" ry="2" />
<text  x="53.47" y="127.5" ></text>
</g>
<g >
<title>__page_cache_alloc (2 samples, 0.36%)</title><rect x="22.8" y="149" width="4.2" height="15.0" fill="rgb(218,19,17)" rx="2" ry="2" />
<text  x="25.78" y="159.5" ></text>
</g>
<g >
<title>ext4_da_write_begin (5 samples, 0.90%)</title><rect x="50.5" y="165" width="10.6" height="15.0" fill="rgb(236,118,32)" rx="2" ry="2" />
<text  x="53.47" y="175.5" ></text>
</g>
<g >
<title>blk_mq_flush_plug_list (1 samples, 0.18%)</title><rect x="27.0" y="117" width="2.2" height="15.0" fill="rgb(219,23,32)" rx="2" ry="2" />
<text  x="30.04" y="127.5" ></text>
</g>
<g >
<title>ext4_es_insert_extent (2 samples, 0.36%)</title><rect x="52.6" y="117" width="4.3" height="15.0" fill="rgb(220,76,42)" rx="2" ry="2" />
<text  x="55.60" y="127.5" ></text>
</g>
<g >
<title>find_get_entry (1 samples, 0.18%)</title><rect x="80.3" y="69" width="2.1" height="15.0" fill="rgb(241,138,53)" rx="2" ry="2" />
<text  x="83.29" y="79.5" ></text>
</g>
<g >
<title>mpage_map_and_submit_buffers (1 samples, 0.18%)</title><rect x="78.2" y="117" width="2.1" height="15.0" fill="rgb(243,78,0)" rx="2" ry="2" />
<text  x="81.16" y="127.5" ></text>
</g>
<g >
<title>ext4_da_write_begin (1 samples, 0.18%)</title><rect x="14.3" y="149" width="2.1" height="15.0" fill="rgb(250,220,33)" rx="2" ry="2" />
<text  x="17.26" y="159.5" ></text>
</g>
<g >
<title>arch_cpu_idle (245 samples, 44.22%)</title><rect x="82.4" y="245" width="521.9" height="15.0" fill="rgb(224,138,22)" rx="2" ry="2" />
<text  x="85.42" y="255.5" >arch_cpu_idle</text>
</g>
<g >
<title>ext4_es_lookup_extent (1 samples, 0.18%)</title><rect x="56.9" y="117" width="2.1" height="15.0" fill="rgb(254,188,4)" rx="2" ry="2" />
<text  x="59.86" y="127.5" ></text>
</g>
<g >
<title>ext4_file_write_iter (2 samples, 0.36%)</title><rect x="12.1" y="197" width="4.3" height="15.0" fill="rgb(252,48,43)" rx="2" ry="2" />
<text  x="15.13" y="207.5" ></text>
</g>
<g >
<title>__ext4_journal_start_sb (1 samples, 0.18%)</title><rect x="50.5" y="149" width="2.1" height="15.0" fill="rgb(218,114,26)" rx="2" ry="2" />
<text  x="53.47" y="159.5" ></text>
</g>
<g >
<title>pagecache_get_page (1 samples, 0.18%)</title><rect x="59.0" y="133" width="2.1" height="15.0" fill="rgb(234,205,24)" rx="2" ry="2" />
<text  x="61.99" y="143.5" ></text>
</g>
<g >
<title>add_to_page_cache_lru (1 samples, 0.18%)</title><rect x="59.0" y="117" width="2.1" height="15.0" fill="rgb(223,198,39)" rx="2" ry="2" />
<text  x="61.99" y="127.5" ></text>
</g>
<g >
<title>get_page_from_freelist (2 samples, 0.36%)</title><rect x="22.8" y="101" width="4.2" height="15.0" fill="rgb(206,20,30)" rx="2" ry="2" />
<text  x="25.78" y="111.5" ></text>
</g>
<g >
<title>nvme_queue_rq (1 samples, 0.18%)</title><rect x="27.0" y="53" width="2.2" height="15.0" fill="rgb(221,130,48)" rx="2" ry="2" />
<text  x="30.04" y="63.5" ></text>
</g>
<g >
<title>copy_user_enhanced_fast_string (1 samples, 0.18%)</title><rect x="12.1" y="149" width="2.2" height="15.0" fill="rgb(224,151,21)" rx="2" ry="2" />
<text  x="15.13" y="159.5" ></text>
</g>
<g >
<title>cpu_startup_entry (275 samples, 49.64%)</title><rect x="604.3" y="229" width="585.7" height="15.0" fill="rgb(219,94,4)" rx="2" ry="2" />
<text  x="607.26" y="239.5" >cpu_startup_entry</text>
</g>
<g >
<title>swapper (520 samples, 93.86%)</title><rect x="82.4" y="309" width="1107.6" height="15.0" fill="rgb(234,182,12)" rx="2" ry="2" />
<text  x="85.42" y="319.5" >swapper</text>
</g>
<g >
<title>default_idle (245 samples, 44.22%)</title><rect x="82.4" y="229" width="521.9" height="15.0" fill="rgb(210,68,17)" rx="2" ry="2" />
<text  x="85.42" y="239.5" >default_idle</text>
</g>
<g >
<title>__vfs_read (6 samples, 1.08%)</title><rect x="16.4" y="229" width="12.8" height="15.0" fill="rgb(253,176,33)" rx="2" ry="2" />
<text  x="19.39" y="239.5" ></text>
</g>
<g >
<title>kworker/u4:0 (2 samples, 0.36%)</title><rect x="78.2" y="309" width="4.2" height="15.0" fill="rgb(213,62,3)" rx="2" ry="2" />
<text  x="81.16" y="319.5" ></text>
</g>
<g >
<title>jbd2_journal_stop (1 samples, 0.18%)</title><rect x="63.2" y="133" width="2.2" height="15.0" fill="rgb(208,191,54)" rx="2" ry="2" />
<text  x="66.25" y="143.5" ></text>
</g>
<g >
<title>radix_tree_maybe_preload (1 samples, 0.18%)</title><rect x="59.0" y="85" width="2.1" height="15.0" fill="rgb(236,25,23)" rx="2" ry="2" />
<text  x="61.99" y="95.5" ></text>
</g>
<g >
<title>_cond_resched (1 samples, 0.18%)</title><rect x="69.6" y="69" width="2.2" height="15.0" fill="rgb(237,127,36)" rx="2" ry="2" />
<text  x="72.64" y="79.5" ></text>
</g>
<g >
<title>vfs_write (23 samples, 4.15%)</title><rect x="29.2" y="245" width="49.0" height="15.0" fill="rgb(232,196,53)" rx="2" ry="2" />
<text  x="32.17" y="255.5" >vfs_..</text>
</g>
<g >
<title>do_writepages (2 samples, 0.36%)</title><rect x="78.2" y="149" width="4.2" height="15.0" fill="rgb(238,76,9)" rx="2" ry="2" />
<text  x="81.16" y="159.5" ></text>
</g>
<g >
<title>__zone_watermark_ok (1 samples, 0.18%)</title><rect x="24.9" y="85" width="2.1" height="15.0" fill="rgb(246,2,29)" rx="2" ry="2" />
<text  x="27.91" y="95.5" ></text>
</g>
<g >
<title>__writeback_inodes_wb (2 samples, 0.36%)</title><rect x="78.2" y="197" width="4.2" height="15.0" fill="rgb(240,29,7)" rx="2" ry="2" />
<text  x="81.16" y="207.5" ></text>
</g>
<g >
<title>ext4_file_write_iter (23 samples, 4.15%)</title><rect x="29.2" y="213" width="49.0" height="15.0" fill="rgb(227,225,19)" rx="2" ry="2" />
<text  x="32.17" y="223.5" >ext4..</text>
</g>
<g >
<title>__alloc_pages_nodemask (2 samples, 0.36%)</title><rect x="22.8" y="117" width="4.2" height="15.0" fill="rgb(244,207,36)" rx="2" ry="2" />
<text  x="25.78" y="127.5" ></text>
</g>
<g >
<title>blk_finish_plug (1 samples, 0.18%)</title><rect x="27.0" y="149" width="2.2" height="15.0" fill="rgb(225,112,39)" rx="2" ry="2" />
<text  x="30.04" y="159.5" ></text>
</g>
<g >
<title>__find_get_block_slow (1 samples, 0.18%)</title><rect x="80.3" y="101" width="2.1" height="15.0" fill="rgb(250,199,15)" rx="2" ry="2" />
<text  x="83.29" y="111.5" ></text>
</g>
<g >
<title>__generic_file_write_iter (2 samples, 0.36%)</title><rect x="12.1" y="181" width="4.3" height="15.0" fill="rgb(218,26,36)" rx="2" ry="2" />
<text  x="15.13" y="191.5" ></text>
</g>
<g >
<title>wb_workfn (2 samples, 0.36%)</title><rect x="78.2" y="229" width="4.2" height="15.0" fill="rgb(230,27,24)" rx="2" ry="2" />
<text  x="81.16" y="239.5" ></text>
</g>
<g >
<title>vfs_write (2 samples, 0.36%)</title><rect x="12.1" y="229" width="4.3" height="15.0" fill="rgb(229,157,50)" rx="2" ry="2" />
<text  x="15.13" y="239.5" ></text>
</g>
<g >
<title>__set_page_dirty (1 samples, 0.18%)</title><rect x="73.9" y="85" width="2.1" height="15.0" fill="rgb(254,80,28)" rx="2" ry="2" />
<text  x="76.90" y="95.5" ></text>
</g>
<g >
<title>start_kernel (275 samples, 49.64%)</title><rect x="604.3" y="261" width="585.7" height="15.0" fill="rgb(243,180,4)" rx="2" ry="2" />
<text  x="607.26" y="271.5" >start_kernel</text>
</g>
<g >
<title>jbd2__journal_start (1 samples, 0.18%)</title><rect x="50.5" y="133" width="2.1" height="15.0" fill="rgb(229,217,7)" rx="2" ry="2" />
<text  x="53.47" y="143.5" ></text>
</g>
<g >
<title>entry_SYSCALL_64_fastpath (23 samples, 4.15%)</title><rect x="29.2" y="277" width="49.0" height="15.0" fill="rgb(236,4,8)" rx="2" ry="2" />
<text  x="32.17" y="287.5" >entr..</text>
</g>
<g >
<title>grab_cache_page_write_begin (1 samples, 0.18%)</title><rect x="59.0" y="149" width="2.1" height="15.0" fill="rgb(238,17,37)" rx="2" ry="2" />
<text  x="61.99" y="159.5" ></text>
</g>
<g >
<title>cpu_startup_entry (245 samples, 44.22%)</title><rect x="82.4" y="277" width="521.9" height="15.0" fill="rgb(219,198,25)" rx="2" ry="2" />
<text  x="85.42" y="287.5" >cpu_startup_entry</text>
</g>
<g >
<title>default_idle (275 samples, 49.64%)</title><rect x="604.3" y="181" width="585.7" height="15.0" fill="rgb(238,200,23)" rx="2" ry="2" />
<text  x="607.26" y="191.5" >default_idle</text>
</g>
<g >
<title>__blk_mq_run_hw_queue (1 samples, 0.18%)</title><rect x="27.0" y="69" width="2.2" height="15.0" fill="rgb(233,34,14)" rx="2" ry="2" />
<text  x="30.04" y="79.5" ></text>
</g>
<g >
<title>pagecache_get_page (1 samples, 0.18%)</title><rect x="80.3" y="85" width="2.1" height="15.0" fill="rgb(205,54,35)" rx="2" ry="2" />
<text  x="83.29" y="95.5" ></text>
</g>
<g >
<title>ext4_block_write_begin (3 samples, 0.54%)</title><rect x="52.6" y="149" width="6.4" height="15.0" fill="rgb(229,69,37)" rx="2" ry="2" />
<text  x="55.60" y="159.5" ></text>
</g>
<g >
<title>kthread (2 samples, 0.36%)</title><rect x="78.2" y="277" width="4.2" height="15.0" fill="rgb(220,51,8)" rx="2" ry="2" />
<text  x="81.16" y="287.5" ></text>
</g>
<g >
<title>generic_perform_write (23 samples, 4.15%)</title><rect x="29.2" y="181" width="49.0" height="15.0" fill="rgb(218,155,33)" rx="2" ry="2" />
<text  x="32.17" y="191.5" >gene..</text>
</g>
<g >
<title>iov_iter_fault_in_readable (1 samples, 0.18%)</title><rect x="76.0" y="165" width="2.2" height="15.0" fill="rgb(254,50,30)" rx="2" ry="2" />
<text  x="79.03" y="175.5" ></text>
</g>
<g >
<title>cp (32 samples, 5.78%)</title><rect x="10.0" y="309" width="68.2" height="15.0" fill="rgb(248,137,44)" rx="2" ry="2" />
<text  x="13.00" y="319.5" >cp</text>
</g>
<g >
<title>generic_perform_write (2 samples, 0.36%)</title><rect x="12.1" y="165" width="4.3" height="15.0" fill="rgb(241,5,37)" rx="2" ry="2" />
<text  x="15.13" y="175.5" ></text>
</g>
<g >
<title>blk_rq_map_sg (1 samples, 0.18%)</title><rect x="27.0" y="37" width="2.2" height="15.0" fill="rgb(219,133,14)" rx="2" ry="2" />
<text  x="30.04" y="47.5" ></text>
</g>
<g >
<title>x86_64_start_kernel (275 samples, 49.64%)</title><rect x="604.3" y="293" width="585.7" height="15.0" fill="rgb(235,162,31)" rx="2" ry="2" />
<text  x="607.26" y="303.5" >x86_64_start_kernel</text>
</g>
<g >
<title>kmem_cache_free (1 samples, 0.18%)</title><rect x="63.2" y="117" width="2.2" height="15.0" fill="rgb(253,61,45)" rx="2" ry="2" />
<text  x="66.25" y="127.5" ></text>
</g>
<g >
<title>native_safe_halt (275 samples, 49.64%)</title><rect x="604.3" y="165" width="585.7" height="15.0" fill="rgb(239,212,16)" rx="2" ry="2" />
<text  x="607.26" y="175.5" >native_safe_halt</text>
</g>
<g >
<title>rest_init (275 samples, 49.64%)</title><rect x="604.3" y="245" width="585.7" height="15.0" fill="rgb(246,168,8)" rx="2" ry="2" />
<text  x="607.26" y="255.5" >rest_init</text>
</g>
<g >
<title>generic_write_end (5 samples, 0.90%)</title><rect x="65.4" y="149" width="10.6" height="15.0" fill="rgb(241,74,5)" rx="2" ry="2" />
<text  x="68.38" y="159.5" ></text>
</g>
<g >
<title>__es_remove_extent (1 samples, 0.18%)</title><rect x="54.7" y="101" width="2.2" height="15.0" fill="rgb(252,25,38)" rx="2" ry="2" />
<text  x="57.73" y="111.5" ></text>
</g>
<g >
<title>block_write_end (1 samples, 0.18%)</title><rect x="73.9" y="133" width="2.1" height="15.0" fill="rgb(229,4,16)" rx="2" ry="2" />
<text  x="76.90" y="143.5" ></text>
</g>
<g >
<title>__brelse (1 samples, 0.18%)</title><rect x="65.4" y="85" width="2.1" height="15.0" fill="rgb(208,64,20)" rx="2" ry="2" />
<text  x="68.38" y="95.5" ></text>
</g>
<g >
<title>__writeback_single_inode (2 samples, 0.36%)</title><rect x="78.2" y="165" width="4.2" height="15.0" fill="rgb(221,148,30)" rx="2" ry="2" />
<text  x="81.16" y="175.5" ></text>
</g>
<g >
<title>vfs_read (6 samples, 1.08%)</title><rect x="16.4" y="245" width="12.8" height="15.0" fill="rgb(249,41,14)" rx="2" ry="2" />
<text  x="19.39" y="255.5" ></text>
</g>
</g>
</svg>
