<?xml version="1.0" standalone="no"?>
<!DOCTYPE svg PUBLIC "-//W3C//DTD SVG 1.1//EN" "http://www.w3.org/Graphics/SVG/1.1/DTD/svg11.dtd">
<svg version="1.1" width="1200" height="374" onload="init(evt)" viewBox="0 0 1200 374" xmlns="http://www.w3.org/2000/svg" xmlns:xlink="http://www.w3.org/1999/xlink">
<!-- Flame graph stack visualization. See https://github.com/brendangregg/FlameGraph for latest version, and http://www.brendangregg.com/flamegraphs.html for examples. -->
<!-- NOTES:  -->
<defs>
	<linearGradient id="background" y1="0" y2="1" x1="0" x2="0" >
		<stop stop-color="#eeeeee" offset="5%" />
		<stop stop-color="#eeeeb0" offset="95%" />
	</linearGradient>
</defs>
<style type="text/css">
	text { font-family:Verdana; font-size:12px; fill:rgb(0,0,0); }
	#search { opacity:0.1; cursor:pointer; }
	#search:hover, #search.show { opacity:1; }
	#subtitle { text-anchor:middle; font-color:rgb(160,160,160); }
	#title { text-anchor:middle; font-size:17px}
	#unzoom { cursor:pointer; }
	#frames > *:hover { stroke:black; stroke-width:0.5; cursor:pointer; }
	.hide { display:none; }
	.parent { opacity:0.5; }
</style>
<script type="text/ecmascript">
<![CDATA[
	"use strict";
	var details, searchbtn, unzoombtn, matchedtxt, svg, searching;
	function init(evt) {
		details = document.getElementById("details").firstChild;
		searchbtn = document.getElementById("search");
		unzoombtn = document.getElementById("unzoom");
		matchedtxt = document.getElementById("matched");
		svg = document.getElementsByTagName("svg")[0];
		searching = 0;
	}

	window.addEventListener("click", function(e) {
		var target = find_group(e.target);
		if (target) {
			if (target.nodeName == "a") {
				if (e.ctrlKey === false) return;
				e.preventDefault();
			}
			if (target.classList.contains("parent")) unzoom();
			zoom(target);
		}
		else if (e.target.id == "unzoom") unzoom();
		else if (e.target.id == "search") search_prompt();
	}, false)

	// mouse-over for info
	// show
	window.addEventListener("mouseover", function(e) {
		var target = find_group(e.target);
		if (target) details.nodeValue = "Function: " + g_to_text(target);
	}, false)

	// clear
	window.addEventListener("mouseout", function(e) {
		var target = find_group(e.target);
		if (target) details.nodeValue = ' ';
	}, false)

	// ctrl-F for search
	window.addEventListener("keydown",function (e) {
		if (e.keyCode === 114 || (e.ctrlKey && e.keyCode === 70)) {
			e.preventDefault();
			search_prompt();
		}
	}, false)

	// functions
	function find_child(node, selector) {
		var children = node.querySelectorAll(selector);
		if (children.length) return children[0];
		return;
	}
	function find_group(node) {
		var parent = node.parentElement;
		if (!parent) return;
		if (parent.id == "frames") return node;
		return find_group(parent);
	}
	function orig_save(e, attr, val) {
		if (e.attributes["_orig_" + attr] != undefined) return;
		if (e.attributes[attr] == undefined) return;
		if (val == undefined) val = e.attributes[attr].value;
		e.setAttribute("_orig_" + attr, val);
	}
	function orig_load(e, attr) {
		if (e.attributes["_orig_"+attr] == undefined) return;
		e.attributes[attr].value = e.attributes["_orig_" + attr].value;
		e.removeAttribute("_orig_"+attr);
	}
	function g_to_text(e) {
		var text = find_child(e, "title").firstChild.nodeValue;
		return (text)
	}
	function g_to_func(e) {
		var func = g_to_text(e);
		// if there's any manipulation we want to do to the function
		// name before it's searched, do it here before returning.
		return (func);
	}
	function update_text(e) {
		var r = find_child(e, "rect");
		var t = find_child(e, "text");
		var w = parseFloat(r.attributes.width.value) -3;
		var txt = find_child(e, "title").textContent.replace(/\([^(]*\)$/,"");
		t.attributes.x.value = parseFloat(r.attributes.x.value) + 3;

		// Smaller than this size won't fit anything
		if (w < 2 * 12 * 0.59) {
			t.textContent = "";
			return;
		}

		t.textContent = txt;
		// Fit in full text width
		if (/^ *$/.test(txt) || t.getSubStringLength(0, txt.length) < w)
			return;

		for (var x = txt.length - 2; x > 0; x--) {
			if (t.getSubStringLength(0, x + 2) <= w) {
				t.textContent = txt.substring(0, x) + "..";
				return;
			}
		}
		t.textContent = "";
	}

	// zoom
	function zoom_reset(e) {
		if (e.attributes != undefined) {
			orig_load(e, "x");
			orig_load(e, "width");
		}
		if (e.childNodes == undefined) return;
		for (var i = 0, c = e.childNodes; i < c.length; i++) {
			zoom_reset(c[i]);
		}
	}
	function zoom_child(e, x, ratio) {
		if (e.attributes != undefined) {
			if (e.attributes.x != undefined) {
				orig_save(e, "x");
				e.attributes.x.value = (parseFloat(e.attributes.x.value) - x - 10) * ratio + 10;
				if (e.tagName == "text")
					e.attributes.x.value = find_child(e.parentNode, "rect[x]").attributes.x.value + 3;
			}
			if (e.attributes.width != undefined) {
				orig_save(e, "width");
				e.attributes.width.value = parseFloat(e.attributes.width.value) * ratio;
			}
		}

		if (e.childNodes == undefined) return;
		for (var i = 0, c = e.childNodes; i < c.length; i++) {
			zoom_child(c[i], x - 10, ratio);
		}
	}
	function zoom_parent(e) {
		if (e.attributes) {
			if (e.attributes.x != undefined) {
				orig_save(e, "x");
				e.attributes.x.value = 10;
			}
			if (e.attributes.width != undefined) {
				orig_save(e, "width");
				e.attributes.width.value = parseInt(svg.width.baseVal.value) - (10 * 2);
			}
		}
		if (e.childNodes == undefined) return;
		for (var i = 0, c = e.childNodes; i < c.length; i++) {
			zoom_parent(c[i]);
		}
	}
	function zoom(node) {
		var attr = find_child(node, "rect").attributes;
		var width = parseFloat(attr.width.value);
		var xmin = parseFloat(attr.x.value);
		var xmax = parseFloat(xmin + width);
		var ymin = parseFloat(attr.y.value);
		var ratio = (svg.width.baseVal.value - 2 * 10) / width;

		// XXX: Workaround for JavaScript float issues (fix me)
		var fudge = 0.0001;

		unzoombtn.classList.remove("hide");

		var el = document.getElementById("frames").children;
		for (var i = 0; i < el.length; i++) {
			var e = el[i];
			var a = find_child(e, "rect").attributes;
			var ex = parseFloat(a.x.value);
			var ew = parseFloat(a.width.value);
			var upstack;
			// Is it an ancestor
			if (0 == 0) {
				upstack = parseFloat(a.y.value) > ymin;
			} else {
				upstack = parseFloat(a.y.value) < ymin;
			}
			if (upstack) {
				// Direct ancestor
				if (ex <= xmin && (ex+ew+fudge) >= xmax) {
					e.classList.add("parent");
					zoom_parent(e);
					update_text(e);
				}
				// not in current path
				else
					e.classList.add("hide");
			}
			// Children maybe
			else {
				// no common path
				if (ex < xmin || ex + fudge >= xmax) {
					e.classList.add("hide");
				}
				else {
					zoom_child(e, xmin, ratio);
					update_text(e);
				}
			}
		}
	}
	function unzoom() {
		unzoombtn.classList.add("hide");
		var el = document.getElementById("frames").children;
		for(var i = 0; i < el.length; i++) {
			el[i].classList.remove("parent");
			el[i].classList.remove("hide");
			zoom_reset(el[i]);
			update_text(el[i]);
		}
	}

	// search
	function reset_search() {
		var el = document.querySelectorAll("#frames rect");
		for (var i = 0; i < el.length; i++) {
			orig_load(el[i], "fill")
		}
	}
	function search_prompt() {
		if (!searching) {
			var term = prompt("Enter a search term (regexp " +
			    "allowed, eg: ^ext4_)", "");
			if (term != null) {
				search(term)
			}
		} else {
			reset_search();
			searching = 0;
			searchbtn.classList.remove("show");
			searchbtn.firstChild.nodeValue = "Search"
			matchedtxt.classList.add("hide");
			matchedtxt.firstChild.nodeValue = ""
		}
	}
	function search(term) {
		var re = new RegExp(term);
		var el = document.getElementById("frames").children;
		var matches = new Object();
		var maxwidth = 0;
		for (var i = 0; i < el.length; i++) {
			var e = el[i];
			var func = g_to_func(e);
			var rect = find_child(e, "rect");
			if (func == null || rect == null)
				continue;

			// Save max width. Only works as we have a root frame
			var w = parseFloat(rect.attributes.width.value);
			if (w > maxwidth)
				maxwidth = w;

			if (func.match(re)) {
				// highlight
				var x = parseFloat(rect.attributes.x.value);
				orig_save(rect, "fill");
				rect.attributes.fill.value = "rgb(230,0,230)";

				// remember matches
				if (matches[x] == undefined) {
					matches[x] = w;
				} else {
					if (w > matches[x]) {
						// overwrite with parent
						matches[x] = w;
					}
				}
				searching = 1;
			}
		}
		if (!searching)
			return;

		searchbtn.classList.add("show");
		searchbtn.firstChild.nodeValue = "Reset Search";

		// calculate percent matched, excluding vertical overlap
		var count = 0;
		var lastx = -1;
		var lastw = 0;
		var keys = Array();
		for (k in matches) {
			if (matches.hasOwnProperty(k))
				keys.push(k);
		}
		// sort the matched frames by their x location
		// ascending, then width descending
		keys.sort(function(a, b){
			return a - b;
		});
		// Step through frames saving only the biggest bottom-up frames
		// thanks to the sort order. This relies on the tree property
		// where children are always smaller than their parents.
		var fudge = 0.0001;	// JavaScript floating point
		for (var k in keys) {
			var x = parseFloat(keys[k]);
			var w = matches[keys[k]];
			if (x >= lastx + lastw - fudge) {
				count += w;
				lastx = x;
				lastw = w;
			}
		}
		// display matched percent
		matchedtxt.classList.remove("hide");
		var pct = 100 * count / maxwidth;
		if (pct != 100) pct = pct.toFixed(1)
		matchedtxt.firstChild.nodeValue = "Matched: " + pct + "%";
	}
]]>
</script>
<rect x="0.0" y="0" width="1200.0" height="374.0" fill="url(#background)"  />
<text id="title" x="600.00" y="24" >Flame Graph</text>
<text id="details" x="10.00" y="357" > </text>
<text id="unzoom" x="10.00" y="24" class="hide">Reset Zoom</text>
<text id="search" x="1090.00" y="24" >Search</text>
<text id="matched" x="1090.00" y="357" > </text>
<g id="frames">
<g >
<title>pagecache_get_page (4 samples, 0.78%)</title><rect x="60.5" y="117" width="9.2" height="15.0" fill="rgb(239,37,2)" rx="2" ry="2" />
<text  x="63.51" y="127.5" ></text>
</g>
<g >
<title>generic_file_read_iter (10 samples, 1.95%)</title><rect x="10.0" y="197" width="23.0" height="15.0" fill="rgb(216,186,35)" rx="2" ry="2" />
<text  x="13.00" y="207.5" >g..</text>
</g>
<g >
<title>radix_tree_lookup_slot (1 samples, 0.19%)</title><rect x="58.2" y="53" width="2.3" height="15.0" fill="rgb(250,13,19)" rx="2" ry="2" />
<text  x="61.21" y="63.5" ></text>
</g>
<g >
<title>native_safe_halt (229 samples, 44.55%)</title><rect x="94.9" y="213" width="525.8" height="15.0" fill="rgb(240,4,36)" rx="2" ry="2" />
<text  x="97.94" y="223.5" >native_safe_halt</text>
</g>
<g >
<title>ext4_bio_write_page (1 samples, 0.19%)</title><rect x="92.6" y="85" width="2.3" height="15.0" fill="rgb(251,71,35)" rx="2" ry="2" />
<text  x="95.65" y="95.5" ></text>
</g>
<g >
<title>ext4_da_write_end (8 samples, 1.56%)</title><rect x="74.3" y="149" width="18.3" height="15.0" fill="rgb(235,1,34)" rx="2" ry="2" />
<text  x="77.28" y="159.5" ></text>
</g>
<g >
<title>ext4_file_write_iter (26 samples, 5.06%)</title><rect x="33.0" y="197" width="59.6" height="15.0" fill="rgb(207,180,10)" rx="2" ry="2" />
<text  x="35.96" y="207.5" >ext4_f..</text>
</g>
<g >
<title>ext4_readpages (1 samples, 0.19%)</title><rect x="28.4" y="133" width="2.3" height="15.0" fill="rgb(249,23,8)" rx="2" ry="2" />
<text  x="31.37" y="143.5" ></text>
</g>
<g >
<title>__mark_inode_dirty (3 samples, 0.58%)</title><rect x="76.6" y="117" width="6.9" height="15.0" fill="rgb(247,61,9)" rx="2" ry="2" />
<text  x="79.58" y="127.5" ></text>
</g>
<g >
<title>__radix_tree_lookup (1 samples, 0.19%)</title><rect x="58.2" y="37" width="2.3" height="15.0" fill="rgb(230,25,40)" rx="2" ry="2" />
<text  x="61.21" y="47.5" ></text>
</g>
<g >
<title>submit_bio (1 samples, 0.19%)</title><rect x="28.4" y="101" width="2.3" height="15.0" fill="rgb(218,104,23)" rx="2" ry="2" />
<text  x="31.37" y="111.5" ></text>
</g>
<g >
<title>get_page_from_freelist (1 samples, 0.19%)</title><rect x="60.5" y="53" width="2.3" height="15.0" fill="rgb(208,57,22)" rx="2" ry="2" />
<text  x="63.51" y="63.5" ></text>
</g>
<g >
<title>pagecache_get_page (1 samples, 0.19%)</title><rect x="58.2" y="85" width="2.3" height="15.0" fill="rgb(234,170,4)" rx="2" ry="2" />
<text  x="61.21" y="95.5" ></text>
</g>
<g >
<title>ondemand_readahead (4 samples, 0.78%)</title><rect x="23.8" y="165" width="9.2" height="15.0" fill="rgb(238,174,5)" rx="2" ry="2" />
<text  x="26.77" y="175.5" ></text>
</g>
<g >
<title>radix_tree_lookup (1 samples, 0.19%)</title><rect x="30.7" y="133" width="2.3" height="15.0" fill="rgb(216,99,25)" rx="2" ry="2" />
<text  x="33.66" y="143.5" ></text>
</g>
<g >
<title>cpu_startup_entry (248 samples, 48.25%)</title><rect x="620.7" y="229" width="569.3" height="15.0" fill="rgb(220,46,51)" rx="2" ry="2" />
<text  x="623.66" y="239.5" >cpu_startup_entry</text>
</g>
<g >
<title>__vfs_read (10 samples, 1.95%)</title><rect x="10.0" y="229" width="23.0" height="15.0" fill="rgb(247,31,3)" rx="2" ry="2" />
<text  x="13.00" y="239.5" >_..</text>
</g>
<g >
<title>new_sync_read (10 samples, 1.95%)</title><rect x="10.0" y="213" width="23.0" height="15.0" fill="rgb(229,203,51)" rx="2" ry="2" />
<text  x="13.00" y="223.5" >n..</text>
</g>
<g >
<title>__generic_file_write_iter (26 samples, 5.06%)</title><rect x="33.0" y="181" width="59.6" height="15.0" fill="rgb(254,85,20)" rx="2" ry="2" />
<text  x="35.96" y="191.5" >__gene..</text>
</g>
<g >
<title>__block_commit_write.isra.23 (2 samples, 0.39%)</title><rect x="88.1" y="101" width="4.5" height="15.0" fill="rgb(251,130,50)" rx="2" ry="2" />
<text  x="91.05" y="111.5" ></text>
</g>
<g >
<title>__vfs_write (26 samples, 5.06%)</title><rect x="33.0" y="229" width="59.6" height="15.0" fill="rgb(212,151,27)" rx="2" ry="2" />
<text  x="35.96" y="239.5" >__vfs_..</text>
</g>
<g >
<title>ext4_dirty_inode (3 samples, 0.58%)</title><rect x="76.6" y="101" width="6.9" height="15.0" fill="rgb(239,146,23)" rx="2" ry="2" />
<text  x="79.58" y="111.5" ></text>
</g>
<g >
<title>default_idle_call (248 samples, 48.25%)</title><rect x="620.7" y="213" width="569.3" height="15.0" fill="rgb(232,162,51)" rx="2" ry="2" />
<text  x="623.66" y="223.5" >default_idle_call</text>
</g>
<g >
<title>sys_write (26 samples, 5.06%)</title><rect x="33.0" y="261" width="59.6" height="15.0" fill="rgb(245,67,45)" rx="2" ry="2" />
<text  x="35.96" y="271.5" >sys_wr..</text>
</g>
<g >
<title>blk_mq_make_request (1 samples, 0.19%)</title><rect x="28.4" y="69" width="2.3" height="15.0" fill="rgb(233,60,46)" rx="2" ry="2" />
<text  x="31.37" y="79.5" ></text>
</g>
<g >
<title>__radix_tree_lookup (1 samples, 0.19%)</title><rect x="67.4" y="69" width="2.3" height="15.0" fill="rgb(240,182,49)" rx="2" ry="2" />
<text  x="70.39" y="79.5" ></text>
</g>
<g >
<title>vfs_write (26 samples, 5.06%)</title><rect x="33.0" y="245" width="59.6" height="15.0" fill="rgb(244,141,41)" rx="2" ry="2" />
<text  x="35.96" y="255.5" >vfs_wr..</text>
</g>
<g >
<title>get_page_from_freelist (2 samples, 0.39%)</title><rect x="23.8" y="85" width="4.6" height="15.0" fill="rgb(212,144,7)" rx="2" ry="2" />
<text  x="26.77" y="95.5" ></text>
</g>
<g >
<title>wb_writeback (1 samples, 0.19%)</title><rect x="92.6" y="213" width="2.3" height="15.0" fill="rgb(245,83,17)" rx="2" ry="2" />
<text  x="95.65" y="223.5" ></text>
</g>
<g >
<title>_raw_spin_unlock_irqrestore (1 samples, 0.19%)</title><rect x="90.4" y="53" width="2.2" height="15.0" fill="rgb(233,45,12)" rx="2" ry="2" />
<text  x="93.35" y="63.5" ></text>
</g>
<g >
<title>alloc_pages_current (2 samples, 0.39%)</title><rect x="23.8" y="117" width="4.6" height="15.0" fill="rgb(248,72,21)" rx="2" ry="2" />
<text  x="26.77" y="127.5" ></text>
</g>
<g >
<title>block_write_end (4 samples, 0.78%)</title><rect x="83.5" y="117" width="9.1" height="15.0" fill="rgb(223,89,52)" rx="2" ry="2" />
<text  x="86.46" y="127.5" ></text>
</g>
<g >
<title>worker_thread (1 samples, 0.19%)</title><rect x="92.6" y="261" width="2.3" height="15.0" fill="rgb(250,100,27)" rx="2" ry="2" />
<text  x="95.65" y="271.5" ></text>
</g>
<g >
<title>kworker/u4:1 (1 samples, 0.19%)</title><rect x="92.6" y="309" width="2.3" height="15.0" fill="rgb(239,182,48)" rx="2" ry="2" />
<text  x="95.65" y="319.5" ></text>
</g>
<g >
<title>__page_cache_alloc (2 samples, 0.39%)</title><rect x="23.8" y="133" width="4.6" height="15.0" fill="rgb(220,26,23)" rx="2" ry="2" />
<text  x="26.77" y="143.5" ></text>
</g>
<g >
<title>jbd2_journal_stop (1 samples, 0.19%)</title><rect x="74.3" y="117" width="2.3" height="15.0" fill="rgb(229,119,10)" rx="2" ry="2" />
<text  x="77.28" y="127.5" ></text>
</g>
<g >
<title>vfs_read (10 samples, 1.95%)</title><rect x="10.0" y="245" width="23.0" height="15.0" fill="rgb(217,133,6)" rx="2" ry="2" />
<text  x="13.00" y="255.5" >v..</text>
</g>
<g >
<title>x86_64_start_kernel (248 samples, 48.25%)</title><rect x="620.7" y="293" width="569.3" height="15.0" fill="rgb(219,2,23)" rx="2" ry="2" />
<text  x="623.66" y="303.5" >x86_64_start_kernel</text>
</g>
<g >
<title>process_one_work (1 samples, 0.19%)</title><rect x="92.6" y="245" width="2.3" height="15.0" fill="rgb(241,205,47)" rx="2" ry="2" />
<text  x="95.65" y="255.5" ></text>
</g>
<g >
<title>cp (36 samples, 7.00%)</title><rect x="10.0" y="309" width="82.6" height="15.0" fill="rgb(206,13,15)" rx="2" ry="2" />
<text  x="13.00" y="319.5" >cp</text>
</g>
<g >
<title>__writeback_single_inode (1 samples, 0.19%)</title><rect x="92.6" y="165" width="2.3" height="15.0" fill="rgb(238,191,27)" rx="2" ry="2" />
<text  x="95.65" y="175.5" ></text>
</g>
<g >
<title>mark_buffer_dirty (2 samples, 0.39%)</title><rect x="88.1" y="85" width="4.5" height="15.0" fill="rgb(206,58,42)" rx="2" ry="2" />
<text  x="91.05" y="95.5" ></text>
</g>
<g >
<title>native_safe_halt (248 samples, 48.25%)</title><rect x="620.7" y="165" width="569.3" height="15.0" fill="rgb(231,160,52)" rx="2" ry="2" />
<text  x="623.66" y="175.5" >native_safe_halt</text>
</g>
<g >
<title>__alloc_pages_nodemask (1 samples, 0.19%)</title><rect x="60.5" y="69" width="2.3" height="15.0" fill="rgb(218,39,31)" rx="2" ry="2" />
<text  x="63.51" y="79.5" ></text>
</g>
<g >
<title>ret_from_fork (1 samples, 0.19%)</title><rect x="92.6" y="293" width="2.3" height="15.0" fill="rgb(228,207,44)" rx="2" ry="2" />
<text  x="95.65" y="303.5" ></text>
</g>
<g >
<title>entry_SYSCALL_64_fastpath (26 samples, 5.06%)</title><rect x="33.0" y="277" width="59.6" height="15.0" fill="rgb(249,151,34)" rx="2" ry="2" />
<text  x="35.96" y="287.5" >entry_..</text>
</g>
<g >
<title>ext4_reserve_inode_write (1 samples, 0.19%)</title><rect x="81.2" y="69" width="2.3" height="15.0" fill="rgb(252,32,37)" rx="2" ry="2" />
<text  x="84.17" y="79.5" ></text>
</g>
<g >
<title>new_sync_write (26 samples, 5.06%)</title><rect x="33.0" y="213" width="59.6" height="15.0" fill="rgb(206,88,10)" rx="2" ry="2" />
<text  x="35.96" y="223.5" >new_sy..</text>
</g>
<g >
<title>start_secondary (229 samples, 44.55%)</title><rect x="94.9" y="293" width="525.8" height="15.0" fill="rgb(229,75,16)" rx="2" ry="2" />
<text  x="97.94" y="303.5" >start_secondary</text>
</g>
<g >
<title>copy_page_to_iter (6 samples, 1.17%)</title><rect x="10.0" y="181" width="13.8" height="15.0" fill="rgb(217,8,25)" rx="2" ry="2" />
<text  x="13.00" y="191.5" ></text>
</g>
<g >
<title>alloc_pages_current (1 samples, 0.19%)</title><rect x="60.5" y="85" width="2.3" height="15.0" fill="rgb(231,19,0)" rx="2" ry="2" />
<text  x="63.51" y="95.5" ></text>
</g>
<g >
<title>generic_write_end (7 samples, 1.36%)</title><rect x="76.6" y="133" width="16.0" height="15.0" fill="rgb(218,77,54)" rx="2" ry="2" />
<text  x="79.58" y="143.5" ></text>
</g>
<g >
<title>ext4_inode_csum_set (1 samples, 0.19%)</title><rect x="78.9" y="53" width="2.3" height="15.0" fill="rgb(246,6,15)" rx="2" ry="2" />
<text  x="81.87" y="63.5" ></text>
</g>
<g >
<title>jbd2__journal_start (1 samples, 0.19%)</title><rect x="49.0" y="117" width="2.3" height="15.0" fill="rgb(241,178,19)" rx="2" ry="2" />
<text  x="52.03" y="127.5" ></text>
</g>
<g >
<title>add_transaction_credits (1 samples, 0.19%)</title><rect x="49.0" y="85" width="2.3" height="15.0" fill="rgb(214,26,14)" rx="2" ry="2" />
<text  x="52.03" y="95.5" ></text>
</g>
<g >
<title>__set_page_dirty (1 samples, 0.19%)</title><rect x="90.4" y="69" width="2.2" height="15.0" fill="rgb(229,73,6)" rx="2" ry="2" />
<text  x="93.35" y="79.5" ></text>
</g>
<g >
<title>start_kernel (248 samples, 48.25%)</title><rect x="620.7" y="261" width="569.3" height="15.0" fill="rgb(221,143,23)" rx="2" ry="2" />
<text  x="623.66" y="271.5" >start_kernel</text>
</g>
<g >
<title>add_to_page_cache_lru (2 samples, 0.39%)</title><rect x="62.8" y="101" width="4.6" height="15.0" fill="rgb(225,83,47)" rx="2" ry="2" />
<text  x="65.80" y="111.5" ></text>
</g>
<g >
<title>ext4_writepages (1 samples, 0.19%)</title><rect x="92.6" y="133" width="2.3" height="15.0" fill="rgb(243,86,24)" rx="2" ry="2" />
<text  x="95.65" y="143.5" ></text>
</g>
<g >
<title>generic_make_request (1 samples, 0.19%)</title><rect x="28.4" y="85" width="2.3" height="15.0" fill="rgb(225,141,5)" rx="2" ry="2" />
<text  x="31.37" y="95.5" ></text>
</g>
<g >
<title>page_cache_async_readahead (4 samples, 0.78%)</title><rect x="23.8" y="181" width="9.2" height="15.0" fill="rgb(235,87,40)" rx="2" ry="2" />
<text  x="26.77" y="191.5" ></text>
</g>
<g >
<title>grab_cache_page_write_begin (4 samples, 0.78%)</title><rect x="60.5" y="133" width="9.2" height="15.0" fill="rgb(245,189,42)" rx="2" ry="2" />
<text  x="63.51" y="143.5" ></text>
</g>
<g >
<title>read (10 samples, 1.95%)</title><rect x="10.0" y="293" width="23.0" height="15.0" fill="rgb(222,75,15)" rx="2" ry="2" />
<text  x="13.00" y="303.5" >r..</text>
</g>
<g >
<title>arch_cpu_idle (248 samples, 48.25%)</title><rect x="620.7" y="197" width="569.3" height="15.0" fill="rgb(218,83,7)" rx="2" ry="2" />
<text  x="623.66" y="207.5" >arch_cpu_idle</text>
</g>
<g >
<title>__add_to_page_cache_locked (2 samples, 0.39%)</title><rect x="62.8" y="85" width="4.6" height="15.0" fill="rgb(215,133,41)" rx="2" ry="2" />
<text  x="65.80" y="95.5" ></text>
</g>
<g >
<title>do_writepages (1 samples, 0.19%)</title><rect x="92.6" y="149" width="2.3" height="15.0" fill="rgb(214,61,52)" rx="2" ry="2" />
<text  x="95.65" y="159.5" ></text>
</g>
<g >
<title>sys_read (10 samples, 1.95%)</title><rect x="10.0" y="261" width="23.0" height="15.0" fill="rgb(236,143,20)" rx="2" ry="2" />
<text  x="13.00" y="271.5" >s..</text>
</g>
<g >
<title>unlock_page (2 samples, 0.39%)</title><rect x="69.7" y="133" width="4.6" height="15.0" fill="rgb(221,38,24)" rx="2" ry="2" />
<text  x="72.69" y="143.5" ></text>
</g>
<g >
<title>ext4_mark_iloc_dirty (1 samples, 0.19%)</title><rect x="78.9" y="69" width="2.3" height="15.0" fill="rgb(251,201,51)" rx="2" ry="2" />
<text  x="81.87" y="79.5" ></text>
</g>
<g >
<title>ext4_da_get_block_prep (2 samples, 0.39%)</title><rect x="53.6" y="117" width="4.6" height="15.0" fill="rgb(239,220,26)" rx="2" ry="2" />
<text  x="56.62" y="127.5" ></text>
</g>
<g >
<title>cpu_startup_entry (229 samples, 44.55%)</title><rect x="94.9" y="277" width="525.8" height="15.0" fill="rgb(221,80,34)" rx="2" ry="2" />
<text  x="97.94" y="287.5" >cpu_startup_entry</text>
</g>
<g >
<title>entry_SYSCALL_64_fastpath (10 samples, 1.95%)</title><rect x="10.0" y="277" width="23.0" height="15.0" fill="rgb(253,32,34)" rx="2" ry="2" />
<text  x="13.00" y="287.5" >e..</text>
</g>
<g >
<title>x86_64_start_reservations (248 samples, 48.25%)</title><rect x="620.7" y="277" width="569.3" height="15.0" fill="rgb(216,76,46)" rx="2" ry="2" />
<text  x="623.66" y="287.5" >x86_64_start_reservations</text>
</g>
<g >
<title>default_idle_call (229 samples, 44.55%)</title><rect x="94.9" y="261" width="525.8" height="15.0" fill="rgb(229,36,16)" rx="2" ry="2" />
<text  x="97.94" y="271.5" >default_idle_call</text>
</g>
<g >
<title>wb_workfn (1 samples, 0.19%)</title><rect x="92.6" y="229" width="2.3" height="15.0" fill="rgb(251,221,51)" rx="2" ry="2" />
<text  x="95.65" y="239.5" ></text>
</g>
<g >
<title>write (26 samples, 5.06%)</title><rect x="33.0" y="293" width="59.6" height="15.0" fill="rgb(227,171,20)" rx="2" ry="2" />
<text  x="35.96" y="303.5" >write</text>
</g>
<g >
<title>__mark_inode_dirty (1 samples, 0.19%)</title><rect x="88.1" y="69" width="2.3" height="15.0" fill="rgb(212,188,26)" rx="2" ry="2" />
<text  x="91.05" y="79.5" ></text>
</g>
<g >
<title>__alloc_pages_nodemask (2 samples, 0.39%)</title><rect x="23.8" y="101" width="4.6" height="15.0" fill="rgb(222,76,35)" rx="2" ry="2" />
<text  x="26.77" y="111.5" ></text>
</g>
<g >
<title>default_idle (229 samples, 44.55%)</title><rect x="94.9" y="229" width="525.8" height="15.0" fill="rgb(247,124,6)" rx="2" ry="2" />
<text  x="97.94" y="239.5" >default_idle</text>
</g>
<g >
<title>swapper (477 samples, 92.80%)</title><rect x="94.9" y="309" width="1095.1" height="15.0" fill="rgb(218,27,40)" rx="2" ry="2" />
<text  x="97.94" y="319.5" >swapper</text>
</g>
<g >
<title>start_this_handle (1 samples, 0.19%)</title><rect x="49.0" y="101" width="2.3" height="15.0" fill="rgb(237,178,33)" rx="2" ry="2" />
<text  x="52.03" y="111.5" ></text>
</g>
<g >
<title>copy_user_enhanced_fast_string (6 samples, 1.17%)</title><rect x="10.0" y="165" width="13.8" height="15.0" fill="rgb(250,73,36)" rx="2" ry="2" />
<text  x="13.00" y="175.5" ></text>
</g>
<g >
<title>mpage_submit_page (1 samples, 0.19%)</title><rect x="92.6" y="101" width="2.3" height="15.0" fill="rgb(252,31,35)" rx="2" ry="2" />
<text  x="95.65" y="111.5" ></text>
</g>
<g >
<title>kthread (1 samples, 0.19%)</title><rect x="92.6" y="277" width="2.3" height="15.0" fill="rgb(241,144,9)" rx="2" ry="2" />
<text  x="95.65" y="287.5" ></text>
</g>
<g >
<title>ext4_da_write_begin (12 samples, 2.33%)</title><rect x="46.7" y="149" width="27.6" height="15.0" fill="rgb(230,104,24)" rx="2" ry="2" />
<text  x="49.73" y="159.5" >e..</text>
</g>
<g >
<title>all (514 samples, 100%)</title><rect x="10.0" y="325" width="1180.0" height="15.0" fill="rgb(227,26,50)" rx="2" ry="2" />
<text  x="13.00" y="335.5" ></text>
</g>
<g >
<title>__radix_tree_lookup (1 samples, 0.19%)</title><rect x="30.7" y="117" width="2.3" height="15.0" fill="rgb(237,126,1)" rx="2" ry="2" />
<text  x="33.66" y="127.5" ></text>
</g>
<g >
<title>mpage_map_and_submit_buffers (1 samples, 0.19%)</title><rect x="92.6" y="117" width="2.3" height="15.0" fill="rgb(237,215,22)" rx="2" ry="2" />
<text  x="95.65" y="127.5" ></text>
</g>
<g >
<title>jbd2_journal_stop (1 samples, 0.19%)</title><rect x="76.6" y="69" width="2.3" height="15.0" fill="rgb(216,140,8)" rx="2" ry="2" />
<text  x="79.58" y="79.5" ></text>
</g>
<g >
<title>__ext4_journal_stop (1 samples, 0.19%)</title><rect x="74.3" y="133" width="2.3" height="15.0" fill="rgb(209,35,23)" rx="2" ry="2" />
<text  x="77.28" y="143.5" ></text>
</g>
<g >
<title>__ext4_journal_start_sb (1 samples, 0.19%)</title><rect x="49.0" y="133" width="2.3" height="15.0" fill="rgb(230,216,50)" rx="2" ry="2" />
<text  x="52.03" y="143.5" ></text>
</g>
<g >
<title>default_idle (248 samples, 48.25%)</title><rect x="620.7" y="181" width="569.3" height="15.0" fill="rgb(250,142,26)" rx="2" ry="2" />
<text  x="623.66" y="191.5" >default_idle</text>
</g>
<g >
<title>find_get_entry (1 samples, 0.19%)</title><rect x="67.4" y="101" width="2.3" height="15.0" fill="rgb(254,35,37)" rx="2" ry="2" />
<text  x="70.39" y="111.5" ></text>
</g>
<g >
<title>__do_page_cache_readahead (4 samples, 0.78%)</title><rect x="23.8" y="149" width="9.2" height="15.0" fill="rgb(208,126,36)" rx="2" ry="2" />
<text  x="26.77" y="159.5" ></text>
</g>
<g >
<title>_raw_spin_unlock_irqrestore (1 samples, 0.19%)</title><rect x="92.6" y="53" width="2.3" height="15.0" fill="rgb(237,210,25)" rx="2" ry="2" />
<text  x="95.65" y="63.5" ></text>
</g>
<g >
<title>copy_user_enhanced_fast_string (5 samples, 0.97%)</title><rect x="35.3" y="149" width="11.4" height="15.0" fill="rgb(210,65,30)" rx="2" ry="2" />
<text  x="38.25" y="159.5" ></text>
</g>
<g >
<title>find_get_entry (1 samples, 0.19%)</title><rect x="58.2" y="69" width="2.3" height="15.0" fill="rgb(247,191,29)" rx="2" ry="2" />
<text  x="61.21" y="79.5" ></text>
</g>
<g >
<title>radix_tree_lookup_slot (1 samples, 0.19%)</title><rect x="67.4" y="85" width="2.3" height="15.0" fill="rgb(209,82,1)" rx="2" ry="2" />
<text  x="70.39" y="95.5" ></text>
</g>
<g >
<title>__page_cache_alloc (1 samples, 0.19%)</title><rect x="60.5" y="101" width="2.3" height="15.0" fill="rgb(228,124,8)" rx="2" ry="2" />
<text  x="63.51" y="111.5" ></text>
</g>
<g >
<title>blk_queue_split (1 samples, 0.19%)</title><rect x="28.4" y="53" width="2.3" height="15.0" fill="rgb(207,213,30)" rx="2" ry="2" />
<text  x="31.37" y="63.5" ></text>
</g>
<g >
<title>ext4_mpage_readpages (1 samples, 0.19%)</title><rect x="28.4" y="117" width="2.3" height="15.0" fill="rgb(232,133,4)" rx="2" ry="2" />
<text  x="31.37" y="127.5" ></text>
</g>
<g >
<title>__find_get_block_slow (1 samples, 0.19%)</title><rect x="58.2" y="101" width="2.3" height="15.0" fill="rgb(210,143,41)" rx="2" ry="2" />
<text  x="61.21" y="111.5" ></text>
</g>
<g >
<title>__ext4_journal_stop (1 samples, 0.19%)</title><rect x="76.6" y="85" width="2.3" height="15.0" fill="rgb(234,72,14)" rx="2" ry="2" />
<text  x="79.58" y="95.5" ></text>
</g>
<g >
<title>ext4_mark_inode_dirty (2 samples, 0.39%)</title><rect x="78.9" y="85" width="4.6" height="15.0" fill="rgb(232,48,43)" rx="2" ry="2" />
<text  x="81.87" y="95.5" ></text>
</g>
<g >
<title>__ext4_journal_get_write_access (1 samples, 0.19%)</title><rect x="81.2" y="53" width="2.3" height="15.0" fill="rgb(243,70,51)" rx="2" ry="2" />
<text  x="84.17" y="63.5" ></text>
</g>
<g >
<title>writeback_sb_inodes (1 samples, 0.19%)</title><rect x="92.6" y="181" width="2.3" height="15.0" fill="rgb(208,81,34)" rx="2" ry="2" />
<text  x="95.65" y="191.5" ></text>
</g>
<g >
<title>mem_cgroup_commit_charge (1 samples, 0.19%)</title><rect x="65.1" y="69" width="2.3" height="15.0" fill="rgb(232,30,46)" rx="2" ry="2" />
<text  x="68.10" y="79.5" ></text>
</g>
<g >
<title>__writeback_inodes_wb (1 samples, 0.19%)</title><rect x="92.6" y="197" width="2.3" height="15.0" fill="rgb(230,17,7)" rx="2" ry="2" />
<text  x="95.65" y="207.5" ></text>
</g>
<g >
<title>arch_cpu_idle (229 samples, 44.55%)</title><rect x="94.9" y="245" width="525.8" height="15.0" fill="rgb(247,164,18)" rx="2" ry="2" />
<text  x="97.94" y="255.5" >arch_cpu_idle</text>
</g>
<g >
<title>unmap_underlying_metadata (1 samples, 0.19%)</title><rect x="58.2" y="117" width="2.3" height="15.0" fill="rgb(225,18,35)" rx="2" ry="2" />
<text  x="61.21" y="127.5" ></text>
</g>
<g >
<title>up_read (1 samples, 0.19%)</title><rect x="55.9" y="101" width="2.3" height="15.0" fill="rgb(252,108,5)" rx="2" ry="2" />
<text  x="58.91" y="111.5" ></text>
</g>
<g >
<title>__test_set_page_writeback (1 samples, 0.19%)</title><rect x="92.6" y="69" width="2.3" height="15.0" fill="rgb(232,167,52)" rx="2" ry="2" />
<text  x="95.65" y="79.5" ></text>
</g>
<g >
<title>generic_perform_write (26 samples, 5.06%)</title><rect x="33.0" y="165" width="59.6" height="15.0" fill="rgb(227,81,43)" rx="2" ry="2" />
<text  x="35.96" y="175.5" >generi..</text>
</g>
<g >
<title>rest_init (248 samples, 48.25%)</title><rect x="620.7" y="245" width="569.3" height="15.0" fill="rgb(237,0,42)" rx="2" ry="2" />
<text  x="623.66" y="255.5" >rest_init</text>
</g>
<g >
<title>ext4_block_write_begin (4 samples, 0.78%)</title><rect x="51.3" y="133" width="9.2" height="15.0" fill="rgb(237,199,10)" rx="2" ry="2" />
<text  x="54.32" y="143.5" ></text>
</g>
</g>
</svg>
