<?xml version="1.0" encoding="UTF-8"?>
<!-- Generator: Adobe Illustrator 11 Build 196, SVG Export Plug-In . SVG Version: 6.0.0 Build 78)  -->
<!DOCTYPE svg PUBLIC "-//W3C//DTD SVG 1.0//EN" "http://www.w3.org/TR/2001/REC-SVG-20010904/DTD/svg10.dtd">
<svg xmlns:x="http://ns.adobe.com/Extensibility/1.0/" xmlns:i="http://ns.adobe.com/AdobeIllustrator/10.0/" xmlns:graph="http://ns.adobe.com/Graphs/1.0/" i:viewOrigin="-51.8862 878.0635" i:rulerOrigin="0 0" i:pageBounds="0 792 612 0" xmlns="http://www.w3.org/2000/svg" xmlns:xlink="http://www.w3.org/1999/xlink" xmlns:a="http://ns.adobe.com/AdobeSVGViewerExtensions/3.0/" width="695.126" height="379.677" viewBox="0 0 695.126 379.677" overflow="visible" enable-background="new 0 0 695.126 379.677" xml:space="preserve">
	<metadata>
		<variableSets xmlns="http://ns.adobe.com/Variables/1.0/">
			<variableSet varSetName="binding1" locked="none">
				<variables/>
				<v:sampleDataSets xmlns="http://ns.adobe.com/GenericCustomNamespace/1.0/" xmlns:v="http://ns.adobe.com/Variables/1.0/"/>
			</variableSet>
		</variableSets>
		<sfw xmlns="http://ns.adobe.com/SaveForWeb/1.0/">
			<slices/>
			<sliceSourceBounds y="498.386" x="-51.886" width="695.126" height="379.677" bottomLeftOrigin="true"/>
		</sfw>
<?xpacket begin='﻿' id='W5M0MpCehiHzreSzNTczkc9d'?><x:xmpmeta xmlns:x="adobe:ns:meta/" x:xmptk="XMP toolkit 3.0-29, framework 1.6">
<rdf:RDF xmlns:rdf="http://www.w3.org/1999/02/22-rdf-syntax-ns#" xmlns:iX="http://ns.adobe.com/iX/1.0/">

 <rdf:Description rdf:about="uuid:8a13aa00-6f04-11e4-ba9b-000d933a9528" xmlns:pdf="http://ns.adobe.com/pdf/1.3/">
  <pdf:Producer>Adobe PDF library 6.66</pdf:Producer>
 </rdf:Description>

 <rdf:Description rdf:about="uuid:8a13aa00-6f04-11e4-ba9b-000d933a9528" xmlns:tiff="http://ns.adobe.com/tiff/1.0/">
 </rdf:Description>

 <rdf:Description rdf:about="uuid:8a13aa00-6f04-11e4-ba9b-000d933a9528" xmlns:xap="http://ns.adobe.com/xap/1.0/" xmlns:xapGImg="http://ns.adobe.com/xap/1.0/g/img/">
  <xap:CreateDate>2014-11-11T06:04:16-05:00</xap:CreateDate>
  <xap:ModifyDate>2014-11-18T09:24:45Z</xap:ModifyDate>
  <xap:CreatorTool>Illustrator</xap:CreatorTool>
  <xap:MetadataDate>2014-11-18T03:23:05-05:00</xap:MetadataDate>
  <xap:Thumbnails>
   <rdf:Alt>
    <rdf:li rdf:parseType="Resource">
     <xapGImg:format>JPEG</xapGImg:format>
     <xapGImg:width>256</xapGImg:width>
     <xapGImg:height>140</xapGImg:height>
     <xapGImg:image>/9j/4AAQSkZJRgABAgEASABIAAD/7QAsUGhvdG9zaG9wIDMuMAA4QklNA+0AAAAAABAASAAAAAEA
AQBIAAAAAQAB/+4ADkFkb2JlAGTAAAAAAf/bAIQABgQEBAUEBgUFBgkGBQYJCwgGBggLDAoKCwoK
DBAMDAwMDAwQDA4PEA8ODBMTFBQTExwbGxscHx8fHx8fHx8fHwEHBwcNDA0YEBAYGhURFRofHx8f
Hx8fHx8fHx8fHx8fHx8fHx8fHx8fHx8fHx8fHx8fHx8fHx8fHx8fHx8fHx8f/8AAEQgAjAEAAwER
AAIRAQMRAf/EAaIAAAAHAQEBAQEAAAAAAAAAAAQFAwIGAQAHCAkKCwEAAgIDAQEBAQEAAAAAAAAA
AQACAwQFBgcICQoLEAACAQMDAgQCBgcDBAIGAnMBAgMRBAAFIRIxQVEGE2EicYEUMpGhBxWxQiPB
UtHhMxZi8CRygvElQzRTkqKyY3PCNUQnk6OzNhdUZHTD0uIIJoMJChgZhJRFRqS0VtNVKBry4/PE
1OT0ZXWFlaW1xdXl9WZ2hpamtsbW5vY3R1dnd4eXp7fH1+f3OEhYaHiImKi4yNjo+Ck5SVlpeYmZ
qbnJ2en5KjpKWmp6ipqqusra6voRAAICAQIDBQUEBQYECAMDbQEAAhEDBCESMUEFURNhIgZxgZEy
obHwFMHR4SNCFVJicvEzJDRDghaSUyWiY7LCB3PSNeJEgxdUkwgJChgZJjZFGidkdFU38qOzwygp
0+PzhJSktMTU5PRldYWVpbXF1eX1RlZmdoaWprbG1ub2R1dnd4eXp7fH1+f3OEhYaHiImKi4yNjo
+DlJWWl5iZmpucnZ6fkqOkpaanqKmqq6ytrq+v/aAAwDAQACEQMRAD8A9UYq3irsVdirsVdirsVd
irsVUhcwG5a2DfvlUOVoeh9+nhUdqjxGKropY5VLIagMyH5oxVvxGKr8VdirsVdirsVdirsVdirs
VdirsVdirsVdirsVdirsVdirsVdirWKt4q89/NnzTr/liby9q1lFeT6MtxdRa1DYQG5kIks5Rako
qswUXPA1FPfFXm7/AJ0fnBpGhfVG8uSX+rWOmaXLcXU1jdyfv7kKbuS5Mf1dA0fMD0ox4sX2ZFVT
lPzf/NVbAX935ft4Ypb3TbOG2Sz1CW54XdtDPcyrHVVcRtKyLyZN9j8S8WVY3a/85C/nDd6FqGoW
PlWHUfR9IW1xaWF+8Ku800ZjlDSqZKiNG5wkheVDUnZVMNY/Pf8ANuC0v5rTyqkVzDNZxQWE9jqE
rRwTw+o93NKjRo0bSfu1VaMvVulCq950a7urzSLG7u4fq93cW8UtxbitI5HQM6fEAfhY03GKozFX
Yql0NpANauJfi5CKKQAu5Xk5kRjxJ47qijp2xVW0z/eZ/wDjPcf8n3xVF4q7FXYq7FXYq7FXYq7F
XYq7FXYq7FXYq7FXYq7FXYq7FXYq7FXYqgdTurqD0vq5jHLly9RS3SlKUZMVSXUPNiabwOo6jYWQ
lEjR/WP3XIQoZZSvOZahI1Lt4KKnbFVe21y8ureK5tbi1ntp0WSGeJGdHRhVWVllIYEbgjFVX9J6
r/PB/wAin/6qYqlmh6xZxpcaVopsIYtKl9C4s7W3MSQSuBMV4K6qCwkDbeOKpn+k9V/ng/5FP/1U
xV36T1X+eD/kU/8A1UxV36T1X+eD/kU//VTFXfpPVf54P+RT/wDVTFUNHqWqfpKc84KmGEH90/Zp
f+LMVdp+paoIHo8H99Od4n7zP/xZiqJ/Seq/zwf8in/6qYq79J6r/PB/yKf/AKqYq79J6r/PB/yK
f/qpirv0nqv88H/Ip/8Aqpirv0nqv88H/Ip/+qmKu/Seq/zwf8in/wCqmKu/Seq/zwf8in/6qYq7
9J6r/PB/yKf/AKqYq79J6r/PB/yKf/qpirv0nqv88H/Ip/8Aqpirv0nqv88H/Ip/+qmKu/Seq/zw
f8in/wCqmKu/Seq/zwf8in/6qYq79J6r/PB/yKf/AKqYq79J6r/PB/yKf/qpirv0nqv88H/Ip/8A
qpirv0nqv88H/Ip/+qmKu/Seq/zwf8in/wCqmKu/Seq/zwf8in/6qYq79J6r/PB/yKf/AKqYqjtM
urqf1frBjPHjx9NSvWta1Z8VWat/ur/ZfwxV5h+bX5XyefbfS7db4WSae9zKW48izy27Rw7dColK
l1P2lqO+KsRP5G+c7vXtW1PUvMnKPVWtmmgtpJ4UCR3EEssKqoDKoSF0iYSbBug3xVT1r8gfNV3D
qIsfMptzflmmhZ52jkAv5LmGNuRkCKkLhNlIqOhqcVZ/+WvkW/8AKdrqMd7f/pCW+ktpTMxZpKwW
UNs3N2A5FmhLVp3xVmVMVdTFXUxV1MVQ0Y/3Iz/8YYf+JS4q7Tx+4b/jNP8A8nnxVE0xV1MVdTFX
UxV1MVdTFXUxVi2v+eI9M1F7C3tDdTQgfWGeT0lUsoZVWiyFjxap2H070thiMhbhajXQxS4SCSgk
/MK8bppcf/SS3/VHJfly0jtSHcVdPPF+3TTYv+klv+qODwCzHaMO4q6ebdSbpp0P/SS3/VDB4JZD
Xx7irp5j1RulhB/0kv8A9UMHhFmNZHuKO0/WDPOLa6iW3uXUvEqOZEdFIDUYrGQylhUEdxSu9Iyj
TdjyifJM6ZFtdTFXUxV1MVdTFXUxV1MVTDSf92/7H+OKrtU/3V/sv4YqgKYq6mKupirqYq6mKqU9
zb24UzypEHPFS7BQTQmgr7DFVP8ASWnf8tcP/Ixf64q79Jad/wAtcP8AyMX+uKqdtNDNf3DwyLIg
iiBZCGFeUm1Riqpp4/cN/wAZp/8Ak8+KommKupirqYq6mKupirqYq6mKvJ/N3/KW6n/rxf8AUPFm
bp/ped7U/vfgwe10jz5b3Fy0F9btaPdvLBC7FmWGW6E7f7rTcRD01jLftE+oNgDUmIniIGxuv0V+
PuQ1rF+bLx2w5vHIY2dmdrVlV/rJVFl4qpYNEQx404rXq+Q9TkA4fxfcyvUtJ803lzZ3elTNbXGn
200AF7IgSeSUxBZSIRNQhUc1K9aAChNEgrjlEbHqm+h6X52t723a/wBUjurMSO88Y4q9GBCqGEI5
Im3w7MSa8/ho0aLZxR6BlUf/ACkGnf8AGKb/AJOwZXkcvSdWW0ypzXUxV1MVdTFXUxV1MVdTFUfp
f+7f9j/HFW9T/wB1f7L+GKoGmKupirqYq6mKupiqGux+/sv+Mx/5MyYqgvMHmXT9DjhN0kkslwWE
UMIUuQlOTfGyLQch375KMDLk059RHELklC/mRpbdLC9+63/6rZPwZOMO0cXmvbz5YSxsgsb1eQI5
L9XDCopUfvuuPgyZDX4lunebLaGNh+jrtS7FygeORQT9qjSTlviare1ae+DwpMhrcaOXzbC3TTrv
/p3/AOq2DwyyGrgibbzBbzTJHJbTWwkPFZZvS4cuy1SR6V7V+XXAYkNkM0ZGgmtMi2upirqYq6mK
upirBde0zTp9evJJ7SGWQtGC7xqzUESdyMpyTkDsXW6uI4/gpRaJo3/LBbf8iU/pkfEl3lpER3K8
2m6Ha2k1y+nW7JCjSMoiiBIUVoC/FfvIyQnLvLZGITSHRNF/5YLb/kTH/TDxy72wRCNh0PRf+rfb
f8iY/wCmHiPe2CIULuwsbXWNONtbRQFllDGNFQmkkPXiBkwW/GE+phbXUxV1MVdTFXUxV1MVdTFU
dpn+7f8AY/xxVvUf91/T/DFUFTFXUxV1MVdTFXUxVDXY/f2X/GY/8mZMVYR+aI/0zR/9S6/XBmRp
+ZdT2t9Mfe8uuF87Q6nfPYLHJYyyxPbByrsqrHGsoCuyAVYbCo/bP2iuXnit12PwzEXz/H4+StAP
zMW15h7eS4MJBiZI6CQlGJWjLVlXmqhiFJpUjIepvHhWmksHmG50T9HRS3MGr/XXuGkX1ET0frTT
Rp9Yoy8PTKAqr9Ph8RgN0ziYg30pExS/mlL/AKRHDBAChX6lJ6TEFhcHlzVj8S8YAo+yeRr4iO7c
OBmdz6n6It/V5er6tnz9Thz5evHXl6ZKVr147eGRnybMH1hnFvvBGT/Kv6sodmvpirqYq6mKupir
DNZ/47d5/rJ/yaTMfLzddqvr+DUXbIBpDWsAnRb4AFj9XkooVZCfgP7D/C3yO2SDbHmnkOSDMI2H
JBsCD1P/AI7GmfKX/icOTi3404pkmx1MVdTFXUxV1MVdTFXUxVG6d/uz6P44q3fj+7+n+GKoSmKu
pirqYq6mKupiqFux/pFl/wAZj/yZkxVjfnvT7W7udOFwhbglxxozKRUxV3UjITmY8i4WtiCBaRQ6
BpX++3/5Gy/81ZDx597gjFHuCOh0DS/99v8A8jpf+a8PjT72wY49y/R9M067tfWaFkPqSx8VuJXF
IpWjB5B+4WuS8WXe2+HHuTeHQNM/kk/5HTf814+JLvZjHHuW6vo9hDpxlRX5pLbleUsrCvrp2ZiM
kJEt2OABZDbD/R4v9Rf1YXJVKYq6mKupirqYqwrWv+O3ef6yf8mkzHy83Xar6/gti7ZANIVLy2ju
rOS2l3t5lMdwOHqn02FGoh+0adsnFux1e6aWnqeknq09Sg58dhX23OFmmEOSDMIPUv8AjsaX8pf+
TkOTi3407pkmx1MVdTFXUxV1MVdTFXUxVF2A/vPo/jird9+x9P8ADFULTFXUxV1MVdTFXUxVDXY/
0iy/4zH/AJMyYqkPnEf6VYf6k/64sqzcnE1fIMI1jzpZ6HqX1e+t5TaC1a5e7iX1AhQSPwZAefxL
CePEHfrTKgLcWELCFtfzc8q3Zlto7a9mmUQIbUQD1Ha7jMkcYUuPj4LISppQI3alZcJbhjITJPzO
8sWZ08tFcsdaAfT5IbaiTJ6hgjcBT0ciOh7+oh/a2mbLYQZFdB+cvl2e50xLG3uJ7e+uobSa5IjV
ImufrCQgkv8AaZ7U17BTueXw40yECzrXf+OS/wDxlt/+T6ZIMoc02th/o0X+ov6sm3qlMVdTFXUx
V1MVSDWfLdxdXT3dpcLHJIF9SORC4JUcaghkpsBlcsdloy4BM2gV8ta8v+74P+Rbf9VMHhMBpR3q
y6Hr6/7tt/8AkW3/AFUw+Gy/LjvVk0zzCv7dv/yLb/qph4EjAO9WS18xL+1bf8A3/VTDwshiXJp2
qTXtvcXZi/cV4+mCooSrNsS1SeAwgM4xpOaYWTqYq6mKupirqYq6mKupiqKsf2/o/jiq68/Y+n+G
KoamKupirqYq6mKupiqFux/pFl/xmP8AyZkxVIPOY/0rT/8AUn/XFlObk4mr5BJ4o42ILKCfEjKX
CCJWytHieIwqI5F4MFHH4SpXqtCPhJGTDaCqaCscmnw1jiCwtJFCkaFFRIpSqKqsKjiqKPoyTYnE
VtbUp6SUrWnEdak/8bH78LMNa7/xyX/4y2//ACfTJhthzTi1H+jQ/wCov6sm3qtMVdTFXUxV1MVd
TFXUxV1MVdTFXUxV1MVdTFXUxV1MVdTFXUxV1MVdTFUTZ/t/R/HFW7ofY+n+GKoemKupirqYq6mK
upiqFvB/pFj/AMZz/wAmZMVY/wCdB/pOn/6k/wCuLKc3JxNXyCUQ5S4QR0OSDYFnl0g6cCCDWa43
DO/+732q/wAW3h0HQbZNtT2HCzCjrv8AxyX/AOMtv/yfTJhthzTq1H+iw/6i/qGTb1WmKupirqYq
6mKoS91XSrBkW+vILVpASgnlSMsB1pyIrigkBD/4n8s/9Xey/wCkiL/mrFeIO/xN5a/6u1l/0kRf
81YrxBv/ABL5b/6utn/0kRf81YrYd/iTy5/1dbP/AKSIv+asVsIu0vrG8Rns7iK5RTxZoXWQA9aE
qTilXpirqYq6mKupirqYq6mKupiqItR9v6P44q3cj7P04qoUxV1MVdTFXUxV1MVQ14P9Isf+M5/5
MyYqx7zsP9J0/wD1J/1xZTm5OJq+QSaHKXCCMXnwbhTnQ8a9K9q5MNsVXSbf6vA0Yma4T1HdJZFK
ORI3MgqzORxZivXoMkW6QF7JvDhSFDzAxXR3IUufVg+EUr/fp4kZMNsOaaWt1cfVYf8AQZj8C78o
fAf8WZNvVfrVx/ywz/8ABQ/9VMVd9auP+WGf/gof+qmKu+tXH/LDP/wUP/VTFVG71Ke3tZrg2UgE
MbSEu8Kp8IJ+Jg7EDbc0OKvJ/N9y9x5s1CRgy0MSKrb0UQofhr+ySSw+de+Zmn+l57tT+9+DDdY8
4zaNq0sE1k8tjFbRT84qNI7SyNHxUEqPh4g/57zlOi1YcHFG73tHWfn20udSsbC2tZRJdXU1s7yg
IqiBauVqQW3psBUdTSoyPG2jAQCSeiMufPw03U9Qs7ywlJglEdgsXEtcKtuk7lSzKtQZAKdqivXa
Jk2ww2AQWT+XPMttq888MUEsD2yoZln4qwZ61UKGJYKVpzHwE1AJoaC2XBTIbC4mh8x2KxsVWaGV
ZV7MBJCBX5czT55Vkc7SdWb0ypzHUxV1MVdTFXUxV1MVdTFVe2H2voxVucfZ+nFVKmKupirqYq6m
KupiqFvB/pFj/wAZ2/5MSYqx3zuP9J07/Un/AFxZVm5OJq+QeR6Z5L896bpFrawa96otYnjEKK9e
K2zRQqjO46yt6h5HbYLQKMr4g0ccSeS6x8sfmfJe2v1nU5UhSO1SZkuCF3ipdIQGJalCElpz5sDu
q1yVhs4oskn8r65qOu/4hsb+GxuHW2tZlhmmuI2gtpZmnQGkSqzNIopx2KmuEFIIqlez8j+bBbWl
vfa3+k4YPqzNFcPKAzQ3MVxOXIr6omCOlJFbgKcepw2zEgnen6VqOj+UXtL4xsY7iD6vHA7ukcXq
QhYlMgjCqhBUUAFKHbfJBsjzZbp2qQvZx8kkqtUJijkmQ8GKVDopU1p2OTbkT+kLf+Sf/pHn/wCa
MVXwXkE8jxx8w6BWZXjePZiQD8arX7JxVXpirqYq8r84aFNc+ar+eO5WMOYqo0ZfcQRjqHXw8MI1
JhtTp9dgEslnuQUPlu7H/H5H/wAiT/1Vw/nT3OMNKO9F/wCF55ozFLcwyROKMj25ZSPcGTH82T0b
o6YDqjrLyxPBEsUFxBFEn2Y0tyqjvsBLTH8z5Ng0470yh0G+/wCWyL/kQ3/VXHxz3No0472102e1
8waY8s6y1WRVCRlKfvYSa1d64DPicrBj4bZrTA5DqYq6mKupirqYq6mKupiqrAPtfRircv7OKqdM
VdTFXUxV1MVdTFULeD/SLH/jO3/JiTFWOeef96dO/wBSf9cWU5uTiavkEkhylwgjockGwLPLr89P
DcuZ9a4Bbn6u4ncH4qDp4dunbJtqew4WYUdd/wCOS/8Axlt/+T6ZMNsObILJFWzhCgAcFNBtuRU/
jk29WpiqFjH+5S4/4wQf8TlxVFUxV1MVYD5i/wCUgvPnH/yaTMfLzddqvr+ChF2yAaQ1rCc9Ev04
8+VvKOPAS1qh24EgN8skG2PNPIckGYRsOSDYELff8dzSf+en/JyHJxb8bJ6ZJsdTFXUxV1MVdTFX
UxV1MVVIv2sVXSdsVWUxV1MVdTFXUxV1MVQl4P8ASLH/AIzt/wAmJcVY556/3p07/Vn/AFxZTm5O
Jq+QSKHKXCCMXnwPCnOh48ule1aZMNsVbSoDBCY/VeZObMkkiem5DnmQy1anFmIHtki3SAvZNocK
Qo67/wAcl/8AjLb/APJ9MmG2HNkdmP8ARIP+Ma/8RGTb1amKoSMf7lLj/jBB/wATlxVF0xV1MVef
+ZP+UgvPnH/yaTMfLzddqvr+CHi7ZANIdqcD3OmXNpGgkmuonhijKs6s7qQAwUg0PzGTiG7GCTsn
NrIkkaulSrCoJBG3yOFnVI+HJBmELff8dzSf+en/ACchycW/GyqmSbHUxV1MVdTFXUxV1MVdTFV8
ffFW2HTFVtMVdTFXUxV1MVdTFULeD/SLH/jO3/JiXFUB5j8vPqyQtFOILi358GZPUQh6VBAZD1Qb
1+jIzjbVlxcYpjieUfMq/wC7ID/zz/6+5Dwmn8oO9WTy15mX9qA/7D/r7j4bIabzbs9K8zSRl6QC
jyJTif8AdblP9+/5OHgZeB5otNM8zr+zbn/Yn/qrh4E+E640jzFcxrDOsXpclZgg4klTVdy7dGoc
kAzjCmTwRGOCOMmpRQpPyFMLNfTFULGP9ylx/wAYIP8AicuKoqmKupirA/NlndwavPdNBI1tNwKS
xo0g2RUIPAGhqvfKckSS4WoxSMrASqO7jHWOb/kTL/zTkOAtQwz7kQ2oWaxMZRKsajkzejMKcd61
C7U61yQiWccch0RsOq2SgCkoA2A9Cb/mjDwlmMcu5GRa3p46mX/kRN/zRkqLMQLQuor7WtOe35FI
SQ5ZGTd3jIoGAOwjNckA3QFMxpkmbqYq6mKupirqYq6mKupiq5R1xVsjFWqYq6mKupirqYq6mKqF
1Z/WDERK8LQvzVo+FalWTfmrjoxxVZ9Ruf8Alun+6D/qlirvqNz/AMt0/wB0H/VLFXfUbn/lun+6
D/qliqtbWywRCNSW3ZizUqWdizE0AG5PhiqpTFXUxV1MVdTFUHJFfJfSTwRxSRyRRp8cjIQUZydg
j7fGMVXc9V/5ZoP+R7/9UsVdz1X/AJZoP+R7/wDVLFWi2psCDbW5B6gzv/1RxVZ6N7/yw2v/ACNb
/qjiqjd2d7cWs0H1O1T1UZOXqsacgRWnojFUw+q2/wDvpP8AgRirvqtv/vpP+BGKrlghQ1WNVPiA
Biq6mKupirqYq6mKupirqYq6mKtgYq7fFXb4q7fFXb4q7fFXb4q7fFXb4q7fFXb4q7fFXb4q7fFX
b4q7fFXb4q7fFXb4q7fFXb4q7fFXb4q7fFXb4q7fFXb4q7fFXb4q7fFXb4q7fFXb4q//2Q==</xapGImg:image>
    </rdf:li>
   </rdf:Alt>
  </xap:Thumbnails>
 </rdf:Description>

 <rdf:Description rdf:about="uuid:8a13aa00-6f04-11e4-ba9b-000d933a9528" xmlns:xapMM="http://ns.adobe.com/xap/1.0/mm/">
  <xapMM:DocumentID>uuid:ccfd6a0c-6996-11e4-baf7-000d933a9528</xapMM:DocumentID>
 </rdf:Description>

 <rdf:Description rdf:about="uuid:8a13aa00-6f04-11e4-ba9b-000d933a9528" xmlns:dc="http://purl.org/dc/elements/1.1/">
  <dc:format>image/svg+xml</dc:format>
 </rdf:Description>

</rdf:RDF>
</x:xmpmeta>
                                                                                                                                                                                                                                                                                                                                                                                                                                                                                                                                                                                                                                                                                                                                                                                                                                                                                                                                                                                                                                                                                                                                                                                                                                                                                                                                                                                                                                                                                                                                                                                                                                                                                                                                                                                                                                                                                                                                                                                                                                                                                                                                <?xpacket end='w'?>
			</metadata>
		<g id="Layer_1" i:layer="yes" i:dimmedPercent="50" i:rgbTrio="#4F008000FFFF">
			<linearGradient id="XMLID_8_" gradientUnits="userSpaceOnUse" x1="347.5635" y1="-306.5312" x2="347.5634" y2="367.3533">
				<stop offset="0" style="stop-color:#C2C2C2"/>
				<stop offset="0.3258" style="stop-color:#D9D9D9"/>
				<stop offset="1" style="stop-color:#FFFFFF"/>
				<a:midPointStop offset="0" style="stop-color:#C2C2C2"/>
				<a:midPointStop offset="0.5" style="stop-color:#C2C2C2"/>
				<a:midPointStop offset="0.3258" style="stop-color:#D9D9D9"/>
				<a:midPointStop offset="0.5" style="stop-color:#D9D9D9"/>
				<a:midPointStop offset="1" style="stop-color:#FFFFFF"/>
			</linearGradient>
			<rect x="11.344" y="52.164" i:knockout="Off" fill="url(#XMLID_8_)" width="672.44" height="316.17"/> 
			<g i:knockout="Off">
				<path i:knockout="Off" d="M37.866,26.476v8.514c0,2.574,0.99,3.872,2.684,3.872c1.761,0,2.729-1.232,2.729-3.872v-8.514h3.344      v8.316c0,4.576-2.31,6.754-6.182,6.754c-3.74,0-5.918-2.09-5.918-6.798v-8.272H37.866z"/>
				<path i:knockout="Off" d="M49.109,38.4c0.615,0.374,1.892,0.792,2.882,0.792c1.012,0,1.43-0.33,1.43-0.88      c0-0.572-0.33-0.836-1.562-1.254c-2.244-0.726-3.103-1.958-3.08-3.212c0-2.024,1.716-3.542,4.378-3.542      c1.254,0,2.354,0.308,3.014,0.638l-0.572,2.288c-0.483-0.242-1.43-0.594-2.332-0.594c-0.813,0-1.275,0.33-1.275,0.858      c0,0.528,0.418,0.792,1.738,1.254c2.046,0.682,2.882,1.738,2.903,3.3c0,2.024-1.562,3.498-4.642,3.498      c-1.408,0-2.662-0.33-3.477-0.77L49.109,38.4z"/>
				<path i:knockout="Off" d="M61.252,36.97c0.11,1.408,1.474,2.068,3.036,2.068c1.144,0,2.067-0.154,2.97-0.462l0.44,2.266      c-1.101,0.462-2.442,0.682-3.895,0.682c-3.651,0-5.742-2.112-5.742-5.5c0-2.728,1.717-5.742,5.435-5.742      c3.476,0,4.796,2.706,4.796,5.368c0,0.572-0.066,1.078-0.11,1.342L61.252,36.97z M65.19,34.682c0-0.792-0.352-2.178-1.869-2.178      c-1.431,0-2.002,1.298-2.091,2.178H65.19z"/>
				<path i:knockout="Off" d="M70.317,34.088c0-1.584-0.022-2.618-0.088-3.542h2.859l0.132,2.002h0.089      c0.55-1.584,1.848-2.244,2.903-2.244c0.309,0,0.462,0.022,0.704,0.066v3.146c-0.286-0.044-0.55-0.088-0.924-0.088      c-1.232,0-2.068,0.638-2.288,1.694c-0.044,0.22-0.066,0.462-0.066,0.748v5.434h-3.344L70.317,34.088z"/>
				<path i:knockout="Off" d="M78.633,38.4c0.615,0.374,1.892,0.792,2.882,0.792c1.012,0,1.43-0.33,1.43-0.88      c0-0.572-0.33-0.836-1.562-1.254c-2.244-0.726-3.103-1.958-3.08-3.212c0-2.024,1.716-3.542,4.378-3.542      c1.254,0,2.354,0.308,3.014,0.638l-0.572,2.288c-0.483-0.242-1.43-0.594-2.332-0.594c-0.813,0-1.275,0.33-1.275,0.858      c0,0.528,0.418,0.792,1.737,1.254c2.047,0.682,2.883,1.738,2.904,3.3c0,2.024-1.562,3.498-4.642,3.498      c-1.408,0-2.662-0.33-3.477-0.77L78.633,38.4z"/>
				<path i:knockout="Off" d="M88.202,34.154c0-1.408-0.044-2.596-0.088-3.608h2.904l0.153,1.496h0.044      c0.793-1.122,2.024-1.738,3.587-1.738c2.354,0,4.466,2.046,4.466,5.478c0,3.916-2.486,5.764-4.884,5.764      c-1.299,0-2.311-0.528-2.795-1.232h-0.044v5.346h-3.344V34.154z M91.545,36.684c0,0.264,0.022,0.484,0.066,0.704      c0.22,0.902,0.99,1.584,1.958,1.584c1.452,0,2.31-1.21,2.31-3.036c0-1.716-0.77-3.014-2.266-3.014      c-0.946,0-1.782,0.704-2.002,1.694c-0.044,0.176-0.066,0.396-0.066,0.594V36.684z"/>
				<path i:knockout="Off" d="M110.312,38.708c0,1.012,0.044,2.002,0.176,2.596h-3.014l-0.198-1.078h-0.065      c-0.704,0.858-1.805,1.32-3.08,1.32c-2.179,0-3.477-1.584-3.477-3.3c0-2.794,2.508-4.114,6.314-4.114V34      c0-0.572-0.309-1.386-1.958-1.386c-1.101,0-2.267,0.374-2.97,0.792l-0.616-2.134c0.748-0.418,2.222-0.968,4.18-0.968      c3.586,0,4.708,2.112,4.708,4.642V38.708z M107.078,36.222c-1.76,0-3.124,0.418-3.124,1.694c0,0.858,0.572,1.276,1.32,1.276      c0.814,0,1.519-0.55,1.738-1.232c0.044-0.176,0.065-0.374,0.065-0.572V36.222z"/>
				<path i:knockout="Off" d="M121.048,41.04c-0.594,0.286-1.716,0.506-2.992,0.506c-3.476,0-5.698-2.134-5.698-5.522      c0-3.146,2.156-5.72,6.16-5.72c0.88,0,1.849,0.154,2.552,0.418l-0.527,2.486c-0.396-0.176-0.99-0.33-1.87-0.33      c-1.76,0-2.904,1.254-2.882,3.014c0,1.98,1.319,3.036,2.947,3.036c0.792,0,1.408-0.132,1.914-0.352L121.048,41.04z"/>
				<path i:knockout="Off" d="M125.228,36.97c0.11,1.408,1.474,2.068,3.036,2.068c1.144,0,2.067-0.154,2.97-0.462l0.44,2.266      c-1.101,0.462-2.442,0.682-3.895,0.682c-3.651,0-5.742-2.112-5.742-5.5c0-2.728,1.717-5.742,5.435-5.742      c3.476,0,4.796,2.706,4.796,5.368c0,0.572-0.066,1.078-0.11,1.342L125.228,36.97z M129.166,34.682      c0-0.792-0.352-2.178-1.869-2.178c-1.431,0-2.002,1.298-2.091,2.178H129.166z"/>
				<path i:knockout="Off" d="M34.522,62.476h3.322v6.556h0.044c0.329-0.572,0.682-1.1,1.033-1.628l3.345-4.928h4.136l-4.906,6.314      l5.148,8.514H42.75l-3.651-6.402l-1.254,1.562v4.84h-3.322V62.476z"/>
				<path i:knockout="Off" d="M50.124,72.97c0.11,1.408,1.474,2.068,3.036,2.068c1.144,0,2.067-0.154,2.97-0.462l0.44,2.266      c-1.101,0.462-2.442,0.682-3.895,0.682c-3.651,0-5.742-2.112-5.742-5.5c0-2.728,1.717-5.742,5.435-5.742      c3.476,0,4.796,2.706,4.796,5.368c0,0.572-0.066,1.078-0.11,1.342L50.124,72.97z M54.061,70.682      c0-0.792-0.352-2.178-1.869-2.178c-1.431,0-2.002,1.298-2.091,2.178H54.061z"/>
				<path i:knockout="Off" d="M59.187,70.088c0-1.584-0.022-2.618-0.088-3.542h2.859l0.132,2.002h0.088      c0.551-1.584,1.849-2.244,2.904-2.244c0.309,0,0.462,0.022,0.704,0.066v3.146c-0.286-0.044-0.55-0.088-0.924-0.088      c-1.232,0-2.068,0.638-2.288,1.694c-0.044,0.22-0.066,0.462-0.066,0.748v5.434h-3.344L59.187,70.088z"/>
				<path i:knockout="Off" d="M67.503,69.978c0-1.342-0.044-2.464-0.088-3.432h2.904l0.153,1.496h0.066      c0.44-0.704,1.518-1.738,3.322-1.738c2.2,0,3.85,1.474,3.85,4.642v6.358h-3.344v-5.962c0-1.386-0.484-2.332-1.694-2.332      c-0.924,0-1.474,0.638-1.716,1.254c-0.088,0.22-0.11,0.528-0.11,0.836v6.204h-3.344V69.978z"/>
				<path i:knockout="Off" d="M82.969,72.97c0.11,1.408,1.474,2.068,3.036,2.068c1.144,0,2.067-0.154,2.97-0.462l0.44,2.266      c-1.101,0.462-2.442,0.682-3.895,0.682c-3.651,0-5.742-2.112-5.742-5.5c0-2.728,1.717-5.742,5.435-5.742      c3.476,0,4.796,2.706,4.796,5.368c0,0.572-0.066,1.078-0.11,1.342L82.969,72.97z M86.907,70.682      c0-0.792-0.352-2.178-1.869-2.178c-1.431,0-2.002,1.298-2.091,2.178H86.907z"/>
				<path i:knockout="Off" d="M92.011,61.684h3.344v15.62h-3.344V61.684z"/>
			</g>
			
				<rect x="0.005" y="0.005" i:knockout="Off" fill="none" stroke="#FCFCFC" stroke-width="0.01" width="695.117" height="379.667"/> 
			<g>
				<g>
					<path i:knockout="Off" fill="#CCCCCC" d="M284.007,334.409c0,3.833-2.551,6.97-5.669,6.97H177.176       c-3.118,0-5.669-3.137-5.669-6.97V135.663c0-3.833,2.551-6.97,5.669-6.97h101.162c3.118,0,5.669,3.137,5.669,6.97V334.409z"/>
					<linearGradient id="XMLID_9_" gradientUnits="userSpaceOnUse" x1="-27.3066" y1="230.0361" x2="313.8173" y2="230.0361">
						<stop offset="0" style="stop-color:#169133"/>
						<stop offset="1" style="stop-color:#FFFFFF"/>
						<a:midPointStop offset="0" style="stop-color:#169133"/>
						<a:midPointStop offset="0.5" style="stop-color:#169133"/>
						<a:midPointStop offset="1" style="stop-color:#FFFFFF"/>
					</linearGradient>
					<path i:knockout="Off" fill="url(#XMLID_9_)" stroke="#000000" d="M277.007,329.409c0,3.833-2.551,6.97-5.669,6.97H170.176       c-3.118,0-5.669-3.137-5.669-6.97V130.663c0-3.833,2.551-6.97,5.669-6.97h101.162c3.118,0,5.669,3.137,5.669,6.97V329.409z"/>
				</g>
				<linearGradient id="XMLID_10_" gradientUnits="userSpaceOnUse" x1="99.3018" y1="139.8584" x2="355.7579" y2="139.8584">
					<stop offset="0" style="stop-color:#169197"/>
					<stop offset="1" style="stop-color:#FFFFFF"/>
					<a:midPointStop offset="0" style="stop-color:#169197"/>
					<a:midPointStop offset="0.5" style="stop-color:#169197"/>
					<a:midPointStop offset="1" style="stop-color:#FFFFFF"/>
				</linearGradient>
				<path i:knockout="Off" fill="url(#XMLID_10_)" stroke="#000000" d="M164.507,156.024v-26.662c0-3.118,2.551-5.669,5.669-5.669      h101.162c3.118,0,5.669,2.551,5.669,5.669v26.662H164.507z"/>
			</g>
			<g i:knockout="Off">
				<path i:knockout="Off" d="M181.711,141.035h0.034c0.204-0.289,0.476-0.663,0.714-0.935l2.431-2.839h1.785l-3.179,3.383      l3.621,4.845h-1.819l-2.822-3.961l-0.765,0.867v3.094h-1.496v-12.07h1.496V141.035z"/>
				<path i:knockout="Off" d="M189.154,141.63c0.034,2.023,1.309,2.856,2.805,2.856c1.071,0,1.734-0.187,2.278-0.408l0.272,1.054      c-0.527,0.238-1.445,0.527-2.754,0.527c-2.516,0-4.046-1.683-4.046-4.148c0-2.499,1.479-4.454,3.876-4.454      c2.686,0,3.383,2.363,3.383,3.876c0,0.306-0.017,0.544-0.051,0.714L189.154,141.63z M193.523,140.559      c0.017-0.935-0.391-2.431-2.057-2.431c-1.53,0-2.176,1.394-2.295,2.431H193.523z"/>
				<path i:knockout="Off" d="M196.838,139.828c0-0.969-0.017-1.802-0.068-2.567h1.309l0.068,1.615h0.051      c0.374-1.105,1.292-1.802,2.295-1.802c0.153,0,0.272,0.017,0.408,0.051v1.394c-0.17-0.017-0.323-0.034-0.527-0.034      c-1.054,0-1.802,0.799-2.006,1.904c-0.034,0.221-0.051,0.459-0.051,0.714v4.386h-1.496L196.838,139.828z"/>
				<path i:knockout="Off" d="M202.447,139.488c0-0.867-0.017-1.547-0.068-2.227h1.326l0.085,1.343h0.034      c0.408-0.765,1.36-1.53,2.72-1.53c1.139,0,2.907,0.68,2.907,3.502v4.913h-1.496v-4.743c0-1.326-0.493-2.448-1.904-2.448      c-0.969,0-1.734,0.697-2.006,1.53c-0.068,0.187-0.102,0.459-0.102,0.697v4.964h-1.496V139.488z"/>
				<path i:knockout="Off" d="M212.731,141.63c0.034,2.023,1.309,2.856,2.805,2.856c1.071,0,1.734-0.187,2.278-0.408l0.272,1.054      c-0.527,0.238-1.445,0.527-2.754,0.527c-2.516,0-4.046-1.683-4.046-4.148c0-2.499,1.479-4.454,3.876-4.454      c2.686,0,3.383,2.363,3.383,3.876c0,0.306-0.017,0.544-0.051,0.714L212.731,141.63z M217.1,140.559      c0.017-0.935-0.391-2.431-2.057-2.431c-1.53,0-2.176,1.394-2.295,2.431H217.1z"/>
				<path i:knockout="Off" d="M220.398,133.419h1.496v12.07h-1.496V133.419z"/>
				<path i:knockout="Off" d="M231.635,146.764v0.85h-8.5v-0.85H231.635z"/>
				<path i:knockout="Off" d="M233.012,145.489V138.4h-1.139v-1.139h1.139v-0.391c0-1.156,0.272-2.21,0.969-2.873      c0.561-0.544,1.309-0.765,1.989-0.765c0.544,0,0.986,0.119,1.275,0.238l-0.187,1.156c-0.238-0.102-0.527-0.187-0.969-0.187      c-1.258,0-1.598,1.122-1.598,2.38v0.442h1.989v1.139h-1.972v7.089H233.012z"/>
				<path i:knockout="Off" d="M244.725,143.245c0,0.85,0.017,1.598,0.068,2.244h-1.326l-0.085-1.343h-0.034      c-0.374,0.663-1.258,1.53-2.72,1.53c-1.292,0-2.839-0.731-2.839-3.604v-4.811h1.496v4.539c0,1.564,0.493,2.635,1.836,2.635      c1.003,0,1.7-0.697,1.972-1.377c0.085-0.204,0.136-0.476,0.136-0.765v-5.032h1.496V143.245z"/>
				<path i:knockout="Off" d="M247.207,139.488c0-0.867-0.017-1.547-0.068-2.227h1.326l0.085,1.343h0.034      c0.408-0.765,1.36-1.53,2.72-1.53c1.139,0,2.907,0.68,2.907,3.502v4.913h-1.496v-4.743c0-1.326-0.493-2.448-1.904-2.448      c-0.969,0-1.734,0.697-2.006,1.53c-0.068,0.187-0.102,0.459-0.102,0.697v4.964h-1.496V139.488z"/>
				<path i:knockout="Off" d="M262.507,145.2c-0.391,0.187-1.258,0.476-2.363,0.476c-2.482,0-4.097-1.683-4.097-4.216      c0-2.533,1.734-4.386,4.42-4.386c0.884,0,1.666,0.221,2.074,0.442l-0.34,1.139c-0.357-0.187-0.918-0.391-1.734-0.391      c-1.887,0-2.907,1.411-2.907,3.128c0,1.904,1.224,3.077,2.856,3.077c0.85,0,1.411-0.204,1.836-0.391L262.507,145.2z"/>
			</g>
			<g i:knockout="Off">
				<path i:knockout="Off" d="M183.809,184.487h1.408v4.832h0.032c0.224-0.4,0.576-0.768,1.008-0.992      c0.416-0.256,0.912-0.4,1.44-0.4c1.04,0,2.704,0.64,2.704,3.312v4.608h-1.408v-4.448c0-1.264-0.464-2.304-1.792-2.304      c-0.912,0-1.616,0.64-1.888,1.408c-0.08,0.192-0.096,0.4-0.096,0.672v4.672h-1.408V184.487z"/>
				<path i:knockout="Off" d="M193.489,192.215c0.032,1.904,1.232,2.688,2.64,2.688c1.008,0,1.632-0.176,2.144-0.384l0.256,0.992      c-0.496,0.224-1.36,0.496-2.592,0.496c-2.368,0-3.808-1.584-3.808-3.904c0-2.352,1.392-4.192,3.648-4.192      c2.528,0,3.184,2.224,3.184,3.648c0,0.288-0.016,0.512-0.048,0.672L193.489,192.215z M197.601,191.207      c0.016-0.88-0.368-2.288-1.936-2.288c-1.44,0-2.048,1.312-2.16,2.288H197.601z"/>
				<path i:knockout="Off" d="M206.161,193.991c0,0.672,0.032,1.328,0.112,1.856h-1.264l-0.128-0.976h-0.048      c-0.416,0.608-1.264,1.152-2.368,1.152c-1.568,0-2.368-1.104-2.368-2.224c0-1.872,1.664-2.896,4.656-2.88v-0.16      c0-0.64-0.176-1.808-1.76-1.792c-0.736,0-1.488,0.208-2.032,0.576l-0.32-0.944c0.64-0.4,1.584-0.672,2.56-0.672      c2.384,0,2.96,1.616,2.96,3.168V193.991z M204.785,191.895c-1.536-0.032-3.28,0.24-3.28,1.744c0,0.928,0.608,1.344,1.312,1.344      c1.024,0,1.68-0.64,1.904-1.296c0.048-0.144,0.064-0.304,0.064-0.448V191.895z"/>
				<path i:knockout="Off" d="M208.753,188.103l1.52,4.336c0.256,0.72,0.464,1.36,0.624,2h0.048c0.176-0.64,0.4-1.28,0.656-2      l1.504-4.336h1.472l-3.04,7.744h-1.344l-2.944-7.744H208.753z"/>
				<path i:knockout="Off" d="M216.594,188.103l1.68,4.576c0.192,0.512,0.384,1.12,0.512,1.584h0.032      c0.144-0.464,0.304-1.056,0.496-1.616l1.536-4.544h1.488l-2.112,5.52c-1.008,2.656-1.696,4.016-2.656,4.864      c-0.704,0.592-1.376,0.832-1.728,0.896l-0.352-1.184c0.352-0.096,0.816-0.32,1.232-0.688c0.384-0.304,0.848-0.848,1.184-1.568      c0.064-0.144,0.112-0.24,0.112-0.336c0-0.08-0.032-0.192-0.112-0.352l-2.848-7.152H216.594z"/>
				<path i:knockout="Off" d="M227.569,188.103l1.04,3.92c0.208,0.864,0.416,1.68,0.56,2.48h0.048      c0.176-0.784,0.432-1.616,0.688-2.464l1.264-3.936h1.184l1.2,3.872c0.288,0.912,0.512,1.744,0.688,2.528h0.048      c0.128-0.784,0.336-1.6,0.592-2.512l1.104-3.888h1.392l-2.496,7.744h-1.28l-1.184-3.696c-0.272-0.88-0.496-1.648-0.688-2.56      h-0.032c-0.192,0.928-0.432,1.744-0.704,2.576l-1.248,3.68h-1.28l-2.336-7.744H227.569z"/>
				<path i:knockout="Off" d="M241.796,196.022c-2.08,0-3.712-1.536-3.712-3.984c0-2.592,1.712-4.112,3.84-4.112      c2.224,0,3.728,1.616,3.728,3.968c0,2.88-2,4.128-3.84,4.128H241.796z M241.844,194.967c1.344,0,2.352-1.264,2.352-3.024      c0-1.312-0.656-2.96-2.32-2.96c-1.648,0-2.368,1.536-2.368,3.008c0,1.696,0.96,2.976,2.32,2.976H241.844z"/>
				<path i:knockout="Off" d="M247.444,190.519c0-0.912-0.016-1.696-0.064-2.416h1.232l0.064,1.52h0.048      c0.352-1.04,1.216-1.696,2.16-1.696c0.144,0,0.256,0.016,0.384,0.048v1.312c-0.16-0.016-0.304-0.032-0.496-0.032      c-0.992,0-1.696,0.752-1.888,1.792c-0.032,0.208-0.048,0.432-0.048,0.672v4.128h-1.408L247.444,190.519z"/>
				<path i:knockout="Off" d="M254.131,191.655h0.032c0.192-0.272,0.448-0.624,0.672-0.88l2.288-2.672h1.68l-2.992,3.184l3.408,4.56      h-1.712l-2.656-3.728l-0.72,0.816v2.912h-1.408v-11.36h1.408V191.655z"/>
				<path i:knockout="Off" d="M174.233,260.887h1.408v4.848h0.032c0.496-0.864,1.392-1.408,2.64-1.408c1.92,0,3.264,1.6,3.264,3.936      c0,2.784-1.76,4.16-3.488,4.16c-1.12,0-2-0.432-2.592-1.456h-0.032l-0.08,1.28h-1.216c0.048-0.528,0.064-1.312,0.064-2V260.887z       M175.641,269.143c0,0.176,0.016,0.352,0.048,0.512c0.272,0.976,1.104,1.648,2.112,1.648c1.488,0,2.352-1.2,2.352-2.976      c0-1.568-0.8-2.896-2.304-2.896c-0.96,0-1.856,0.672-2.128,1.728c-0.048,0.176-0.08,0.368-0.08,0.592V269.143z"/>
				<path i:knockout="Off" d="M189.816,270.135c0,0.8,0.016,1.504,0.064,2.112h-1.248l-0.08-1.264h-0.032      c-0.352,0.624-1.184,1.44-2.56,1.44c-1.216,0-2.672-0.688-2.672-3.392v-4.528h1.408v4.272c0,1.472,0.464,2.48,1.728,2.48      c0.944,0,1.6-0.656,1.856-1.296c0.08-0.192,0.128-0.448,0.128-0.72v-4.736h1.408V270.135z"/>
				<path i:knockout="Off" d="M198.777,271.11c0,1.792-0.368,2.864-1.104,3.552c-0.768,0.688-1.856,0.928-2.832,0.928      c-0.928,0-1.952-0.224-2.576-0.64l0.352-1.088c0.512,0.336,1.312,0.624,2.272,0.624c1.44,0,2.496-0.752,2.496-2.72v-0.848      h-0.032c-0.416,0.72-1.264,1.296-2.464,1.296c-1.92,0-3.296-1.632-3.296-3.792c0-2.624,1.712-4.096,3.504-4.096      c1.344,0,2.064,0.688,2.416,1.328h0.032l0.048-1.152h1.248c-0.048,0.544-0.064,1.168-0.064,2.112V271.11z M197.369,267.542      c0-0.224-0.016-0.432-0.08-0.624c-0.256-0.832-0.928-1.504-1.968-1.504c-1.344,0-2.304,1.136-2.304,2.944      c0,1.504,0.784,2.784,2.288,2.784c0.88,0,1.664-0.544,1.952-1.456c0.08-0.224,0.112-0.496,0.112-0.752V267.542z"/>
				<path i:knockout="Off" d="M207.72,271.11c0,1.792-0.368,2.864-1.104,3.552c-0.768,0.688-1.856,0.928-2.832,0.928      c-0.928,0-1.952-0.224-2.576-0.64l0.352-1.088c0.512,0.336,1.312,0.624,2.272,0.624c1.44,0,2.496-0.752,2.496-2.72v-0.848      h-0.032c-0.416,0.72-1.264,1.296-2.464,1.296c-1.92,0-3.296-1.632-3.296-3.792c0-2.624,1.712-4.096,3.504-4.096      c1.344,0,2.064,0.688,2.416,1.328h0.032l0.048-1.152h1.248c-0.048,0.544-0.064,1.168-0.064,2.112V271.11z M206.312,267.542      c0-0.224-0.016-0.432-0.08-0.624c-0.256-0.832-0.928-1.504-1.968-1.504c-1.344,0-2.304,1.136-2.304,2.944      c0,1.504,0.784,2.784,2.288,2.784c0.88,0,1.664-0.544,1.952-1.456c0.08-0.224,0.112-0.496,0.112-0.752V267.542z"/>
				<path i:knockout="Off" d="M210.537,264.502l1.68,4.576c0.192,0.512,0.384,1.12,0.512,1.584h0.032      c0.144-0.464,0.304-1.056,0.496-1.616l1.536-4.544h1.488l-2.112,5.52c-1.008,2.656-1.696,4.016-2.656,4.864      c-0.704,0.592-1.376,0.832-1.728,0.896l-0.352-1.184c0.352-0.096,0.816-0.32,1.232-0.688c0.384-0.304,0.848-0.848,1.184-1.568      c0.064-0.144,0.112-0.24,0.112-0.336c0-0.08-0.032-0.192-0.112-0.352l-2.848-7.152H210.537z"/>
				<path i:knockout="Off" d="M224.393,273.447v0.8h-8v-0.8H224.393z"/>
				<path i:knockout="Off" d="M225.688,272.247v-6.672h-1.072v-1.072h1.072v-0.368c0-1.088,0.256-2.08,0.912-2.704      c0.528-0.512,1.232-0.72,1.872-0.72c0.512,0,0.928,0.112,1.2,0.224l-0.176,1.088c-0.224-0.096-0.496-0.176-0.912-0.176      c-1.184,0-1.504,1.056-1.504,2.24v0.416h1.872v1.072h-1.856v6.672H225.688z"/>
				<path i:knockout="Off" d="M236.712,270.135c0,0.8,0.016,1.504,0.064,2.112h-1.248l-0.08-1.264h-0.032      c-0.352,0.624-1.184,1.44-2.56,1.44c-1.216,0-2.672-0.688-2.672-3.392v-4.528h1.408v4.272c0,1.472,0.464,2.48,1.728,2.48      c0.944,0,1.6-0.656,1.856-1.296c0.08-0.192,0.128-0.448,0.128-0.72v-4.736h1.408V270.135z"/>
				<path i:knockout="Off" d="M239.048,266.599c0-0.816-0.016-1.456-0.064-2.096h1.248l0.08,1.264h0.032      c0.384-0.72,1.28-1.44,2.56-1.44c1.072,0,2.736,0.64,2.736,3.296v4.624h-1.408v-4.464c0-1.248-0.464-2.304-1.792-2.304      c-0.912,0-1.632,0.656-1.888,1.44c-0.064,0.176-0.096,0.432-0.096,0.656v4.672h-1.408V266.599z"/>
				<path i:knockout="Off" d="M253.448,271.975c-0.368,0.176-1.184,0.448-2.224,0.448c-2.336,0-3.856-1.584-3.856-3.968      s1.632-4.128,4.16-4.128c0.832,0,1.568,0.208,1.952,0.416l-0.32,1.072c-0.336-0.176-0.864-0.368-1.632-0.368      c-1.776,0-2.736,1.328-2.736,2.944c0,1.792,1.152,2.896,2.688,2.896c0.8,0,1.328-0.192,1.728-0.368L253.448,271.975z"/>
				<path i:knockout="Off" d="M258.936,261.143c-1.168,1.584-2,3.648-2,6.56c0,2.848,0.88,4.88,2,6.48h-1.088      c-1.008-1.328-2.096-3.376-2.096-6.496c0.016-3.136,1.088-5.2,2.096-6.544H258.936z"/>
				<path i:knockout="Off" d="M261.192,274.183c1.12-1.584,2-3.648,2-6.528s-0.864-4.912-2-6.512h1.088      c1.008,1.312,2.096,3.376,2.096,6.512c-0.016,3.136-1.088,5.168-2.096,6.528H261.192z"/>
				<path i:knockout="Off" d="M265.688,274.214c0.352-0.944,0.784-2.656,0.96-3.824l1.552-0.16c-0.384,1.36-1.088,3.136-1.536,3.888      L265.688,274.214z M267.304,266.774c-0.544,0-0.928-0.432-0.928-0.992c0-0.592,0.4-1.008,0.944-1.008      c0.576,0,0.944,0.416,0.944,1.008c0,0.56-0.368,0.992-0.944,0.992H267.304z"/>
			</g>
			<g i:knockout="On" a:adobe-knockout="true">
				<polygon i:knockout="Off" fill="#FFFFFF" stroke="#000000" a:adobe-knockout="false" points="215.65,175.105 220.636,183.741       225.622,175.105 "/>
			</g>
			<g i:knockout="On" a:adobe-knockout="true">
				<polygon i:knockout="Off" fill="#FFFFFF" stroke="#000000" a:adobe-knockout="false" points="215.397,249.527 220.383,258.163       225.369,249.527 "/>
			</g>
			<g>
				<g>
					<path i:knockout="Off" fill="#CCCCCC" d="M518.007,182.635c0,3.118-2.551,5.669-5.669,5.669H411.176       c-3.118,0-5.669-2.551-5.669-5.669V89.007c0-3.118,2.551-5.669,5.669-5.669h101.162c3.118,0,5.669,2.551,5.669,5.669V182.635z"/>
					<linearGradient id="XMLID_11_" gradientUnits="userSpaceOnUse" x1="206.6948" y1="130.8208" x2="547.8173" y2="130.8208">
						<stop offset="0" style="stop-color:#169133"/>
						<stop offset="1" style="stop-color:#FFFFFF"/>
						<a:midPointStop offset="0" style="stop-color:#169133"/>
						<a:midPointStop offset="0.5" style="stop-color:#169133"/>
						<a:midPointStop offset="1" style="stop-color:#FFFFFF"/>
					</linearGradient>
					<path i:knockout="Off" fill="url(#XMLID_11_)" stroke="#000000" d="M511.007,177.635c0,3.118-2.551,5.669-5.669,5.669H404.176       c-3.118,0-5.669-2.551-5.669-5.669V84.007c0-3.118,2.551-5.669,5.669-5.669h101.162c3.118,0,5.669,2.551,5.669,5.669V177.635z"/>
				</g>
				<linearGradient id="XMLID_12_" gradientUnits="userSpaceOnUse" x1="333.3022" y1="94.5029" x2="589.7572" y2="94.5029">
					<stop offset="0" style="stop-color:#169197"/>
					<stop offset="1" style="stop-color:#FFFFFF"/>
					<a:midPointStop offset="0" style="stop-color:#169197"/>
					<a:midPointStop offset="0.5" style="stop-color:#169197"/>
					<a:midPointStop offset="1" style="stop-color:#FFFFFF"/>
				</linearGradient>
				<path i:knockout="Off" fill="url(#XMLID_12_)" stroke="#000000" d="M398.507,110.668V84.007c0-3.118,2.551-5.669,5.669-5.669      h101.162c3.118,0,5.669,2.551,5.669,5.669v26.662H398.507z"/>
			</g>
			<g i:knockout="Off">
				<path i:knockout="Off" d="M415.632,88.631h1.408v4.848h0.032c0.496-0.864,1.392-1.408,2.64-1.408c1.92,0,3.264,1.6,3.264,3.936      c0,2.784-1.76,4.16-3.487,4.16c-1.12,0-2-0.432-2.592-1.456h-0.032l-0.08,1.28h-1.216c0.048-0.528,0.063-1.312,0.063-2V88.631z       M417.041,96.887c0,0.176,0.016,0.352,0.049,0.512c0.271,0.976,1.104,1.648,2.111,1.648c1.488,0,2.352-1.2,2.352-2.976      c0-1.568-0.799-2.896-2.304-2.896c-0.96,0-1.856,0.672-2.128,1.728c-0.048,0.176-0.08,0.368-0.08,0.592V96.887z"/>
				<path i:knockout="Off" d="M431.216,97.879c0,0.8,0.017,1.504,0.064,2.112h-1.248l-0.08-1.264h-0.031      c-0.353,0.624-1.185,1.44-2.561,1.44c-1.216,0-2.672-0.688-2.672-3.392v-4.528h1.408v4.272c0,1.472,0.464,2.48,1.728,2.48      c0.944,0,1.601-0.656,1.856-1.296c0.08-0.192,0.127-0.448,0.127-0.72v-4.736h1.408V97.879z"/>
				<path i:knockout="Off" d="M440.176,98.855c0,1.792-0.368,2.864-1.104,3.552c-0.768,0.688-1.855,0.928-2.832,0.928      c-0.928,0-1.951-0.224-2.576-0.64l0.353-1.088c0.513,0.336,1.312,0.624,2.272,0.624c1.439,0,2.496-0.752,2.496-2.72v-0.848      h-0.033c-0.415,0.72-1.264,1.296-2.463,1.296c-1.92,0-3.297-1.632-3.297-3.792c0-2.624,1.713-4.096,3.504-4.096      c1.345,0,2.064,0.688,2.416,1.328h0.033l0.047-1.152h1.248c-0.047,0.544-0.063,1.168-0.063,2.112V98.855z M438.768,95.287      c0-0.224-0.017-0.432-0.08-0.624c-0.256-0.832-0.928-1.504-1.968-1.504c-1.344,0-2.305,1.136-2.305,2.944      c0,1.504,0.785,2.784,2.289,2.784c0.879,0,1.664-0.544,1.951-1.456c0.08-0.224,0.112-0.496,0.112-0.752V95.287z"/>
				<path i:knockout="Off" d="M449.121,98.855c0,1.792-0.368,2.864-1.104,3.552c-0.769,0.688-1.856,0.928-2.832,0.928      c-0.929,0-1.953-0.224-2.576-0.64l0.352-1.088c0.512,0.336,1.312,0.624,2.271,0.624c1.44,0,2.496-0.752,2.496-2.72v-0.848      h-0.031c-0.416,0.72-1.264,1.296-2.465,1.296c-1.92,0-3.295-1.632-3.295-3.792c0-2.624,1.711-4.096,3.504-4.096      c1.344,0,2.063,0.688,2.416,1.328h0.031l0.049-1.152h1.248c-0.049,0.544-0.064,1.168-0.064,2.112V98.855z M447.712,95.287      c0-0.224-0.016-0.432-0.08-0.624c-0.256-0.832-0.928-1.504-1.968-1.504c-1.344,0-2.304,1.136-2.304,2.944      c0,1.504,0.783,2.784,2.287,2.784c0.881,0,1.664-0.544,1.953-1.456c0.08-0.224,0.111-0.496,0.111-0.752V95.287z"/>
				<path i:knockout="Off" d="M451.937,92.247l1.68,4.576c0.191,0.512,0.384,1.12,0.512,1.584h0.031      c0.145-0.464,0.305-1.056,0.496-1.616l1.537-4.544h1.487l-2.112,5.52c-1.008,2.656-1.695,4.016-2.656,4.864      c-0.703,0.592-1.375,0.832-1.728,0.896l-0.352-1.184c0.352-0.096,0.815-0.32,1.231-0.688c0.385-0.304,0.848-0.848,1.185-1.568      c0.063-0.144,0.112-0.24,0.112-0.336c0-0.08-0.033-0.192-0.112-0.352l-2.849-7.152H451.937z"/>
				<path i:knockout="Off" d="M465.792,101.191v0.8h-8v-0.8H465.792z"/>
				<path i:knockout="Off" d="M467.088,99.991v-6.672h-1.071v-1.072h1.071v-0.368c0-1.088,0.256-2.08,0.912-2.704      c0.528-0.512,1.231-0.72,1.872-0.72c0.512,0,0.928,0.112,1.199,0.224l-0.176,1.088c-0.224-0.096-0.496-0.176-0.912-0.176      c-1.184,0-1.504,1.056-1.504,2.24v0.416h1.873v1.072h-1.856v6.672H467.088z"/>
				<path i:knockout="Off" d="M478.113,97.879c0,0.8,0.016,1.504,0.063,2.112h-1.248l-0.08-1.264h-0.032      c-0.352,0.624-1.184,1.44-2.56,1.44c-1.216,0-2.672-0.688-2.672-3.392v-4.528h1.407v4.272c0,1.472,0.465,2.48,1.729,2.48      c0.943,0,1.6-0.656,1.855-1.296c0.08-0.192,0.129-0.448,0.129-0.72v-4.736h1.408V97.879z"/>
				<path i:knockout="Off" d="M480.449,94.343c0-0.816-0.017-1.456-0.064-2.096h1.248l0.08,1.264h0.031      c0.385-0.72,1.281-1.44,2.561-1.44c1.072,0,2.736,0.64,2.736,3.296v4.624h-1.408v-4.464c0-1.248-0.465-2.304-1.792-2.304      c-0.912,0-1.632,0.656-1.888,1.44c-0.064,0.176-0.096,0.432-0.096,0.656v4.672h-1.408V94.343z"/>
				<path i:knockout="Off" d="M494.848,99.719c-0.368,0.176-1.185,0.448-2.224,0.448c-2.336,0-3.856-1.584-3.856-3.968      s1.632-4.128,4.16-4.128c0.832,0,1.567,0.208,1.952,0.416l-0.32,1.072c-0.336-0.176-0.863-0.368-1.632-0.368      c-1.776,0-2.736,1.328-2.736,2.944c0,1.792,1.152,2.896,2.688,2.896c0.8,0,1.328-0.192,1.728-0.368L494.848,99.719z"/>
			</g>
			<g i:knockout="On" a:adobe-knockout="true">
				<polygon i:knockout="Off" fill="#FFFFFF" stroke="#000000" a:adobe-knockout="false" points="449.397,161.083 454.382,169.719       459.369,161.083 "/>
			</g>
			<g>
				<g>
					<path i:knockout="Off" fill="#CCCCCC" d="M518.007,342.635c0,3.118-2.551,5.669-5.669,5.669H411.176       c-3.118,0-5.669-2.551-5.669-5.669v-93.628c0-3.118,2.551-5.669,5.669-5.669h101.162c3.118,0,5.669,2.551,5.669,5.669V342.635z       "/>
					<linearGradient id="XMLID_13_" gradientUnits="userSpaceOnUse" x1="206.6948" y1="290.8208" x2="547.8173" y2="290.8208">
						<stop offset="0" style="stop-color:#169133"/>
						<stop offset="1" style="stop-color:#FFFFFF"/>
						<a:midPointStop offset="0" style="stop-color:#169133"/>
						<a:midPointStop offset="0.5" style="stop-color:#169133"/>
						<a:midPointStop offset="1" style="stop-color:#FFFFFF"/>
					</linearGradient>
					<path i:knockout="Off" fill="url(#XMLID_13_)" stroke="#000000" d="M511.007,337.635c0,3.118-2.551,5.669-5.669,5.669H404.176       c-3.118,0-5.669-2.551-5.669-5.669v-93.628c0-3.118,2.551-5.669,5.669-5.669h101.162c3.118,0,5.669,2.551,5.669,5.669V337.635z       "/>
				</g>
				<linearGradient id="XMLID_14_" gradientUnits="userSpaceOnUse" x1="333.3022" y1="254.5029" x2="589.7572" y2="254.5029">
					<stop offset="0" style="stop-color:#169197"/>
					<stop offset="1" style="stop-color:#FFFFFF"/>
					<a:midPointStop offset="0" style="stop-color:#169197"/>
					<a:midPointStop offset="0.5" style="stop-color:#169197"/>
					<a:midPointStop offset="1" style="stop-color:#FFFFFF"/>
				</linearGradient>
				<path i:knockout="Off" fill="url(#XMLID_14_)" stroke="#000000" d="M398.507,270.668v-26.662c0-3.118,2.551-5.669,5.669-5.669      h101.162c3.118,0,5.669,2.551,5.669,5.669v26.662H398.507z"/>
			</g>
			<g i:knockout="Off">
				<path i:knockout="Off" d="M421,259.991v-6.672h-1.071v-1.072H421v-0.368c0-1.088,0.256-2.08,0.912-2.704      c0.528-0.512,1.231-0.72,1.872-0.72c0.512,0,0.928,0.112,1.199,0.224l-0.176,1.088c-0.224-0.096-0.496-0.176-0.912-0.176      c-1.184,0-1.504,1.056-1.504,2.24v0.416h1.873v1.072h-1.856v6.672H421z"/>
				<path i:knockout="Off" d="M426.216,250.823c-0.527,0-0.88-0.416-0.88-0.912c0-0.496,0.368-0.896,0.912-0.896      s0.896,0.4,0.896,0.896c0,0.496-0.352,0.912-0.912,0.912H426.216z M425.544,259.991v-7.744h1.408v7.744H425.544z"/>
				<path i:knockout="Off" d="M429.945,252.247l1.104,1.648c0.288,0.448,0.528,0.832,0.784,1.264h0.048      c0.256-0.448,0.512-0.848,0.784-1.264l1.071-1.648h1.537l-2.641,3.744l2.704,4h-1.601l-1.135-1.744      c-0.305-0.448-0.561-0.88-0.832-1.344h-0.033c-0.256,0.464-0.527,0.88-0.815,1.344l-1.12,1.744h-1.552l2.752-3.952l-2.624-3.792      H429.945z"/>
				<path i:knockout="Off" d="M437.257,256.359c0.033,1.904,1.232,2.688,2.641,2.688c1.008,0,1.632-0.176,2.145-0.384l0.256,0.992      c-0.496,0.224-1.36,0.496-2.592,0.496c-2.369,0-3.809-1.584-3.809-3.904c0-2.352,1.393-4.192,3.648-4.192      c2.527,0,3.184,2.224,3.184,3.648c0,0.288-0.016,0.512-0.048,0.672L437.257,256.359z M441.371,255.351      c0.016-0.88-0.369-2.288-1.937-2.288c-1.44,0-2.048,1.312-2.16,2.288H441.371z"/>
				<path i:knockout="Off" d="M451.162,248.631v9.36c0,0.688,0.017,1.472,0.064,2h-1.264l-0.064-1.344h-0.031      c-0.433,0.864-1.361,1.52-2.625,1.52c-1.871,0-3.328-1.584-3.328-3.936c-0.016-2.592,1.601-4.16,3.473-4.16      c1.199,0,2,0.56,2.336,1.168h0.031v-4.608H451.162z M449.753,255.399c0-0.192-0.016-0.416-0.063-0.608      c-0.208-0.88-0.976-1.616-2.032-1.616c-1.455,0-2.32,1.28-2.32,2.976c0,1.584,0.785,2.88,2.289,2.88      c0.943,0,1.808-0.64,2.063-1.68c0.048-0.192,0.063-0.384,0.063-0.608V255.399z"/>
				<path i:knockout="Off" d="M460.33,261.191v0.8h-8v-0.8H460.33z"/>
				<path i:knockout="Off" d="M461.625,259.991v-6.672h-1.071v-1.072h1.071v-0.368c0-1.088,0.256-2.08,0.912-2.704      c0.528-0.512,1.231-0.72,1.872-0.72c0.512,0,0.928,0.112,1.199,0.224l-0.176,1.088c-0.224-0.096-0.496-0.176-0.912-0.176      c-1.184,0-1.504,1.056-1.504,2.24v0.416h1.873v1.072h-1.856v6.672H461.625z"/>
				<path i:knockout="Off" d="M472.65,257.879c0,0.8,0.016,1.504,0.063,2.112h-1.248l-0.08-1.264h-0.032      c-0.352,0.624-1.184,1.44-2.56,1.44c-1.216,0-2.672-0.688-2.672-3.392v-4.528h1.407v4.272c0,1.472,0.465,2.48,1.729,2.48      c0.943,0,1.6-0.656,1.855-1.296c0.08-0.192,0.129-0.448,0.129-0.72v-4.736h1.408V257.879z"/>
				<path i:knockout="Off" d="M474.986,254.343c0-0.816-0.016-1.456-0.064-2.096h1.248l0.08,1.264h0.032      c0.384-0.72,1.28-1.44,2.56-1.44c1.072,0,2.736,0.64,2.736,3.296v4.624h-1.408v-4.464c0-1.248-0.464-2.304-1.791-2.304      c-0.912,0-1.633,0.656-1.889,1.44c-0.064,0.176-0.096,0.432-0.096,0.656v4.672h-1.408V254.343z"/>
				<path i:knockout="Off" d="M489.386,259.719c-0.369,0.176-1.185,0.448-2.225,0.448c-2.336,0-3.855-1.584-3.855-3.968      s1.631-4.128,4.16-4.128c0.832,0,1.567,0.208,1.951,0.416l-0.32,1.072c-0.336-0.176-0.863-0.368-1.631-0.368      c-1.776,0-2.736,1.328-2.736,2.944c0,1.792,1.152,2.896,2.688,2.896c0.801,0,1.328-0.192,1.729-0.368L489.386,259.719z"/>
			</g>
			<g i:knockout="On" a:adobe-knockout="true">
				<polygon i:knockout="Off" fill="#FFFFFF" stroke="#000000" a:adobe-knockout="false" points="449.397,321.083 454.382,329.719       459.369,321.083 "/>
			</g>
			<g i:knockout="On" a:adobe-knockout="true">
				<g i:knockout="On">
					
						<line i:knockout="Off" fill="#FFFFFF" stroke="#000000" a:adobe-knockout="false" x1="276.918" y1="255.103" x2="389.792" y2="255.103"/>
				</g>
				<polygon i:knockout="Off" fill="#FFFFFF" stroke="#000000" a:adobe-knockout="false" points="388.333,260.104 396.968,255.118       388.333,250.132 "/>
			</g>
			<g i:knockout="On" a:adobe-knockout="true">
				<g i:knockout="On">
					
						<line i:knockout="Off" fill="#FFFFFF" stroke="#000000" a:adobe-knockout="false" x1="336.285" y1="360.812" x2="336.285" y2="277.988"/>
				</g>
			</g>
			<g i:knockout="On" a:adobe-knockout="true">
				<g i:knockout="On">
					
						<line i:knockout="Off" fill="#FFFFFF" stroke="#000000" a:adobe-knockout="false" x1="336.776" y1="277.942" x2="285.699" y2="277.942"/>
				</g>
				<polygon i:knockout="Off" fill="#FFFFFF" stroke="#000000" a:adobe-knockout="false" points="287.158,282.943 278.521,277.958       287.158,272.973 "/>
			</g>
			<polyline i:knockout="Off" fill="none" stroke="#000000" points="454.368,343.563 454.368,360.321 335.825,360.321 "/>
			<g i:knockout="On" a:adobe-knockout="true">
				<g i:knockout="On">
					
						<line i:knockout="Off" fill="#FFFFFF" stroke="#000000" a:adobe-knockout="false" x1="144.013" y1="354.23" x2="144.013" y2="105.859"/>
				</g>
			</g>
			<g i:knockout="On" a:adobe-knockout="true">
				<g i:knockout="On">
					
						<line i:knockout="Off" fill="#FFFFFF" stroke="#000000" a:adobe-knockout="false" x1="143.532" y1="105.907" x2="205.38" y2="105.907"/>
				</g>
			</g>
			<polyline i:knockout="Off" fill="none" stroke="#000000" points="220.1,336.415 220.1,353.739 143.511,353.739 "/>
			<line i:knockout="Off" fill="none" stroke="#B3B3B3" stroke-width="2" x1="11.373" y1="52.443" x2="683.783" y2="52.443"/>
			<g i:knockout="On" a:adobe-knockout="true">
				<g i:knockout="On">
					
						<line i:knockout="Off" fill="#FFFFFF" stroke="#000000" a:adobe-knockout="false" x1="220.77" y1="15.86" x2="220.77" y2="115.126"/>
				</g>
				<polygon i:knockout="Off" fill="#FFFFFF" stroke="#000000" a:adobe-knockout="false" points="215.769,113.667 220.754,122.303       225.739,113.667 "/>
			</g>
			<g>
				<circle i:knockout="Off" cx="454.402" cy="283.907" r="0.953"/> 
				<circle i:knockout="Off" cx="454.402" cy="288.126" r="0.953"/> 
				<circle i:knockout="Off" cx="454.402" cy="292.345" r="0.953"/> 
				<circle i:knockout="Off" cx="454.402" cy="296.563" r="0.953"/> 
				<circle i:knockout="Off" cx="454.402" cy="300.782" r="0.953"/> 
				<circle i:knockout="Off" cx="454.402" cy="305.001" r="0.953"/> 
				<circle i:knockout="Off" cx="454.402" cy="309.22" r="0.953"/> 
				<circle i:knockout="Off" cx="454.402" cy="313.438" r="0.953"/> 
				<circle i:knockout="Off" cx="454.402" cy="317.657" r="0.953"/> 
			</g>
			<g>
				<circle i:knockout="Off" cx="454.402" cy="123.881" r="0.953"/> 
				<circle i:knockout="Off" cx="454.402" cy="128.1" r="0.953"/> 
				<circle i:knockout="Off" cx="454.402" cy="132.319" r="0.953"/> 
				<circle i:knockout="Off" cx="454.402" cy="136.538" r="0.953"/> 
				<circle i:knockout="Off" cx="454.402" cy="140.756" r="0.953"/> 
				<circle i:knockout="Off" cx="454.402" cy="144.975" r="0.953"/> 
				<circle i:knockout="Off" cx="454.402" cy="149.194" r="0.953"/> 
				<circle i:knockout="Off" cx="454.402" cy="153.413" r="0.953"/> 
				<circle i:knockout="Off" cx="454.402" cy="157.631" r="0.953"/> 
			</g>
			<g>
				<circle i:knockout="Off" cx="220.636" cy="163.559" r="0.953"/> 
				<circle i:knockout="Off" cx="220.636" cy="167.778" r="0.953"/> 
				<circle i:knockout="Off" cx="220.636" cy="171.997" r="0.953"/> 
				<circle i:knockout="Off" cx="220.407" cy="225.487" r="0.953"/> 
				<circle i:knockout="Off" cx="220.407" cy="229.706" r="0.953"/> 
				<circle i:knockout="Off" cx="220.407" cy="233.924" r="0.953"/> 
				<circle i:knockout="Off" cx="220.407" cy="238.143" r="0.953"/> 
				<circle i:knockout="Off" cx="220.407" cy="242.362" r="0.953"/> 
				<circle i:knockout="Off" cx="220.407" cy="246.581" r="0.953"/> 
				<circle i:knockout="Off" cx="220.407" cy="204.386" r="0.953"/> 
				<circle i:knockout="Off" cx="220.407" cy="208.605" r="0.953"/> 
				<circle i:knockout="Off" cx="220.407" cy="212.824" r="0.953"/> 
				<circle i:knockout="Off" cx="220.407" cy="217.042" r="0.953"/> 
				<circle i:knockout="Off" cx="220.407" cy="221.261" r="0.953"/> 
				<g i:knockout="On" a:adobe-knockout="true">
					<polygon i:knockout="Off" fill="#FFFFFF" stroke="#000000" a:adobe-knockout="false" points="215.397,314.167        220.383,322.803 225.369,314.167 "/>
				</g>
				<circle i:knockout="Off" cx="220.407" cy="290.127" r="0.953"/> 
				<circle i:knockout="Off" cx="220.407" cy="294.346" r="0.953"/> 
				<circle i:knockout="Off" cx="220.407" cy="298.565" r="0.953"/> 
				<circle i:knockout="Off" cx="220.407" cy="302.784" r="0.953"/> 
				<circle i:knockout="Off" cx="220.407" cy="307.002" r="0.953"/> 
				<circle i:knockout="Off" cx="220.407" cy="311.221" r="0.953"/> 
				<circle i:knockout="Off" cx="220.407" cy="281.73" r="0.953"/> 
				<circle i:knockout="Off" cx="220.407" cy="285.949" r="0.953"/> 
			</g>
			<g i:knockout="On" a:adobe-knockout="true">
				<g i:knockout="On">
					
						<line i:knockout="Off" fill="#FFFFFF" stroke="#000000" a:adobe-knockout="false" x1="205.425" y1="106.398" x2="205.425" y2="24.108"/>
				</g>
				<polygon i:knockout="Off" fill="#FFFFFF" stroke="#000000" a:adobe-knockout="false" points="200.424,25.567 205.41,16.93       210.395,25.567 "/>
			</g>
		</g>
	</svg>