<?xml version="1.0" encoding="UTF-8"?>
<!-- Generator: Adobe Illustrator 11 Build 196, SVG Export Plug-In . SVG Version: 6.0.0 Build 78)  -->
<!DOCTYPE svg PUBLIC "-//W3C//DTD SVG 1.0//EN" "http://www.w3.org/TR/2001/REC-SVG-20010904/DTD/svg10.dtd">
<svg xmlns:x="http://ns.adobe.com/Extensibility/1.0/" xmlns:i="http://ns.adobe.com/AdobeIllustrator/10.0/" xmlns:graph="http://ns.adobe.com/Graphs/1.0/" i:viewOrigin="-51.8862 878.0635" i:rulerOrigin="0 0" i:pageBounds="0 792 612 0" xmlns="http://www.w3.org/2000/svg" xmlns:xlink="http://www.w3.org/1999/xlink" xmlns:a="http://ns.adobe.com/AdobeSVGViewerExtensions/3.0/" width="695.126" height="379.677" viewBox="0 0 695.126 379.677" overflow="visible" enable-background="new 0 0 695.126 379.677" xml:space="preserve">
	<metadata>
		<variableSets xmlns="http://ns.adobe.com/Variables/1.0/">
			<variableSet varSetName="binding1" locked="none">
				<variables/>
				<v:sampleDataSets xmlns="http://ns.adobe.com/GenericCustomNamespace/1.0/" xmlns:v="http://ns.adobe.com/Variables/1.0/"/>
			</variableSet>
		</variableSets>
		<sfw xmlns="http://ns.adobe.com/SaveForWeb/1.0/">
			<slices/>
			<sliceSourceBounds y="498.386" x="-51.886" width="695.126" height="379.677" bottomLeftOrigin="true"/>
		</sfw>
<?xpacket begin='﻿' id='W5M0MpCehiHzreSzNTczkc9d'?><x:xmpmeta xmlns:x="adobe:ns:meta/" x:xmptk="XMP toolkit 3.0-29, framework 1.6">
<rdf:RDF xmlns:rdf="http://www.w3.org/1999/02/22-rdf-syntax-ns#" xmlns:iX="http://ns.adobe.com/iX/1.0/">

 <rdf:Description rdf:about="uuid:8abfd13b-6f04-11e4-ba9b-000d933a9528" xmlns:pdf="http://ns.adobe.com/pdf/1.3/">
  <pdf:Producer>Adobe PDF library 6.66</pdf:Producer>
 </rdf:Description>

 <rdf:Description rdf:about="uuid:8abfd13b-6f04-11e4-ba9b-000d933a9528" xmlns:tiff="http://ns.adobe.com/tiff/1.0/">
 </rdf:Description>

 <rdf:Description rdf:about="uuid:8abfd13b-6f04-11e4-ba9b-000d933a9528" xmlns:xap="http://ns.adobe.com/xap/1.0/" xmlns:xapGImg="http://ns.adobe.com/xap/1.0/g/img/">
  <xap:CreateDate>2014-11-11T06:04:16-05:00</xap:CreateDate>
  <xap:ModifyDate>2014-11-18T09:23:55Z</xap:ModifyDate>
  <xap:CreatorTool>Illustrator</xap:CreatorTool>
  <xap:MetadataDate>2014-11-18T02:53:38-05:00</xap:MetadataDate>
  <xap:Thumbnails>
   <rdf:Alt>
    <rdf:li rdf:parseType="Resource">
     <xapGImg:format>JPEG</xapGImg:format>
     <xapGImg:width>256</xapGImg:width>
     <xapGImg:height>140</xapGImg:height>
     <xapGImg:image>/9j/4AAQSkZJRgABAgEASABIAAD/7QAsUGhvdG9zaG9wIDMuMAA4QklNA+0AAAAAABAASAAAAAEA
AQBIAAAAAQAB/+4ADkFkb2JlAGTAAAAAAf/bAIQABgQEBAUEBgUFBgkGBQYJCwgGBggLDAoKCwoK
DBAMDAwMDAwQDA4PEA8ODBMTFBQTExwbGxscHx8fHx8fHx8fHwEHBwcNDA0YEBAYGhURFRofHx8f
Hx8fHx8fHx8fHx8fHx8fHx8fHx8fHx8fHx8fHx8fHx8fHx8fHx8fHx8fHx8f/8AAEQgAjAEAAwER
AAIRAQMRAf/EAaIAAAAHAQEBAQEAAAAAAAAAAAQFAwIGAQAHCAkKCwEAAgIDAQEBAQEAAAAAAAAA
AQACAwQFBgcICQoLEAACAQMDAgQCBgcDBAIGAnMBAgMRBAAFIRIxQVEGE2EicYEUMpGhBxWxQiPB
UtHhMxZi8CRygvElQzRTkqKyY3PCNUQnk6OzNhdUZHTD0uIIJoMJChgZhJRFRqS0VtNVKBry4/PE
1OT0ZXWFlaW1xdXl9WZ2hpamtsbW5vY3R1dnd4eXp7fH1+f3OEhYaHiImKi4yNjo+Ck5SVlpeYmZ
qbnJ2en5KjpKWmp6ipqqusra6voRAAICAQIDBQUEBQYECAMDbQEAAhEDBCESMUEFURNhIgZxgZEy
obHwFMHR4SNCFVJicvEzJDRDghaSUyWiY7LCB3PSNeJEgxdUkwgJChgZJjZFGidkdFU38qOzwygp
0+PzhJSktMTU5PRldYWVpbXF1eX1RlZmdoaWprbG1ub2R1dnd4eXp7fH1+f3OEhYaHiImKi4yNjo
+DlJWWl5iZmpucnZ6fkqOkpaanqKmqq6ytrq+v/aAAwDAQACEQMRAD8A9UYq3irsVdirsVdirsVd
irsVdiqyKWOVSyGoDMh+aMVb8Riq/FXYq7FXYq7FXYq7FXYq7FXYq7FXYq7FXYq7FXYq7FXYq7FX
Yq1ireKvPfzZ806/5Ym8vatZRXk+jLcXUWtQ2EBuZCJLOUWpKKrMFFzwNRT3xV5u/wCdH5waRoX1
RvLkl/q1jpmly3F1NY3cn7+5Cm7kuTH9XQNHzA9KMeLF9mRVU5T83/zVWwF/d+X7eGKW902zhtks
9QlueF3bQz3Mqx1VXEbSsi8mTfY/EvFlWN2v/OQv5w3ehahqFj5Vh1H0fSFtcWlhfvCrvNNGY5Q0
qmSojRucJIXlQ1J2VTDWPz3/ADbgtL+a08qpFcwzWcUFhPY6hK0cE8PqPdzSo0aNG0n7tVWjL1bp
QqvedGu7q80ixu7uH6vd3FvFLcW4rSOR0DOnxAH4WNNxiqMxV2KuxVCaZ/vM/wDxnuP+T74qi8Vd
irsVdirsVdirsVdirsVdirsVdirsVdirsVdirsVdirsVdirsVQOp3V1B6X1cxjly5eopbpSlKMmK
pLqHmxNN4HUdRsLISiRo/rH7rkIUMspXnMtQkal28FFTtiqvba5eXVvFc2txaz206LJDPEjOjowq
rKyykMCNwRiqr+k9V/ng/wCRT/8AVTFUs0PWLONLjStFNhDFpUvoXFna25iSCVwJivBXVQWEgbbx
xVM/0nqv88H/ACKf/qpirv0nqv8APB/yKf8A6qYq79J6r/PB/wAin/6qYq79J6r/ADwf8in/AOqm
Ku/Seq/zwf8AIp/+qmKobT9S1QQPR4P76c7xP3mf/izFUT+k9V/ng/5FP/1UxV36T1X+eD/kU/8A
1UxV36T1X+eD/kU//VTFXfpPVf54P+RT/wDVTFXfpPVf54P+RT/9VMVd+k9V/ng/5FP/ANVMVd+k
9V/ng/5FP/1UxV36T1X+eD/kU/8A1UxV36T1X+eD/kU//VTFXfpPVf54P+RT/wDVTFXfpPVf54P+
RT/9VMVd+k9V/ng/5FP/ANVMVd+k9V/ng/5FP/1UxV36T1X+eD/kU/8A1UxV36T1X+eD/kU//VTF
XfpPVf54P+RT/wDVTFXfpPVf54P+RT/9VMVd+k9V/ng/5FP/ANVMVd+k9V/ng/5FP/1UxV36T1X+
eD/kU/8A1UxVHaZdXU/q/WDGePHj6aleta1qz4qs1b/dX+y/hirzD82vyvk8+2+l263wsk097mUt
x5Fnlt2jh26FRKVLqftLUd8VYifyN853evatqepeZOUeqtbNNBbSTwoEjuIJZYVVQGVQkLpEwk2D
dBviqnrX5A+aruHURY+ZTbm/LNNCzztHIBfyXMMbcjIEVIXCbKRUdDU4qz/8tfIt/wCU7XUY72//
AEhLfSW0pmYs0lYLKG2bm7AcizQlq074qzKmKupirqYq6mKupiqG08fuG/4zT/8AJ58VRNMVdTFX
UxV1MVdTFXUxV1MVYtr/AJ4j0zUXsLe0N1NCB9YZ5PSVSyhlVaLIWPFqnYfTvS2GIyFuFqNdDFLh
IJKCT8wrxumlx/8ASS3/AFRyX5ctI7Uh3FXTzxft002L/pJb/qjg8Asx2jDuKunm3Um6adD/ANJL
f9UMHglkNfHuKunmPVG6WEH/AEkv/wBUMHhFmNZHuKO0/WDPOLa6iW3uXUvEqOZEdFIDUYrGQylh
UEdxSu9IyjTdjyifJM6ZFtdTFXUxV1MVdTFXUxV1MVTDSf8Adv8Asf44qu1T/dX+y/hiqApirqYq
6mKupirqYq6mKupirqYq6mKobTx+4b/jNP8A8nnxVE0xV1MVdTFXUxVC3D3X1qKGF40Do7sXQv8A
YKAUoyfz4q36Wpf7/h/5Et/1VxVSuYdVa3lVJoy5RgoSNkatNqMZDxPvirzHzMsy+aNSEzcpOcdS
N9vQjpuAtTTvQfLM3T/S872p/e/BhdrpHny3uLloL63a0e7eWCF2LMsMt0J2/wB1puIh6axlv2if
UGwBqTETxEDY3X6K/H3Ia1i/Nl47Yc3jkMbOzO1qyq/1kqiy8VUsGiIY8acVr1fIepyAcP4vuZXq
Wk+aby5s7vSpmtrjT7aaAC9kQJPJKYgspEImoQqOaletABQmiQVxyiNj1TfQ9L87W97btf6pHdWY
kd54xxV6MCFUMIRyRNvh2Yk15/DRo0Wzij0DKo/+Ug07/jFN/wAnYMryOXpOrLaZU5rqYq6mKupi
rqYq6mKupiqP0v8A3b/sf44q3qf+6v8AZfwxVA0xV1MVdTFXUxV1MVdTFUp8weZdP0NITdJJLJcF
hFDCFLEJTk3xsi0HId++SjAy5NOfURxC5JQv5kaW3Swvfut/+q2T8GTjDtHF5r28+WEsbILG9XkC
OS/VwwqKVH77rj4MmQ1+Jbp3my2hjYfo67UuxcoHjkUE/ao0k5b4mq3tWnvg8KTIa3Gjl82wt006
7/6d/wDqtg8Mshq4Ii28w280yRy201qJDxWWb0uHI9Fqkj0J7V77dcBiQ2QzRkaCbUyLa6mKoaQf
7koP+MM3/EosVRNMVdTFWC69pmnT69eST2kMshaMF3jVmoIk7kZTknIHYut1cRx/BSi0TRv+WC2/
5Ep/TI+JLvLSIjuV5tN0O1tJrl9Ot2SFGkZRFECQorQF+K/eRkhOXeWyMQmkOiaL/wAsFt/yJj/p
h45d7YIhGw6Hov8A1b7b/kTH/TDxHvbBEKF3YWNrrGnG2tooCyyhjGioTSSHrxAyYLfjCfUwtrqY
q6mKupirqYq6mKupiqO0z/dv+x/jireo/wC6/p/hiqCpirqYq6mKupirqYq6mKvP/wA0R/pmj/6l
1+uDMjT8y6ntb6Y+95dcL52h1O+ewWOSxllie2DlXZVWONZQFdkAqw2FR+2ftFcvPFbrsfhmIvn+
Px8laAfmYtrzD28lwYSDEyR0EhKMStGWrKvNVDEKTSpGQ9TePCtNJYPMNzon6OiluYNX+uvcNIvq
Ino/WmmjT6xRl4emUBVX6fD4jAbpnExBvpSJil/NKX/SI4YIAUK/UpPSYgsLg8uasfiXjAFH2TyN
fER3bhwMzufU/RFv6vL1fVs+fqcOfL1468vTJStevHbwyM+TZg+sM3tx+4j/ANRf1ZQ7NUpiqGkH
+5KD/jDN/wASixVE0xV1MVYZrP8Ax27z/WT/AJNJmPl5uu1X1/BqLtkA0hrWATot8ACx+ryUUKsh
PwH9h/hb5HbJBtjzTyHJBmEbDkg2BB6n/wAdjTPlL/xOHJxb8acUyTY6mKupirqYq6mKupirqYqj
dO/3Z9H8cVbvx/d/T/DFUJTFXUxV1MVdTFXUxV1MVYj570+1u7nThcIW4JccaMykVMVd1IyE5mPI
uFrYggWkUOgaV/vt/wDkbL/zVkPHn3uCMUe4I6HQNL/32/8AyOl/5rw+NPvbBjj3Kmk6RY3Ft6ks
Lxv6kqcRPIdo5WRT8MjDdVB6/d0w+LLvbfDj3JtDoGmfySf8jpv+a8PiS72Yxx7lur6PYQ6cZUV+
aS25XlLKwr66dmYjJCRLdjgAWQ2w/wBHi/1F/VhclUpiqFkH+5KD/jDN/wATixVFUxV1MVYVrX/H
bvP9ZP8Ak0mY+Xm67VfX8FsXbIBpCpeW0d1ZyW0u9vMpjuBw9U+mwo1EP2jTtk4t2Or3TS09T0k9
WnqUHPjsK+25ws0whyQZhB6l/wAdjS/lL/ychycW/GndMk2OpirqYq6mKupirqYq6mKouwH959H8
cVbvv2Pp/hiqFpirqYq6mKupirqYq6mKsY84j/SrD/Un/XFlWbk4mr5B5hov5v8Alm7022uZRJHc
SxlpIE4SAOlsbqRVdX4sFjWpP7NRz4nlSvgLQcJBTKD81fLFxLFbCC6kFykQFEjZS1ygMUZpITWQ
uqKacSxoG60PCWQxkJteedLPQ/MZ0u+tvStpY7UpepwX1Li6eWKOMRjiB8Fqd+pPbxlzbDct1aw/
NLRr2K0Nla3DXF2bfjBPwhKLdXEUEbMeT8qicPSMPxH2+JIw0yEU3j1yLXvLEtx6RgeO5ghnjWQM
BIssTNxdCG4/FsWVSRvShGSDZEbsjttOgNvEec32F/3fN4f6+TblX9G2/wDPN/yPm/5rxVuKwgim
EymQuFKAvJI+zEE7OzfyjFURTFXUxVINZ8t3F1dPd2lwsckgX1I5ELglRxqCGSmwGVyx2WjLgEza
BXy1ry/7vg/5Ft/1UweEwGlHe3PpOv21tLN6lu3pIz09Nt+Ir/vzD4bIacd6LTTPMK/t2/8AyLb/
AKqYeBIwDvVktfMS/tW3/AN/1Uw8LIYlyadqk17b3F2Yv3FePpgqKEqzbEtUngMIDOMaTmmFk6mK
upirqYq6mKupirqYqirH9v6P44quvP2Pp/hiqGpirqYq6mKupirqYq6mKsW85j/StP8A9Sf9cWU5
uTiavkEhOn2M9u1vLAhhdWVkAps4o1CKEV9sqDhgrbLyh5Zt5454dNgSSJIo4yF2VIEMcaAdOKqx
oPp65Ky2iRTPQLWzFiDHaQwKZZP3ccIhX4JGVW4HvQde/XJM04+oWM8YimtopYtv3borLsQRsRT9
kYQzChqmn2dnoMkFjBFaRerbkJCiotRNGo+FQo+yoHyyYboc0y06zuPqaH65IgJYqiMkqqpYkKHk
RnPEbbnbJtyJ+p3H/LbN/wADD/1TxV31O4/5bZv+Bh/6p4q76ncf8ts3/Aw/9U8Vd9TuP+W2b/gY
f+qeKu+p3H/LbN/wMP8A1TxV31O4/wCW2b/gYf8AqniqybTpZYXie9mKSKVYUh6MKHpHiqUee/OV
t5R0m31S6iM1tJdw2soUgMqy1HIVotaj9ogeJAxVIx+bljbiSXVLI28JZvqyxSF5BHGtzI8ly00d
tbQ8Fsn5BZ34t8LUOKrvLf5rReYPMp06w0q4fSpIVe31MtEpMot1uZEeFnWReIlRBQH4q/s74qhZ
Pz48lDT1uYluHuZLee5isWEKy/uLVb0K/wC8IT1LeQSKSadiQ/w4qjz+atgNVsLZtLvY7K9uLixN
46xUS5hvbawXkiyM3ptcXYTlStaEAr8QVW3v5x+U7G6EF3Hdwo01zBHcNGnB2tLhbRyBz9SjXMix
LVQSTWnH4sVQy/nl5Q9KR3tNTSRWRIbf6r6ks7MWqIkiaQsUVC5rTbpU7Yqmd3+ZemQWsF0lldTx
zXMtkIEVfrRnjuYrVVEJb4eUs42kZGA3IxVkuj6nbatpNlqlqHFtf28V1AJF4uI5kEi8l7GjbjFU
ZTFUTZ/t/R/HFW7ofY+n+GKoemKupirqYq6mKupirqYqxXzoP9J0/wD1J/1xZTm5OJq+QSiHKXCC
OhyQbAs8u0/R4oQR609OIcD+/f8A358X+e22TbU9hwswoeYFDaPIp2rLb9P+M6ZMNsOaOsNJgS0j
q8lWq54SSRL8ZL0CIyqOvYZNvRH6Nt/55v8AkfN/zXirv0bb/wA83/I+b/mvFXfo23/nm/5Hzf8A
NeKu/Rtv/PN/yPm/5rxVC3smhWDIt9fi1aQEoJ7ySMsB1pykFcUEgIb9LeUf+rzB/wBxA/8AVXFe
IIbUda8uR2xa21aBpCePL6+5KchQOFVnLcTTanTFeIIqTWfKmoWccepXWmycgGktpJ4JkVyKEfFs
aVIrTFbCjGfy8SSWSM6Qsk/986/VgX+Bo/iI6/A7Lv2JHfFbCM0rTfKZEcuk2tgVtnLRSWiQ0jkZ
PTJUxj4WMZ4/LbpilZY+S/KVjZW1lbaPZpbWaNHboYUcqroI3+JgzEuqgOSat3riqLXQNDWUzLp1
qJSUJkEMfImIo0e/GvwGGMr4cV8Biq2fy55fuLo3dxplpNdFuZuJII2k5cBHy5lSa8AF+W2Kuby7
oDRtG2mWjRvQOhgjKtxYOKjjvRlB+YxVUj0XSIoooY7G3SKBucEaxIFRi4k5IAKKeahqjvviqJhg
hghSGFFihiUJHGgCqqqKBVA2AAxVfTFURaj7f0fxxVu5H2fpxVQpirqYq6mKupirqYq6mKsV87D/
AEnT/wDUn/XFlObk4mr5BJLZ0dFdGDIwDKymoIO4IIylwgjlLhGKKGcAlVJoCewrvTJhtDej8IVN
qZVd+UksfxMXaN35k8XAcBGfh9GTIbpCjsnUbKo5MQAOpOwxCQoa9J/uGZ0HqAyW5XiRuDOnQkgZ
MNsOaa2t1cfVYf8AQZj8C78ofAf8WZNvVfrVx/ywz/8ABQ/9VMVd9auP+WGf/gof+qmKu+tXH/LD
P/wUP/VTFVG71Ke3tZrg2UgEMbSEu8Kp8IJ+Jg7EDbc0OKvJ/N9y9x5s1CRgy0MSKrb0UQofhr+y
SSw+de+Zmn+l57tT+9+DDdY84zaNq0sE1k8tjFbRT84qNI7SyNHxUEqPh4g/57zlOi1YcHFG73tH
Wfn20udSsbC2tZRJdXU1s7ygIqiBauVqQW3psBUdTSoyPG2jAQCSeiMufPw03U9Qs7ywlJglEdgs
XEtcKtuk7lSzKtQZAKdqivXaJk2ww2AQWT+XPMttq888MUEsD2yoZln4qwZ61UKGJYKVpzHwE1AJ
oaC2XBTIbC4mh8x2KxsVWaGVZV7MBJCBX5czT55Vkc7SdWb0ypzHUxV1MVdTFXUxV1MVdTFVe2H2
voxVucfZ+nFVKmKupirqYq6mKupirqYqxPzuP9J07/Un/XFlWbk4mr5B5Jp35e+atO0iOztvM003
1eKRIoOM0SkfVmhiRXM8rIBIxkbrvQJwCrSviHc0eICeS7TfJH5iC+tZLvW3EUcdos5ivbs1KxBb
tOL1BViCsbn94C3MnYLkrDZxx7mUy+VdU1XV/wBOwakdKum+r280UBmmR4bSWcyJUm1IMjS0+zQc
a/Fy2IKRKhSpafl9rkNtZwv5gm1FLRrZzFeGZg7W9xDcOxczOxMrRMD6ok4ggJxoeRtmJJvY6Pe6
J5Untr2WN/8ASYJI1iaVkjQyQj019Q0VVYNxCKq8abcuTGQbIndl9jqURtIw8UyOlY2URPIKxkps
8YdDXj2OTbkR+kLf+Sf/AKR5/wDmjFV8F3BO7RpzDoAzK8bxmjVAPxqv8pxVXpirqYq8r84aFNc+
ar+eO5WMOYqo0ZfcQRjqHXw8MI1JhtTp9dgEslnuQUPlu7H/AB+R/wDIk/8AVXD+dPc4w0o70X/h
eeaMxS3MMkTijI9uWUj3Bkx/Nk9G6OmA6o6y8sTwRLFBcQRRJ9mNLcqo77AS0x/M+TYNOO9ModBv
v+WyL/kQ3/VXHxz3No0472102e18waY8s6y1WRVCRlKfvYSa1d64DPicrBj4bZrTA5DqYq6mKupi
rqYq6mKupiqrAPtfRircv7OKqdMVdTFXUxV1MVdTFXUxViXnn/enTv8AUn/XFlObk4mr5BJIcpcI
IxXVELt9lQSaAk0G/QZMNodoMBt7V7dlKOk0zsvpmL++laZTxJPVZAa1367dMkQ2kEHdPIcLIKOu
/wDHJf8A4y2//J9MmG2HNPtPhiisoEjQInANxUACrfETQeJNcm3oimKoWMf7lLj/AIwQf8TlxVFU
xV1MVYD5i/5SC8+cf/JpMx8vN12q+v4KEXbIBpDWsJz0S/Tjz5W8o48BLWqHbgSA3yyQbY808hyQ
ZhGw5INgQt9/x3NJ/wCen/JyHJxb8bJ6ZJsdTFXUxV1MVdTFXUxV1MVVIv2sVXSdsVWUxV1MVdTF
XUxV1MVdTFWI+ev96dO/1Z/1xZTm5OJq+QSKHKXCDG9e81eZ9OudTTT9LN8LcQR6dEIz++mcCSUG
QS8vhiDn+6pt9qu2WAORCIKIPni4txfrDbIEjtLu40oOsgM7wRRyxpuf2g529slTZVvRIcVCjrv/
AByX/wCMtv8A8n0yYbYc2R2Y/wBEg/4xr/xEZNvVqYqhIx/uUuP+MEH/ABOXFUXTFXUxV5/5k/5S
C8+cf/JpMx8vN12q+v4IeLtkA0h2pwPc6Zc2kaCSa6ieGKMqzqzupADBSDQ/MZOIbsYJOyc2siSR
q6VKsKgkEbfI4WdUj4ckGYQt9/x3NJ/56f8AJyHJxb8bKqZJsdTFXUxV1MVdTFXUxV1MVXx98VbY
dMVW0xV1MVdTFXUxV1MVdTFUm8yeXpNWSFoZxBPb8+BdPUVg9KggMhG6Dev0ZGcbasuLjFMcTyj5
lX/dkB/55/8AX3IeE0/lB3qyeWvMy/tQH/Yf9fcfDZDTeasmh+Zl/wB8H/YH/qrh4GXgeasmmeZ1
/Ztz/sT/ANVcPAnwnXGk+YrmIQzrD6XJWYIOJJQhl3Lt+0AckAzEKZNBEY4I4zQlFVSfkKYWapTF
ULGP9ylx/wAYIP8AicuKoqmKupirA/NlndwavPdNBI1tNwKSxo0g2RUIPAGhqvfKckSS4WoxSMrA
SqO7jHWOb/kTL/zTkOAtQwz7kQ2oWaxMZRKsajkzejMKcd61C7U61yQiWccch0RsOq2SgCkoA2A9
Cb/mjDwlmMcu5GRa3p46mX/kRN/zRkqLMQLQuor7WtOe35FISQ5ZGTd3jIoGAOwjNckA3QFMxpkm
bqYq6mKupirqYq6mKupiq5R1xVsjFWqYq6mKupirqYq6mKupirqYq6mKupirqYq6mKupirqYq6mK
oOSK+S+kngjikjkijT45GQgozk7BH2+MYqu56r/yzQf8j3/6pYq7nqv/ACzQf8j3/wCqWKtFtTYE
G2tyD1Bnf/qjiqz0b3/lhtf+Rrf9UcVUbuzvbi1mg+p2qeqjJy9VjTkCK09EYqmH1W3/AN9J/wAC
MVd9Vt/99J/wIxVcsEKGqxqp8QAMVXUxV1MVdTFXUxV1MVdTFXUxVsDFXb4q7fFXb4q7fFXb4q7f
FXb4q7fFXb4q7fFXb4q7fFXb4q7fFXb4q7fFXb4q7fFXb4q7fFXb4q7fFXb4q7fFXb4q7fFXb4q7
fFXb4q7fFXb4q7fFX//Z</xapGImg:image>
    </rdf:li>
   </rdf:Alt>
  </xap:Thumbnails>
 </rdf:Description>

 <rdf:Description rdf:about="uuid:8abfd13b-6f04-11e4-ba9b-000d933a9528" xmlns:xapMM="http://ns.adobe.com/xap/1.0/mm/">
  <xapMM:DocumentID>uuid:ccfd6a0c-6996-11e4-baf7-000d933a9528</xapMM:DocumentID>
 </rdf:Description>

 <rdf:Description rdf:about="uuid:8abfd13b-6f04-11e4-ba9b-000d933a9528" xmlns:dc="http://purl.org/dc/elements/1.1/">
  <dc:format>image/svg+xml</dc:format>
 </rdf:Description>

</rdf:RDF>
</x:xmpmeta>
                                                                                                                                                                                                                                                                                                                                                                                                                                                                                                                                                                                                                                                                                                                                                                                                                                                                                                                                                                                                                                                                                                                                                                                                                                                                                                                                                                                                                                                                                                                                                                                                                                                                                                                                                                                                                                                                                                                                                                                                                                                                                                                                <?xpacket end='w'?>
			</metadata>
		<g id="Layer_1" i:layer="yes" i:dimmedPercent="50" i:rgbTrio="#4F008000FFFF">
			<linearGradient id="XMLID_8_" gradientUnits="userSpaceOnUse" x1="347.5635" y1="-306.5312" x2="347.5634" y2="367.3533">
				<stop offset="0" style="stop-color:#C2C2C2"/>
				<stop offset="0.3258" style="stop-color:#D9D9D9"/>
				<stop offset="1" style="stop-color:#FFFFFF"/>
				<a:midPointStop offset="0" style="stop-color:#C2C2C2"/>
				<a:midPointStop offset="0.5" style="stop-color:#C2C2C2"/>
				<a:midPointStop offset="0.3258" style="stop-color:#D9D9D9"/>
				<a:midPointStop offset="0.5" style="stop-color:#D9D9D9"/>
				<a:midPointStop offset="1" style="stop-color:#FFFFFF"/>
			</linearGradient>
			<rect x="11.344" y="52.164" i:knockout="Off" fill="url(#XMLID_8_)" width="672.44" height="316.17"/> 
			<g i:knockout="Off">
				<path i:knockout="Off" d="M37.866,26.476v8.514c0,2.574,0.99,3.872,2.684,3.872c1.761,0,2.729-1.232,2.729-3.872v-8.514h3.344      v8.316c0,4.576-2.31,6.754-6.182,6.754c-3.74,0-5.918-2.09-5.918-6.798v-8.272H37.866z"/>
				<path i:knockout="Off" d="M49.109,38.4c0.615,0.374,1.892,0.792,2.882,0.792c1.012,0,1.43-0.33,1.43-0.88      c0-0.572-0.33-0.836-1.562-1.254c-2.244-0.726-3.103-1.958-3.08-3.212c0-2.024,1.716-3.542,4.378-3.542      c1.254,0,2.354,0.308,3.014,0.638l-0.572,2.288c-0.483-0.242-1.43-0.594-2.332-0.594c-0.813,0-1.275,0.33-1.275,0.858      c0,0.528,0.418,0.792,1.738,1.254c2.046,0.682,2.882,1.738,2.903,3.3c0,2.024-1.562,3.498-4.642,3.498      c-1.408,0-2.662-0.33-3.477-0.77L49.109,38.4z"/>
				<path i:knockout="Off" d="M61.252,36.97c0.11,1.408,1.474,2.068,3.036,2.068c1.144,0,2.067-0.154,2.97-0.462l0.44,2.266      c-1.101,0.462-2.442,0.682-3.895,0.682c-3.651,0-5.742-2.112-5.742-5.5c0-2.728,1.717-5.742,5.435-5.742      c3.476,0,4.796,2.706,4.796,5.368c0,0.572-0.066,1.078-0.11,1.342L61.252,36.97z M65.19,34.682c0-0.792-0.352-2.178-1.869-2.178      c-1.431,0-2.002,1.298-2.091,2.178H65.19z"/>
				<path i:knockout="Off" d="M70.317,34.088c0-1.584-0.022-2.618-0.088-3.542h2.859l0.132,2.002h0.089      c0.55-1.584,1.848-2.244,2.903-2.244c0.309,0,0.462,0.022,0.704,0.066v3.146c-0.286-0.044-0.55-0.088-0.924-0.088      c-1.232,0-2.068,0.638-2.288,1.694c-0.044,0.22-0.066,0.462-0.066,0.748v5.434h-3.344L70.317,34.088z"/>
				<path i:knockout="Off" d="M78.633,38.4c0.615,0.374,1.892,0.792,2.882,0.792c1.012,0,1.43-0.33,1.43-0.88      c0-0.572-0.33-0.836-1.562-1.254c-2.244-0.726-3.103-1.958-3.08-3.212c0-2.024,1.716-3.542,4.378-3.542      c1.254,0,2.354,0.308,3.014,0.638l-0.572,2.288c-0.483-0.242-1.43-0.594-2.332-0.594c-0.813,0-1.275,0.33-1.275,0.858      c0,0.528,0.418,0.792,1.737,1.254c2.047,0.682,2.883,1.738,2.904,3.3c0,2.024-1.562,3.498-4.642,3.498      c-1.408,0-2.662-0.33-3.477-0.77L78.633,38.4z"/>
				<path i:knockout="Off" d="M88.202,34.154c0-1.408-0.044-2.596-0.088-3.608h2.904l0.153,1.496h0.044      c0.793-1.122,2.024-1.738,3.587-1.738c2.354,0,4.466,2.046,4.466,5.478c0,3.916-2.486,5.764-4.884,5.764      c-1.299,0-2.311-0.528-2.795-1.232h-0.044v5.346h-3.344V34.154z M91.545,36.684c0,0.264,0.022,0.484,0.066,0.704      c0.22,0.902,0.99,1.584,1.958,1.584c1.452,0,2.31-1.21,2.31-3.036c0-1.716-0.77-3.014-2.266-3.014      c-0.946,0-1.782,0.704-2.002,1.694c-0.044,0.176-0.066,0.396-0.066,0.594V36.684z"/>
				<path i:knockout="Off" d="M110.312,38.708c0,1.012,0.044,2.002,0.176,2.596h-3.014l-0.198-1.078h-0.065      c-0.704,0.858-1.805,1.32-3.08,1.32c-2.179,0-3.477-1.584-3.477-3.3c0-2.794,2.508-4.114,6.314-4.114V34      c0-0.572-0.309-1.386-1.958-1.386c-1.101,0-2.267,0.374-2.97,0.792l-0.616-2.134c0.748-0.418,2.222-0.968,4.18-0.968      c3.586,0,4.708,2.112,4.708,4.642V38.708z M107.078,36.222c-1.76,0-3.124,0.418-3.124,1.694c0,0.858,0.572,1.276,1.32,1.276      c0.814,0,1.519-0.55,1.738-1.232c0.044-0.176,0.065-0.374,0.065-0.572V36.222z"/>
				<path i:knockout="Off" d="M121.048,41.04c-0.594,0.286-1.716,0.506-2.992,0.506c-3.476,0-5.698-2.134-5.698-5.522      c0-3.146,2.156-5.72,6.16-5.72c0.88,0,1.849,0.154,2.552,0.418l-0.527,2.486c-0.396-0.176-0.99-0.33-1.87-0.33      c-1.76,0-2.904,1.254-2.882,3.014c0,1.98,1.319,3.036,2.947,3.036c0.792,0,1.408-0.132,1.914-0.352L121.048,41.04z"/>
				<path i:knockout="Off" d="M125.228,36.97c0.11,1.408,1.474,2.068,3.036,2.068c1.144,0,2.067-0.154,2.97-0.462l0.44,2.266      c-1.101,0.462-2.442,0.682-3.895,0.682c-3.651,0-5.742-2.112-5.742-5.5c0-2.728,1.717-5.742,5.435-5.742      c3.476,0,4.796,2.706,4.796,5.368c0,0.572-0.066,1.078-0.11,1.342L125.228,36.97z M129.166,34.682      c0-0.792-0.352-2.178-1.869-2.178c-1.431,0-2.002,1.298-2.091,2.178H129.166z"/>
				<path i:knockout="Off" d="M34.522,62.476h3.322v6.556h0.044c0.329-0.572,0.682-1.1,1.033-1.628l3.345-4.928h4.136l-4.906,6.314      l5.148,8.514H42.75l-3.651-6.402l-1.254,1.562v4.84h-3.322V62.476z"/>
				<path i:knockout="Off" d="M50.124,72.97c0.11,1.408,1.474,2.068,3.036,2.068c1.144,0,2.067-0.154,2.97-0.462l0.44,2.266      c-1.101,0.462-2.442,0.682-3.895,0.682c-3.651,0-5.742-2.112-5.742-5.5c0-2.728,1.717-5.742,5.435-5.742      c3.476,0,4.796,2.706,4.796,5.368c0,0.572-0.066,1.078-0.11,1.342L50.124,72.97z M54.061,70.682      c0-0.792-0.352-2.178-1.869-2.178c-1.431,0-2.002,1.298-2.091,2.178H54.061z"/>
				<path i:knockout="Off" d="M59.187,70.088c0-1.584-0.022-2.618-0.088-3.542h2.859l0.132,2.002h0.088      c0.551-1.584,1.849-2.244,2.904-2.244c0.309,0,0.462,0.022,0.704,0.066v3.146c-0.286-0.044-0.55-0.088-0.924-0.088      c-1.232,0-2.068,0.638-2.288,1.694c-0.044,0.22-0.066,0.462-0.066,0.748v5.434h-3.344L59.187,70.088z"/>
				<path i:knockout="Off" d="M67.503,69.978c0-1.342-0.044-2.464-0.088-3.432h2.904l0.153,1.496h0.066      c0.44-0.704,1.518-1.738,3.322-1.738c2.2,0,3.85,1.474,3.85,4.642v6.358h-3.344v-5.962c0-1.386-0.484-2.332-1.694-2.332      c-0.924,0-1.474,0.638-1.716,1.254c-0.088,0.22-0.11,0.528-0.11,0.836v6.204h-3.344V69.978z"/>
				<path i:knockout="Off" d="M82.969,72.97c0.11,1.408,1.474,2.068,3.036,2.068c1.144,0,2.067-0.154,2.97-0.462l0.44,2.266      c-1.101,0.462-2.442,0.682-3.895,0.682c-3.651,0-5.742-2.112-5.742-5.5c0-2.728,1.717-5.742,5.435-5.742      c3.476,0,4.796,2.706,4.796,5.368c0,0.572-0.066,1.078-0.11,1.342L82.969,72.97z M86.907,70.682      c0-0.792-0.352-2.178-1.869-2.178c-1.431,0-2.002,1.298-2.091,2.178H86.907z"/>
				<path i:knockout="Off" d="M92.011,61.684h3.344v15.62h-3.344V61.684z"/>
			</g>
			<g i:knockout="On" a:adobe-knockout="true">
				<g i:knockout="On">
					
						<line i:knockout="Off" fill="#FFFFFF" stroke="#000000" a:adobe-knockout="false" x1="337.075" y1="179.391" x2="337.075" y2="96.566"/>
				</g>
			</g>
			<g i:knockout="Off">
				<path i:knockout="Off" d="M473.154,214.117h0.036c0.216-0.306,0.504-0.702,0.756-0.99l2.574-3.006h1.89l-3.365,3.582l3.834,5.13      h-1.926l-2.988-4.194l-0.811,0.918v3.276h-1.584v-12.78h1.584V214.117z"/>
				<path i:knockout="Off" d="M489.318,218.292c-0.702,0.27-2.105,0.666-3.744,0.666c-1.836,0-3.348-0.468-4.536-1.602      c-1.044-1.008-1.692-2.628-1.692-4.518c0-3.618,2.502-6.264,6.57-6.264c1.404,0,2.521,0.306,3.043,0.558l-0.396,1.278      c-0.648-0.306-1.458-0.522-2.682-0.522c-2.953,0-4.879,1.836-4.879,4.878c0,3.078,1.836,4.896,4.68,4.896      c1.027,0,1.729-0.144,2.089-0.324v-3.618h-2.448v-1.26h3.996V218.292z"/>
				<path i:knockout="Off" d="M491.693,212.838c0-1.026-0.018-1.908-0.072-2.718h1.387l0.072,1.71h0.053      c0.396-1.17,1.369-1.908,2.431-1.908c0.162,0,0.288,0.018,0.433,0.054v1.476c-0.181-0.018-0.343-0.036-0.559-0.036      c-1.116,0-1.908,0.846-2.124,2.016c-0.036,0.234-0.054,0.486-0.054,0.756v4.644h-1.584L491.693,212.838z"/>
				<path i:knockout="Off" d="M503.593,216.745c0,0.756,0.036,1.494,0.126,2.088h-1.422l-0.144-1.098h-0.055      c-0.468,0.684-1.422,1.296-2.664,1.296c-1.764,0-2.664-1.242-2.664-2.502c0-2.106,1.872-3.258,5.238-3.24v-0.18      c0-0.72-0.198-2.034-1.98-2.016c-0.828,0-1.674,0.234-2.285,0.648l-0.36-1.062c0.72-0.45,1.782-0.756,2.88-0.756      c2.682,0,3.33,1.818,3.33,3.564V216.745z M502.044,214.387c-1.727-0.036-3.689,0.27-3.689,1.962      c0,1.044,0.684,1.512,1.477,1.512c1.151,0,1.89-0.72,2.142-1.458c0.054-0.162,0.071-0.342,0.071-0.504V214.387z"/>
				<path i:knockout="Off" d="M506.275,218.833v-7.506h-1.205v-1.206h1.205v-0.414c0-1.224,0.289-2.34,1.026-3.042      c0.595-0.576,1.386-0.81,2.106-0.81c0.576,0,1.043,0.126,1.35,0.252l-0.197,1.224c-0.252-0.108-0.559-0.198-1.027-0.198      c-1.332,0-1.691,1.188-1.691,2.52v0.468h2.105v1.206h-2.088v7.506H506.275z"/>
				<path i:knockout="Off" d="M513.494,208.032v2.088h2.268v1.206h-2.268v4.698c0,1.08,0.305,1.692,1.188,1.692      c0.432,0,0.684-0.036,0.918-0.108l0.072,1.206c-0.307,0.108-0.793,0.216-1.404,0.216c-0.738,0-1.332-0.252-1.71-0.666      c-0.433-0.486-0.612-1.26-0.612-2.286v-4.752h-1.35v-1.206h1.35v-1.602L513.494,208.032z"/>
				<path i:knockout="Off" d="M521.359,212.964c0-1.116-0.019-2.016-0.072-2.844h1.422l0.09,1.494h0.036      c0.63-1.08,1.674-1.692,3.078-1.692c2.124,0,3.708,1.782,3.708,4.428c0,3.132-1.926,4.68-3.96,4.68      c-1.171,0-2.16-0.504-2.683-1.368h-0.035v4.734h-1.584V212.964z M522.943,215.287c0,0.216,0.018,0.45,0.072,0.648      c0.27,1.098,1.241,1.854,2.357,1.854c1.674,0,2.646-1.368,2.646-3.366c0-1.746-0.9-3.24-2.574-3.24      c-1.08,0-2.106,0.756-2.412,1.944c-0.036,0.216-0.09,0.45-0.09,0.648V215.287z"/>
				<path i:knockout="Off" d="M537.738,216.745c0,0.756,0.037,1.494,0.127,2.088h-1.422l-0.145-1.098h-0.055      c-0.467,0.684-1.422,1.296-2.664,1.296c-1.764,0-2.664-1.242-2.664-2.502c0-2.106,1.873-3.258,5.238-3.24v-0.18      c0-0.72-0.197-2.034-1.979-2.016c-0.828,0-1.675,0.234-2.286,0.648l-0.359-1.062c0.719-0.45,1.781-0.756,2.879-0.756      c2.683,0,3.33,1.818,3.33,3.564V216.745z M536.19,214.387c-1.728-0.036-3.69,0.27-3.69,1.962c0,1.044,0.685,1.512,1.477,1.512      c1.152,0,1.891-0.72,2.143-1.458c0.054-0.162,0.071-0.342,0.071-0.504V214.387z"/>
				<path i:knockout="Off" d="M542.114,208.032v2.088h2.269v1.206h-2.269v4.698c0,1.08,0.306,1.692,1.188,1.692      c0.432,0,0.684-0.036,0.918-0.108l0.071,1.206c-0.306,0.108-0.792,0.216-1.403,0.216c-0.738,0-1.332-0.252-1.711-0.666      c-0.432-0.486-0.611-1.26-0.611-2.286v-4.752h-1.35v-1.206h1.35v-1.602L542.114,208.032z"/>
				<path i:knockout="Off" d="M552.268,218.526c-0.414,0.198-1.332,0.504-2.502,0.504c-2.628,0-4.338-1.782-4.338-4.464      s1.836-4.644,4.681-4.644c0.936,0,1.764,0.234,2.195,0.468l-0.359,1.206c-0.379-0.198-0.973-0.414-1.836-0.414      c-1.998,0-3.078,1.494-3.078,3.312c0,2.016,1.295,3.258,3.023,3.258c0.9,0,1.494-0.216,1.943-0.414L552.268,218.526z"/>
				<path i:knockout="Off" d="M554.123,206.052h1.584v5.436h0.035c0.252-0.45,0.648-0.864,1.135-1.116      c0.468-0.288,1.025-0.45,1.619-0.45c1.17,0,3.043,0.72,3.043,3.726v5.184h-1.584v-5.004c0-1.422-0.522-2.592-2.017-2.592      c-1.026,0-1.817,0.72-2.124,1.584c-0.09,0.216-0.107,0.45-0.107,0.756v5.256h-1.584V206.052z"/>
				<path i:knockout="Off" d="M574.138,218.526c-0.414,0.198-1.332,0.504-2.502,0.504c-2.629,0-4.338-1.782-4.338-4.464      s1.836-4.644,4.68-4.644c0.936,0,1.764,0.234,2.195,0.468l-0.359,1.206c-0.378-0.198-0.973-0.414-1.836-0.414      c-1.998,0-3.078,1.494-3.078,3.312c0,2.016,1.296,3.258,3.023,3.258c0.9,0,1.494-0.216,1.944-0.414L574.138,218.526z"/>
				<path i:knockout="Off" d="M579.432,219.03c-2.34,0-4.176-1.728-4.176-4.482c0-2.916,1.926-4.626,4.319-4.626      c2.502,0,4.195,1.818,4.195,4.464c0,3.24-2.25,4.644-4.32,4.644H579.432z M579.486,217.842c1.513,0,2.646-1.422,2.646-3.402      c0-1.476-0.738-3.33-2.609-3.33c-1.854,0-2.664,1.728-2.664,3.384c0,1.908,1.08,3.348,2.609,3.348H579.486z"/>
				<path i:knockout="Off" d="M585.768,212.479c0-0.918-0.036-1.638-0.071-2.358h1.385l0.072,1.404h0.055      c0.486-0.828,1.295-1.602,2.754-1.602c1.17,0,2.07,0.72,2.447,1.746h0.037c0.27-0.504,0.629-0.864,0.989-1.134      c0.522-0.396,1.08-0.612,1.908-0.612c1.17,0,2.88,0.756,2.88,3.78v5.13h-1.548V213.9c0-1.692-0.63-2.682-1.89-2.682      c-0.918,0-1.603,0.666-1.891,1.422c-0.072,0.234-0.126,0.522-0.126,0.792v5.4h-1.548v-5.22c0-1.404-0.611-2.394-1.818-2.394      c-0.972,0-1.709,0.792-1.962,1.584c-0.09,0.234-0.126,0.504-0.126,0.774v5.256h-1.548V212.479z"/>
				<path i:knockout="Off" d="M601.68,214.747c0.036,2.142,1.386,3.024,2.97,3.024c1.135,0,1.836-0.198,2.412-0.432l0.289,1.116      c-0.559,0.252-1.531,0.558-2.916,0.558c-2.664,0-4.285-1.782-4.285-4.392c0-2.646,1.566-4.716,4.104-4.716      c2.844,0,3.582,2.502,3.582,4.104c0,0.324-0.019,0.576-0.054,0.756L601.68,214.747z M606.306,213.612      c0.018-0.99-0.414-2.574-2.178-2.574c-1.62,0-2.305,1.476-2.43,2.574H606.306z"/>
				<path i:knockout="Off" d="M609.583,217.23c0.485,0.288,1.313,0.612,2.106,0.612c1.133,0,1.674-0.558,1.674-1.296      c0-0.756-0.45-1.17-1.603-1.602c-1.584-0.576-2.321-1.422-2.321-2.466c0-1.404,1.151-2.556,3.006-2.556      c0.881,0,1.656,0.234,2.123,0.54l-0.377,1.134c-0.342-0.198-0.973-0.504-1.783-0.504c-0.936,0-1.439,0.54-1.439,1.188      c0,0.738,0.504,1.062,1.639,1.494c1.494,0.558,2.285,1.314,2.285,2.628c0,1.548-1.205,2.628-3.24,2.628      c-0.953,0-1.836-0.252-2.447-0.612L609.583,217.23z"/>
				<path i:knockout="Off" d="M621.498,208.519c-0.594,0-0.99-0.468-0.99-1.026c0-0.558,0.414-1.008,1.026-1.008      s1.009,0.45,1.009,1.008c0,0.558-0.396,1.026-1.027,1.026H621.498z M620.742,218.833v-8.712h1.584v8.712H620.742z"/>
				<path i:knockout="Off" d="M624.954,212.479c0-0.918-0.019-1.638-0.071-2.358h1.403l0.09,1.422h0.036      c0.432-0.81,1.439-1.62,2.88-1.62c1.206,0,3.078,0.72,3.078,3.708v5.202h-1.584v-5.022c0-1.404-0.522-2.592-2.017-2.592      c-1.025,0-1.836,0.738-2.123,1.62c-0.072,0.198-0.108,0.486-0.108,0.738v5.256h-1.584V212.479z"/>
			</g>
			
				<rect x="0.005" y="0.005" i:knockout="Off" fill="none" stroke="#FCFCFC" stroke-width="0.01" width="695.117" height="379.667"/> 
			<g>
				<g>
					<path i:knockout="Off" fill="#CCCCCC" d="M284.007,335.709c0,3.118-2.551,5.669-5.669,5.669H177.176       c-3.118,0-5.669-2.551-5.669-5.669V134.362c0-3.118,2.551-5.669,5.669-5.669h101.162c3.118,0,5.669,2.551,5.669,5.669V335.709z       "/>
					<linearGradient id="XMLID_9_" gradientUnits="userSpaceOnUse" x1="-27.3066" y1="230.0361" x2="313.8173" y2="230.0361">
						<stop offset="0" style="stop-color:#169133"/>
						<stop offset="1" style="stop-color:#FFFFFF"/>
						<a:midPointStop offset="0" style="stop-color:#169133"/>
						<a:midPointStop offset="0.5" style="stop-color:#169133"/>
						<a:midPointStop offset="1" style="stop-color:#FFFFFF"/>
					</linearGradient>
					<path i:knockout="Off" fill="url(#XMLID_9_)" stroke="#000000" d="M277.007,330.709c0,3.118-2.551,5.669-5.669,5.669H170.176       c-3.118,0-5.669-2.551-5.669-5.669V129.362c0-3.118,2.551-5.669,5.669-5.669h101.162c3.118,0,5.669,2.551,5.669,5.669V330.709z       "/>
				</g>
				<linearGradient id="XMLID_10_" gradientUnits="userSpaceOnUse" x1="99.3018" y1="139.8584" x2="355.7579" y2="139.8584">
					<stop offset="0" style="stop-color:#169197"/>
					<stop offset="1" style="stop-color:#FFFFFF"/>
					<a:midPointStop offset="0" style="stop-color:#169197"/>
					<a:midPointStop offset="0.5" style="stop-color:#169197"/>
					<a:midPointStop offset="1" style="stop-color:#FFFFFF"/>
				</linearGradient>
				<path i:knockout="Off" fill="url(#XMLID_10_)" stroke="#000000" d="M164.507,156.024v-26.662c0-3.118,2.551-5.669,5.669-5.669      h101.162c3.118,0,5.669,2.551,5.669,5.669v26.662H164.507z"/>
			</g>
			<g i:knockout="Off">
				<path i:knockout="Off" d="M181.711,141.035h0.034c0.204-0.289,0.476-0.663,0.714-0.935l2.431-2.839h1.785l-3.179,3.383      l3.621,4.845h-1.819l-2.822-3.961l-0.765,0.867v3.094h-1.496v-12.07h1.496V141.035z"/>
				<path i:knockout="Off" d="M189.154,141.63c0.034,2.023,1.309,2.856,2.805,2.856c1.071,0,1.734-0.187,2.278-0.408l0.272,1.054      c-0.527,0.238-1.445,0.527-2.754,0.527c-2.516,0-4.046-1.683-4.046-4.148c0-2.499,1.479-4.454,3.876-4.454      c2.686,0,3.383,2.363,3.383,3.876c0,0.306-0.017,0.544-0.051,0.714L189.154,141.63z M193.523,140.559      c0.017-0.935-0.391-2.431-2.057-2.431c-1.53,0-2.176,1.394-2.295,2.431H193.523z"/>
				<path i:knockout="Off" d="M196.838,139.828c0-0.969-0.017-1.802-0.068-2.567h1.309l0.068,1.615h0.051      c0.374-1.105,1.292-1.802,2.295-1.802c0.153,0,0.272,0.017,0.408,0.051v1.394c-0.17-0.017-0.323-0.034-0.527-0.034      c-1.054,0-1.802,0.799-2.006,1.904c-0.034,0.221-0.051,0.459-0.051,0.714v4.386h-1.496L196.838,139.828z"/>
				<path i:knockout="Off" d="M202.447,139.488c0-0.867-0.017-1.547-0.068-2.227h1.326l0.085,1.343h0.034      c0.408-0.765,1.36-1.53,2.72-1.53c1.139,0,2.907,0.68,2.907,3.502v4.913h-1.496v-4.743c0-1.326-0.493-2.448-1.904-2.448      c-0.969,0-1.734,0.697-2.006,1.53c-0.068,0.187-0.102,0.459-0.102,0.697v4.964h-1.496V139.488z"/>
				<path i:knockout="Off" d="M212.731,141.63c0.034,2.023,1.309,2.856,2.805,2.856c1.071,0,1.734-0.187,2.278-0.408l0.272,1.054      c-0.527,0.238-1.445,0.527-2.754,0.527c-2.516,0-4.046-1.683-4.046-4.148c0-2.499,1.479-4.454,3.876-4.454      c2.686,0,3.383,2.363,3.383,3.876c0,0.306-0.017,0.544-0.051,0.714L212.731,141.63z M217.1,140.559      c0.017-0.935-0.391-2.431-2.057-2.431c-1.53,0-2.176,1.394-2.295,2.431H217.1z"/>
				<path i:knockout="Off" d="M220.398,133.419h1.496v12.07h-1.496V133.419z"/>
				<path i:knockout="Off" d="M231.635,146.764v0.85h-8.5v-0.85H231.635z"/>
				<path i:knockout="Off" d="M233.012,145.489V138.4h-1.139v-1.139h1.139v-0.391c0-1.156,0.272-2.21,0.969-2.873      c0.561-0.544,1.309-0.765,1.989-0.765c0.544,0,0.986,0.119,1.275,0.238l-0.187,1.156c-0.238-0.102-0.527-0.187-0.969-0.187      c-1.258,0-1.598,1.122-1.598,2.38v0.442h1.989v1.139h-1.972v7.089H233.012z"/>
				<path i:knockout="Off" d="M244.725,143.245c0,0.85,0.017,1.598,0.068,2.244h-1.326l-0.085-1.343h-0.034      c-0.374,0.663-1.258,1.53-2.72,1.53c-1.292,0-2.839-0.731-2.839-3.604v-4.811h1.496v4.539c0,1.564,0.493,2.635,1.836,2.635      c1.003,0,1.7-0.697,1.972-1.377c0.085-0.204,0.136-0.476,0.136-0.765v-5.032h1.496V143.245z"/>
				<path i:knockout="Off" d="M247.207,139.488c0-0.867-0.017-1.547-0.068-2.227h1.326l0.085,1.343h0.034      c0.408-0.765,1.36-1.53,2.72-1.53c1.139,0,2.907,0.68,2.907,3.502v4.913h-1.496v-4.743c0-1.326-0.493-2.448-1.904-2.448      c-0.969,0-1.734,0.697-2.006,1.53c-0.068,0.187-0.102,0.459-0.102,0.697v4.964h-1.496V139.488z"/>
				<path i:knockout="Off" d="M262.507,145.2c-0.391,0.187-1.258,0.476-2.363,0.476c-2.482,0-4.097-1.683-4.097-4.216      c0-2.533,1.734-4.386,4.42-4.386c0.884,0,1.666,0.221,2.074,0.442l-0.34,1.139c-0.357-0.187-0.918-0.391-1.734-0.391      c-1.887,0-2.907,1.411-2.907,3.128c0,1.904,1.224,3.077,2.856,3.077c0.85,0,1.411-0.204,1.836-0.391L262.507,145.2z"/>
			</g>
			<g i:knockout="Off">
				<path i:knockout="Off" d="M174.233,184.487h1.408v4.848h0.032c0.496-0.864,1.392-1.408,2.64-1.408c1.92,0,3.264,1.6,3.264,3.936      c0,2.784-1.76,4.16-3.488,4.16c-1.12,0-2-0.432-2.592-1.456h-0.032l-0.08,1.28h-1.216c0.048-0.528,0.064-1.312,0.064-2V184.487z       M175.641,192.743c0,0.176,0.016,0.352,0.048,0.512c0.272,0.976,1.104,1.648,2.112,1.648c1.488,0,2.352-1.2,2.352-2.976      c0-1.568-0.8-2.896-2.304-2.896c-0.96,0-1.856,0.672-2.128,1.728c-0.048,0.176-0.08,0.368-0.08,0.592V192.743z"/>
				<path i:knockout="Off" d="M189.816,193.735c0,0.8,0.016,1.504,0.064,2.112h-1.248l-0.08-1.264h-0.032      c-0.352,0.624-1.184,1.44-2.56,1.44c-1.216,0-2.672-0.688-2.672-3.392v-4.528h1.408v4.272c0,1.472,0.464,2.48,1.728,2.48      c0.944,0,1.6-0.656,1.856-1.296c0.08-0.192,0.128-0.448,0.128-0.72v-4.736h1.408V193.735z"/>
				<path i:knockout="Off" d="M198.777,194.711c0,1.792-0.368,2.864-1.104,3.552c-0.768,0.688-1.856,0.928-2.832,0.928      c-0.928,0-1.952-0.224-2.576-0.64l0.352-1.088c0.512,0.336,1.312,0.624,2.272,0.624c1.44,0,2.496-0.752,2.496-2.72v-0.848      h-0.032c-0.416,0.72-1.264,1.296-2.464,1.296c-1.92,0-3.296-1.632-3.296-3.792c0-2.624,1.712-4.096,3.504-4.096      c1.344,0,2.064,0.688,2.416,1.328h0.032l0.048-1.152h1.248c-0.048,0.544-0.064,1.168-0.064,2.112V194.711z M197.369,191.143      c0-0.224-0.016-0.432-0.08-0.624c-0.256-0.832-0.928-1.504-1.968-1.504c-1.344,0-2.304,1.136-2.304,2.944      c0,1.504,0.784,2.784,2.288,2.784c0.88,0,1.664-0.544,1.952-1.456c0.08-0.224,0.112-0.496,0.112-0.752V191.143z"/>
				<path i:knockout="Off" d="M207.72,194.711c0,1.792-0.368,2.864-1.104,3.552c-0.768,0.688-1.856,0.928-2.832,0.928      c-0.928,0-1.952-0.224-2.576-0.64l0.352-1.088c0.512,0.336,1.312,0.624,2.272,0.624c1.44,0,2.496-0.752,2.496-2.72v-0.848      h-0.032c-0.416,0.72-1.264,1.296-2.464,1.296c-1.92,0-3.296-1.632-3.296-3.792c0-2.624,1.712-4.096,3.504-4.096      c1.344,0,2.064,0.688,2.416,1.328h0.032l0.048-1.152h1.248c-0.048,0.544-0.064,1.168-0.064,2.112V194.711z M206.312,191.143      c0-0.224-0.016-0.432-0.08-0.624c-0.256-0.832-0.928-1.504-1.968-1.504c-1.344,0-2.304,1.136-2.304,2.944      c0,1.504,0.784,2.784,2.288,2.784c0.88,0,1.664-0.544,1.952-1.456c0.08-0.224,0.112-0.496,0.112-0.752V191.143z"/>
				<path i:knockout="Off" d="M210.537,188.103l1.68,4.576c0.192,0.512,0.384,1.12,0.512,1.584h0.032      c0.144-0.464,0.304-1.056,0.496-1.616l1.536-4.544h1.488l-2.112,5.52c-1.008,2.656-1.696,4.016-2.656,4.864      c-0.704,0.592-1.376,0.832-1.728,0.896l-0.352-1.184c0.352-0.096,0.816-0.32,1.232-0.688c0.384-0.304,0.848-0.848,1.184-1.568      c0.064-0.144,0.112-0.24,0.112-0.336c0-0.08-0.032-0.192-0.112-0.352l-2.848-7.152H210.537z"/>
				<path i:knockout="Off" d="M224.393,197.047v0.8h-8v-0.8H224.393z"/>
				<path i:knockout="Off" d="M225.688,195.847v-6.672h-1.072v-1.072h1.072v-0.368c0-1.088,0.256-2.08,0.912-2.704      c0.528-0.512,1.232-0.72,1.872-0.72c0.512,0,0.928,0.112,1.2,0.224l-0.176,1.088c-0.224-0.096-0.496-0.176-0.912-0.176      c-1.184,0-1.504,1.056-1.504,2.24v0.416h1.872v1.072h-1.856v6.672H225.688z"/>
				<path i:knockout="Off" d="M236.712,193.735c0,0.8,0.016,1.504,0.064,2.112h-1.248l-0.08-1.264h-0.032      c-0.352,0.624-1.184,1.44-2.56,1.44c-1.216,0-2.672-0.688-2.672-3.392v-4.528h1.408v4.272c0,1.472,0.464,2.48,1.728,2.48      c0.944,0,1.6-0.656,1.856-1.296c0.08-0.192,0.128-0.448,0.128-0.72v-4.736h1.408V193.735z"/>
				<path i:knockout="Off" d="M239.048,190.199c0-0.816-0.016-1.456-0.064-2.096h1.248l0.08,1.264h0.032      c0.384-0.72,1.28-1.44,2.56-1.44c1.072,0,2.736,0.64,2.736,3.296v4.624h-1.408v-4.464c0-1.248-0.464-2.304-1.792-2.304      c-0.912,0-1.632,0.656-1.888,1.44c-0.064,0.176-0.096,0.432-0.096,0.656v4.672h-1.408V190.199z"/>
				<path i:knockout="Off" d="M253.448,195.575c-0.368,0.176-1.184,0.448-2.224,0.448c-2.336,0-3.856-1.584-3.856-3.968      s1.632-4.128,4.16-4.128c0.832,0,1.568,0.208,1.952,0.416l-0.32,1.072c-0.336-0.176-0.864-0.368-1.632-0.368      c-1.776,0-2.736,1.328-2.736,2.944c0,1.792,1.152,2.896,2.688,2.896c0.8,0,1.328-0.192,1.728-0.368L253.448,195.575z"/>
				<path i:knockout="Off" d="M258.936,184.743c-1.168,1.584-2,3.648-2,6.56c0,2.848,0.88,4.88,2,6.48h-1.088      c-1.008-1.328-2.096-3.376-2.096-6.496c0.016-3.136,1.088-5.2,2.096-6.544H258.936z"/>
				<path i:knockout="Off" d="M261.192,197.783c1.12-1.584,2-3.648,2-6.528s-0.864-4.912-2-6.512h1.088      c1.008,1.312,2.096,3.376,2.096,6.512c-0.016,3.136-1.088,5.168-2.096,6.528H261.192z"/>
				<path i:knockout="Off" d="M265.688,197.814c0.352-0.944,0.784-2.656,0.96-3.824l1.552-0.16c-0.384,1.36-1.088,3.136-1.536,3.888      L265.688,197.814z M267.304,190.375c-0.544,0-0.928-0.432-0.928-0.992c0-0.592,0.4-1.008,0.944-1.008      c0.576,0,0.944,0.416,0.944,1.008c0,0.56-0.368,0.992-0.944,0.992H267.304z"/>
				<path i:knockout="Off" d="M174.233,259.887h1.408v4.848h0.032c0.496-0.864,1.392-1.408,2.64-1.408c1.92,0,3.264,1.6,3.264,3.936      c0,2.784-1.76,4.16-3.488,4.16c-1.12,0-2-0.432-2.592-1.456h-0.032l-0.08,1.28h-1.216c0.048-0.528,0.064-1.312,0.064-2V259.887z       M175.641,268.143c0,0.176,0.016,0.352,0.048,0.512c0.272,0.976,1.104,1.648,2.112,1.648c1.488,0,2.352-1.2,2.352-2.976      c0-1.568-0.8-2.896-2.304-2.896c-0.96,0-1.856,0.672-2.128,1.728c-0.048,0.176-0.08,0.368-0.08,0.592V268.143z"/>
				<path i:knockout="Off" d="M189.816,269.135c0,0.8,0.016,1.504,0.064,2.112h-1.248l-0.08-1.264h-0.032      c-0.352,0.624-1.184,1.44-2.56,1.44c-1.216,0-2.672-0.688-2.672-3.392v-4.528h1.408v4.272c0,1.472,0.464,2.48,1.728,2.48      c0.944,0,1.6-0.656,1.856-1.296c0.08-0.192,0.128-0.448,0.128-0.72v-4.736h1.408V269.135z"/>
				<path i:knockout="Off" d="M198.777,270.11c0,1.792-0.368,2.864-1.104,3.552c-0.768,0.688-1.856,0.928-2.832,0.928      c-0.928,0-1.952-0.224-2.576-0.64l0.352-1.088c0.512,0.336,1.312,0.624,2.272,0.624c1.44,0,2.496-0.752,2.496-2.72v-0.848      h-0.032c-0.416,0.72-1.264,1.296-2.464,1.296c-1.92,0-3.296-1.632-3.296-3.792c0-2.624,1.712-4.096,3.504-4.096      c1.344,0,2.064,0.688,2.416,1.328h0.032l0.048-1.152h1.248c-0.048,0.544-0.064,1.168-0.064,2.112V270.11z M197.369,266.542      c0-0.224-0.016-0.432-0.08-0.624c-0.256-0.832-0.928-1.504-1.968-1.504c-1.344,0-2.304,1.136-2.304,2.944      c0,1.504,0.784,2.784,2.288,2.784c0.88,0,1.664-0.544,1.952-1.456c0.08-0.224,0.112-0.496,0.112-0.752V266.542z"/>
				<path i:knockout="Off" d="M207.72,270.11c0,1.792-0.368,2.864-1.104,3.552c-0.768,0.688-1.856,0.928-2.832,0.928      c-0.928,0-1.952-0.224-2.576-0.64l0.352-1.088c0.512,0.336,1.312,0.624,2.272,0.624c1.44,0,2.496-0.752,2.496-2.72v-0.848      h-0.032c-0.416,0.72-1.264,1.296-2.464,1.296c-1.92,0-3.296-1.632-3.296-3.792c0-2.624,1.712-4.096,3.504-4.096      c1.344,0,2.064,0.688,2.416,1.328h0.032l0.048-1.152h1.248c-0.048,0.544-0.064,1.168-0.064,2.112V270.11z M206.312,266.542      c0-0.224-0.016-0.432-0.08-0.624c-0.256-0.832-0.928-1.504-1.968-1.504c-1.344,0-2.304,1.136-2.304,2.944      c0,1.504,0.784,2.784,2.288,2.784c0.88,0,1.664-0.544,1.952-1.456c0.08-0.224,0.112-0.496,0.112-0.752V266.542z"/>
				<path i:knockout="Off" d="M210.537,263.502l1.68,4.576c0.192,0.512,0.384,1.12,0.512,1.584h0.032      c0.144-0.464,0.304-1.056,0.496-1.616l1.536-4.544h1.488l-2.112,5.52c-1.008,2.656-1.696,4.016-2.656,4.864      c-0.704,0.592-1.376,0.832-1.728,0.896l-0.352-1.184c0.352-0.096,0.816-0.32,1.232-0.688c0.384-0.304,0.848-0.848,1.184-1.568      c0.064-0.144,0.112-0.24,0.112-0.336c0-0.08-0.032-0.192-0.112-0.352l-2.848-7.152H210.537z"/>
				<path i:knockout="Off" d="M224.393,272.447v0.8h-8v-0.8H224.393z"/>
				<path i:knockout="Off" d="M225.688,271.247v-6.672h-1.072v-1.072h1.072v-0.368c0-1.088,0.256-2.08,0.912-2.704      c0.528-0.512,1.232-0.72,1.872-0.72c0.512,0,0.928,0.112,1.2,0.224l-0.176,1.088c-0.224-0.096-0.496-0.176-0.912-0.176      c-1.184,0-1.504,1.056-1.504,2.24v0.416h1.872v1.072h-1.856v6.672H225.688z"/>
				<path i:knockout="Off" d="M236.712,269.135c0,0.8,0.016,1.504,0.064,2.112h-1.248l-0.08-1.264h-0.032      c-0.352,0.624-1.184,1.44-2.56,1.44c-1.216,0-2.672-0.688-2.672-3.392v-4.528h1.408v4.272c0,1.472,0.464,2.48,1.728,2.48      c0.944,0,1.6-0.656,1.856-1.296c0.08-0.192,0.128-0.448,0.128-0.72v-4.736h1.408V269.135z"/>
				<path i:knockout="Off" d="M239.048,265.599c0-0.816-0.016-1.456-0.064-2.096h1.248l0.08,1.264h0.032      c0.384-0.72,1.28-1.44,2.56-1.44c1.072,0,2.736,0.64,2.736,3.296v4.624h-1.408v-4.464c0-1.248-0.464-2.304-1.792-2.304      c-0.912,0-1.632,0.656-1.888,1.44c-0.064,0.176-0.096,0.432-0.096,0.656v4.672h-1.408V265.599z"/>
				<path i:knockout="Off" d="M253.448,270.975c-0.368,0.176-1.184,0.448-2.224,0.448c-2.336,0-3.856-1.584-3.856-3.968      s1.632-4.128,4.16-4.128c0.832,0,1.568,0.208,1.952,0.416l-0.32,1.072c-0.336-0.176-0.864-0.368-1.632-0.368      c-1.776,0-2.736,1.328-2.736,2.944c0,1.792,1.152,2.896,2.688,2.896c0.8,0,1.328-0.192,1.728-0.368L253.448,270.975z"/>
				<path i:knockout="Off" d="M258.936,260.143c-1.168,1.584-2,3.648-2,6.56c0,2.848,0.88,4.88,2,6.48h-1.088      c-1.008-1.328-2.096-3.376-2.096-6.496c0.016-3.136,1.088-5.2,2.096-6.544H258.936z"/>
				<path i:knockout="Off" d="M261.192,273.183c1.12-1.584,2-3.648,2-6.528s-0.864-4.912-2-6.512h1.088      c1.008,1.312,2.096,3.376,2.096,6.512c-0.016,3.136-1.088,5.168-2.096,6.528H261.192z"/>
				<path i:knockout="Off" d="M265.688,273.214c0.352-0.944,0.784-2.656,0.96-3.824l1.552-0.16c-0.384,1.36-1.088,3.136-1.536,3.888      L265.688,273.214z M267.304,265.774c-0.544,0-0.928-0.432-0.928-0.992c0-0.592,0.4-1.008,0.944-1.008      c0.576,0,0.944,0.416,0.944,1.008c0,0.56-0.368,0.992-0.944,0.992H267.304z"/>
				<path i:knockout="Off" d="M202.584,313.463h5.808v1.168h-4.4v3.584h4.064v1.152h-4.064v4.88h-1.408V313.463z"/>
				<path i:knockout="Off" d="M212.49,320.854l-1.12,3.392h-1.44l3.664-10.784h1.68l3.68,10.784h-1.488l-1.152-3.392H212.49z       M216.026,319.767l-1.072-3.104c-0.224-0.704-0.384-1.344-0.544-1.968h-0.048c-0.144,0.624-0.32,1.296-0.528,1.952l-1.056,3.12      H216.026z"/>
				<path i:knockout="Off" d="M223.53,313.463v10.784h-1.408v-10.784H223.53z"/>
				<path i:knockout="Off" d="M227.546,313.463h1.408v9.616h4.608v1.168h-6.016V313.463z"/>
				<path i:knockout="Off" d="M237.322,324.422c-0.544,0-0.928-0.432-0.928-0.992c0-0.576,0.4-0.992,0.944-0.992      c0.576,0,0.944,0.416,0.944,0.992c0,0.56-0.368,0.992-0.944,0.992H237.322z M236.794,321.159l-0.224-7.696h1.536l-0.224,7.696      H236.794z"/>
			</g>
			<g i:knockout="On" a:adobe-knockout="true">
				<polygon i:knockout="Off" fill="#FFFFFF" stroke="#000000" a:adobe-knockout="false" points="215.65,299.456 220.636,308.092       225.622,299.456 "/>
			</g>
			<g i:knockout="On" a:adobe-knockout="true">
				<polygon i:knockout="Off" fill="#FFFFFF" stroke="#000000" a:adobe-knockout="false" points="215.65,174.539 220.636,183.174       225.622,174.539 "/>
			</g>
			<g i:knockout="On" a:adobe-knockout="true">
				<polygon i:knockout="Off" fill="#FFFFFF" stroke="#000000" a:adobe-knockout="false" points="215.397,250.094 220.383,258.729       225.369,250.094 "/>
			</g>
			<g>
				<g>
					<path i:knockout="Off" fill="#CCCCCC" d="M518.007,182.635c0,3.118-2.551,5.669-5.669,5.669H411.176       c-3.118,0-5.669-2.551-5.669-5.669V89.007c0-3.118,2.551-5.669,5.669-5.669h101.162c3.118,0,5.669,2.551,5.669,5.669V182.635z"/>
					<linearGradient id="XMLID_11_" gradientUnits="userSpaceOnUse" x1="206.6948" y1="130.8208" x2="547.8173" y2="130.8208">
						<stop offset="0" style="stop-color:#169133"/>
						<stop offset="1" style="stop-color:#FFFFFF"/>
						<a:midPointStop offset="0" style="stop-color:#169133"/>
						<a:midPointStop offset="0.5" style="stop-color:#169133"/>
						<a:midPointStop offset="1" style="stop-color:#FFFFFF"/>
					</linearGradient>
					<path i:knockout="Off" fill="url(#XMLID_11_)" stroke="#000000" d="M511.007,177.635c0,3.118-2.551,5.669-5.669,5.669H404.176       c-3.118,0-5.669-2.551-5.669-5.669V84.007c0-3.118,2.551-5.669,5.669-5.669h101.162c3.118,0,5.669,2.551,5.669,5.669V177.635z"/>
				</g>
				<linearGradient id="XMLID_12_" gradientUnits="userSpaceOnUse" x1="333.3022" y1="94.5029" x2="589.7572" y2="94.5029">
					<stop offset="0" style="stop-color:#169197"/>
					<stop offset="1" style="stop-color:#FFFFFF"/>
					<a:midPointStop offset="0" style="stop-color:#169197"/>
					<a:midPointStop offset="0.5" style="stop-color:#169197"/>
					<a:midPointStop offset="1" style="stop-color:#FFFFFF"/>
				</linearGradient>
				<path i:knockout="Off" fill="url(#XMLID_12_)" stroke="#000000" d="M398.507,110.668V84.007c0-3.118,2.551-5.669,5.669-5.669      h101.162c3.118,0,5.669,2.551,5.669,5.669v26.662H398.507z"/>
			</g>
			<g i:knockout="Off">
				<path i:knockout="Off" d="M415.632,88.631h1.408v4.848h0.032c0.496-0.864,1.392-1.408,2.64-1.408c1.92,0,3.264,1.6,3.264,3.936      c0,2.784-1.76,4.16-3.487,4.16c-1.12,0-2-0.432-2.592-1.456h-0.032l-0.08,1.28h-1.216c0.048-0.528,0.063-1.312,0.063-2V88.631z       M417.041,96.887c0,0.176,0.016,0.352,0.049,0.512c0.271,0.976,1.104,1.648,2.111,1.648c1.488,0,2.352-1.2,2.352-2.976      c0-1.568-0.799-2.896-2.304-2.896c-0.96,0-1.856,0.672-2.128,1.728c-0.048,0.176-0.08,0.368-0.08,0.592V96.887z"/>
				<path i:knockout="Off" d="M431.216,97.879c0,0.8,0.017,1.504,0.064,2.112h-1.248l-0.08-1.264h-0.031      c-0.353,0.624-1.185,1.44-2.561,1.44c-1.216,0-2.672-0.688-2.672-3.392v-4.528h1.408v4.272c0,1.472,0.464,2.48,1.728,2.48      c0.944,0,1.601-0.656,1.856-1.296c0.08-0.192,0.127-0.448,0.127-0.72v-4.736h1.408V97.879z"/>
				<path i:knockout="Off" d="M440.176,98.855c0,1.792-0.368,2.864-1.104,3.552c-0.768,0.688-1.855,0.928-2.832,0.928      c-0.928,0-1.951-0.224-2.576-0.64l0.353-1.088c0.513,0.336,1.312,0.624,2.272,0.624c1.439,0,2.496-0.752,2.496-2.72v-0.848      h-0.033c-0.415,0.72-1.264,1.296-2.463,1.296c-1.92,0-3.297-1.632-3.297-3.792c0-2.624,1.713-4.096,3.504-4.096      c1.345,0,2.064,0.688,2.416,1.328h0.033l0.047-1.152h1.248c-0.047,0.544-0.063,1.168-0.063,2.112V98.855z M438.768,95.287      c0-0.224-0.017-0.432-0.08-0.624c-0.256-0.832-0.928-1.504-1.968-1.504c-1.344,0-2.305,1.136-2.305,2.944      c0,1.504,0.785,2.784,2.289,2.784c0.879,0,1.664-0.544,1.951-1.456c0.08-0.224,0.112-0.496,0.112-0.752V95.287z"/>
				<path i:knockout="Off" d="M449.121,98.855c0,1.792-0.368,2.864-1.104,3.552c-0.769,0.688-1.856,0.928-2.832,0.928      c-0.929,0-1.953-0.224-2.576-0.64l0.352-1.088c0.512,0.336,1.312,0.624,2.271,0.624c1.44,0,2.496-0.752,2.496-2.72v-0.848      h-0.031c-0.416,0.72-1.264,1.296-2.465,1.296c-1.92,0-3.295-1.632-3.295-3.792c0-2.624,1.711-4.096,3.504-4.096      c1.344,0,2.063,0.688,2.416,1.328h0.031l0.049-1.152h1.248c-0.049,0.544-0.064,1.168-0.064,2.112V98.855z M447.712,95.287      c0-0.224-0.016-0.432-0.08-0.624c-0.256-0.832-0.928-1.504-1.968-1.504c-1.344,0-2.304,1.136-2.304,2.944      c0,1.504,0.783,2.784,2.287,2.784c0.881,0,1.664-0.544,1.953-1.456c0.08-0.224,0.111-0.496,0.111-0.752V95.287z"/>
				<path i:knockout="Off" d="M451.937,92.247l1.68,4.576c0.191,0.512,0.384,1.12,0.512,1.584h0.031      c0.145-0.464,0.305-1.056,0.496-1.616l1.537-4.544h1.487l-2.112,5.52c-1.008,2.656-1.695,4.016-2.656,4.864      c-0.703,0.592-1.375,0.832-1.728,0.896l-0.352-1.184c0.352-0.096,0.815-0.32,1.231-0.688c0.385-0.304,0.848-0.848,1.185-1.568      c0.063-0.144,0.112-0.24,0.112-0.336c0-0.08-0.033-0.192-0.112-0.352l-2.849-7.152H451.937z"/>
				<path i:knockout="Off" d="M465.792,101.191v0.8h-8v-0.8H465.792z"/>
				<path i:knockout="Off" d="M467.088,99.991v-6.672h-1.071v-1.072h1.071v-0.368c0-1.088,0.256-2.08,0.912-2.704      c0.528-0.512,1.231-0.72,1.872-0.72c0.512,0,0.928,0.112,1.199,0.224l-0.176,1.088c-0.224-0.096-0.496-0.176-0.912-0.176      c-1.184,0-1.504,1.056-1.504,2.24v0.416h1.873v1.072h-1.856v6.672H467.088z"/>
				<path i:knockout="Off" d="M478.113,97.879c0,0.8,0.016,1.504,0.063,2.112h-1.248l-0.08-1.264h-0.032      c-0.352,0.624-1.184,1.44-2.56,1.44c-1.216,0-2.672-0.688-2.672-3.392v-4.528h1.407v4.272c0,1.472,0.465,2.48,1.729,2.48      c0.943,0,1.6-0.656,1.855-1.296c0.08-0.192,0.129-0.448,0.129-0.72v-4.736h1.408V97.879z"/>
				<path i:knockout="Off" d="M480.449,94.343c0-0.816-0.017-1.456-0.064-2.096h1.248l0.08,1.264h0.031      c0.385-0.72,1.281-1.44,2.561-1.44c1.072,0,2.736,0.64,2.736,3.296v4.624h-1.408v-4.464c0-1.248-0.465-2.304-1.792-2.304      c-0.912,0-1.632,0.656-1.888,1.44c-0.064,0.176-0.096,0.432-0.096,0.656v4.672h-1.408V94.343z"/>
				<path i:knockout="Off" d="M494.848,99.719c-0.368,0.176-1.185,0.448-2.224,0.448c-2.336,0-3.856-1.584-3.856-3.968      s1.632-4.128,4.16-4.128c0.832,0,1.567,0.208,1.952,0.416l-0.32,1.072c-0.336-0.176-0.863-0.368-1.632-0.368      c-1.776,0-2.736,1.328-2.736,2.944c0,1.792,1.152,2.896,2.688,2.896c0.8,0,1.328-0.192,1.728-0.368L494.848,99.719z"/>
			</g>
			<g i:knockout="On" a:adobe-knockout="true">
				<polygon i:knockout="Off" fill="#FFFFFF" stroke="#000000" a:adobe-knockout="false" points="449.397,161.083 454.382,169.719       459.369,161.083 "/>
			</g>
			<g>
				<g>
					<path i:knockout="Off" fill="#CCCCCC" d="M518.007,342.635c0,3.118-2.551,5.669-5.669,5.669H411.176       c-3.118,0-5.669-2.551-5.669-5.669v-93.628c0-3.118,2.551-5.669,5.669-5.669h101.162c3.118,0,5.669,2.551,5.669,5.669V342.635z       "/>
					<linearGradient id="XMLID_13_" gradientUnits="userSpaceOnUse" x1="206.6948" y1="290.8208" x2="547.8173" y2="290.8208">
						<stop offset="0" style="stop-color:#169133"/>
						<stop offset="1" style="stop-color:#FFFFFF"/>
						<a:midPointStop offset="0" style="stop-color:#169133"/>
						<a:midPointStop offset="0.5" style="stop-color:#169133"/>
						<a:midPointStop offset="1" style="stop-color:#FFFFFF"/>
					</linearGradient>
					<path i:knockout="Off" fill="url(#XMLID_13_)" stroke="#000000" d="M511.007,337.635c0,3.118-2.551,5.669-5.669,5.669H404.176       c-3.118,0-5.669-2.551-5.669-5.669v-93.628c0-3.118,2.551-5.669,5.669-5.669h101.162c3.118,0,5.669,2.551,5.669,5.669V337.635z       "/>
				</g>
				<linearGradient id="XMLID_14_" gradientUnits="userSpaceOnUse" x1="333.3022" y1="254.5029" x2="589.7572" y2="254.5029">
					<stop offset="0" style="stop-color:#169197"/>
					<stop offset="1" style="stop-color:#FFFFFF"/>
					<a:midPointStop offset="0" style="stop-color:#169197"/>
					<a:midPointStop offset="0.5" style="stop-color:#169197"/>
					<a:midPointStop offset="1" style="stop-color:#FFFFFF"/>
				</linearGradient>
				<path i:knockout="Off" fill="url(#XMLID_14_)" stroke="#000000" d="M398.507,270.668v-26.662c0-3.118,2.551-5.669,5.669-5.669      h101.162c3.118,0,5.669,2.551,5.669,5.669v26.662H398.507z"/>
			</g>
			<g i:knockout="Off">
				<path i:knockout="Off" d="M421,259.991v-6.672h-1.071v-1.072H421v-0.368c0-1.088,0.256-2.08,0.912-2.704      c0.528-0.512,1.231-0.72,1.872-0.72c0.512,0,0.928,0.112,1.199,0.224l-0.176,1.088c-0.224-0.096-0.496-0.176-0.912-0.176      c-1.184,0-1.504,1.056-1.504,2.24v0.416h1.873v1.072h-1.856v6.672H421z"/>
				<path i:knockout="Off" d="M426.216,250.823c-0.527,0-0.88-0.416-0.88-0.912c0-0.496,0.368-0.896,0.912-0.896      s0.896,0.4,0.896,0.896c0,0.496-0.352,0.912-0.912,0.912H426.216z M425.544,259.991v-7.744h1.408v7.744H425.544z"/>
				<path i:knockout="Off" d="M429.945,252.247l1.104,1.648c0.288,0.448,0.528,0.832,0.784,1.264h0.048      c0.256-0.448,0.512-0.848,0.784-1.264l1.071-1.648h1.537l-2.641,3.744l2.704,4h-1.601l-1.135-1.744      c-0.305-0.448-0.561-0.88-0.832-1.344h-0.033c-0.256,0.464-0.527,0.88-0.815,1.344l-1.12,1.744h-1.552l2.752-3.952l-2.624-3.792      H429.945z"/>
				<path i:knockout="Off" d="M437.257,256.359c0.033,1.904,1.232,2.688,2.641,2.688c1.008,0,1.632-0.176,2.145-0.384l0.256,0.992      c-0.496,0.224-1.36,0.496-2.592,0.496c-2.369,0-3.809-1.584-3.809-3.904c0-2.352,1.393-4.192,3.648-4.192      c2.527,0,3.184,2.224,3.184,3.648c0,0.288-0.016,0.512-0.048,0.672L437.257,256.359z M441.371,255.351      c0.016-0.88-0.369-2.288-1.937-2.288c-1.44,0-2.048,1.312-2.16,2.288H441.371z"/>
				<path i:knockout="Off" d="M451.162,248.631v9.36c0,0.688,0.017,1.472,0.064,2h-1.264l-0.064-1.344h-0.031      c-0.433,0.864-1.361,1.52-2.625,1.52c-1.871,0-3.328-1.584-3.328-3.936c-0.016-2.592,1.601-4.16,3.473-4.16      c1.199,0,2,0.56,2.336,1.168h0.031v-4.608H451.162z M449.753,255.399c0-0.192-0.016-0.416-0.063-0.608      c-0.208-0.88-0.976-1.616-2.032-1.616c-1.455,0-2.32,1.28-2.32,2.976c0,1.584,0.785,2.88,2.289,2.88      c0.943,0,1.808-0.64,2.063-1.68c0.048-0.192,0.063-0.384,0.063-0.608V255.399z"/>
				<path i:knockout="Off" d="M460.33,261.191v0.8h-8v-0.8H460.33z"/>
				<path i:knockout="Off" d="M461.625,259.991v-6.672h-1.071v-1.072h1.071v-0.368c0-1.088,0.256-2.08,0.912-2.704      c0.528-0.512,1.231-0.72,1.872-0.72c0.512,0,0.928,0.112,1.199,0.224l-0.176,1.088c-0.224-0.096-0.496-0.176-0.912-0.176      c-1.184,0-1.504,1.056-1.504,2.24v0.416h1.873v1.072h-1.856v6.672H461.625z"/>
				<path i:knockout="Off" d="M472.65,257.879c0,0.8,0.016,1.504,0.063,2.112h-1.248l-0.08-1.264h-0.032      c-0.352,0.624-1.184,1.44-2.56,1.44c-1.216,0-2.672-0.688-2.672-3.392v-4.528h1.407v4.272c0,1.472,0.465,2.48,1.729,2.48      c0.943,0,1.6-0.656,1.855-1.296c0.08-0.192,0.129-0.448,0.129-0.72v-4.736h1.408V257.879z"/>
				<path i:knockout="Off" d="M474.986,254.343c0-0.816-0.016-1.456-0.064-2.096h1.248l0.08,1.264h0.032      c0.384-0.72,1.28-1.44,2.56-1.44c1.072,0,2.736,0.64,2.736,3.296v4.624h-1.408v-4.464c0-1.248-0.464-2.304-1.791-2.304      c-0.912,0-1.633,0.656-1.889,1.44c-0.064,0.176-0.096,0.432-0.096,0.656v4.672h-1.408V254.343z"/>
				<path i:knockout="Off" d="M489.386,259.719c-0.369,0.176-1.185,0.448-2.225,0.448c-2.336,0-3.855-1.584-3.855-3.968      s1.631-4.128,4.16-4.128c0.832,0,1.567,0.208,1.951,0.416l-0.32,1.072c-0.336-0.176-0.863-0.368-1.631-0.368      c-1.776,0-2.736,1.328-2.736,2.944c0,1.792,1.152,2.896,2.688,2.896c0.801,0,1.328-0.192,1.729-0.368L489.386,259.719z"/>
			</g>
			<g i:knockout="On" a:adobe-knockout="true">
				<polygon i:knockout="Off" fill="#FFFFFF" stroke="#000000" a:adobe-knockout="false" points="449.397,321.083 454.382,329.719       459.369,321.083 "/>
			</g>
			<g i:knockout="On" a:adobe-knockout="true">
				<g i:knockout="On">
					
						<line i:knockout="Off" fill="#FFFFFF" stroke="#000000" a:adobe-knockout="false" x1="454.037" y1="221.468" x2="285.61" y2="221.468"/>
				</g>
				<polygon i:knockout="Off" fill="#FFFFFF" stroke="#000000" a:adobe-knockout="false" points="287.069,226.47 278.433,221.484       287.069,216.498 "/>
			</g>
			<g i:knockout="On" a:adobe-knockout="true">
				<g i:knockout="On">
					
						<line i:knockout="Off" fill="#FFFFFF" stroke="#000000" a:adobe-knockout="false" x1="454.037" y1="203.201" x2="285.61" y2="203.201"/>
				</g>
				<polygon i:knockout="Off" fill="#FFFFFF" stroke="#000000" a:adobe-knockout="false" points="287.069,208.202 278.433,203.216       287.069,198.23 "/>
			</g>
			<g i:knockout="On" a:adobe-knockout="true">
				<g i:knockout="On">
					
						<line i:knockout="Off" fill="#FFFFFF" stroke="#000000" a:adobe-knockout="false" x1="454.162" y1="220.982" x2="454.162" y2="229.727"/>
				</g>
				<polygon i:knockout="Off" fill="#FFFFFF" stroke="#000000" a:adobe-knockout="false" points="449.161,228.268 454.146,236.903       459.131,228.268 "/>
			</g>
			<g i:knockout="On" a:adobe-knockout="true">
				<g i:knockout="On">
					
						<line i:knockout="Off" fill="#FFFFFF" stroke="#000000" a:adobe-knockout="false" x1="454.162" y1="183.079" x2="454.162" y2="203.729"/>
				</g>
			</g>
			<g i:knockout="On" a:adobe-knockout="true">
				<g i:knockout="On">
					
						<line i:knockout="Off" fill="#FFFFFF" stroke="#000000" a:adobe-knockout="false" x1="276.918" y1="255.103" x2="389.792" y2="255.103"/>
				</g>
				<polygon i:knockout="Off" fill="#FFFFFF" stroke="#000000" a:adobe-knockout="false" points="388.333,260.104 396.968,255.118       388.333,250.132 "/>
			</g>
			<g i:knockout="On" a:adobe-knockout="true">
				<g i:knockout="On">
					
						<line i:knockout="Off" fill="#FFFFFF" stroke="#000000" a:adobe-knockout="false" x1="336.583" y1="96.521" x2="389.928" y2="96.521"/>
				</g>
				<polygon i:knockout="Off" fill="#FFFFFF" stroke="#000000" a:adobe-knockout="false" points="388.469,101.521 397.106,96.536       388.469,91.551 "/>
			</g>
			<g i:knockout="On" a:adobe-knockout="true">
				<g i:knockout="On">
					
						<line i:knockout="Off" fill="#FFFFFF" stroke="#000000" a:adobe-knockout="false" x1="276.821" y1="178.899" x2="337.535" y2="178.899"/>
				</g>
			</g>
			<g i:knockout="On" a:adobe-knockout="true">
				<g i:knockout="On">
					
						<line i:knockout="Off" fill="#FFFFFF" stroke="#000000" a:adobe-knockout="false" x1="336.285" y1="360.812" x2="336.285" y2="279.122"/>
				</g>
			</g>
			<g i:knockout="On" a:adobe-knockout="true">
				<g i:knockout="On">
					
						<line i:knockout="Off" fill="#FFFFFF" stroke="#000000" a:adobe-knockout="false" x1="336.776" y1="279.076" x2="285.699" y2="279.076"/>
				</g>
				<polygon i:knockout="Off" fill="#FFFFFF" stroke="#000000" a:adobe-knockout="false" points="287.158,284.077 278.521,279.092       287.158,274.106 "/>
			</g>
			<polyline i:knockout="Off" fill="none" stroke="#000000" points="454.368,343.563 454.368,360.321 335.825,360.321 "/>
			<line i:knockout="Off" fill="none" stroke="#B3B3B3" stroke-width="2" x1="11.373" y1="52.443" x2="683.783" y2="52.443"/>
			<g i:knockout="On" a:adobe-knockout="true">
				<g i:knockout="On">
					
						<line i:knockout="Off" fill="#FFFFFF" stroke="#000000" a:adobe-knockout="false" x1="220.77" y1="15.86" x2="220.77" y2="115.126"/>
				</g>
				<polygon i:knockout="Off" fill="#FFFFFF" stroke="#000000" a:adobe-knockout="false" points="215.769,113.667 220.754,122.303       225.739,113.667 "/>
			</g>
			<g>
				<circle i:knockout="Off" cx="454.402" cy="283.907" r="0.953"/> 
				<circle i:knockout="Off" cx="454.402" cy="288.126" r="0.953"/> 
				<circle i:knockout="Off" cx="454.402" cy="292.345" r="0.953"/> 
				<circle i:knockout="Off" cx="454.402" cy="296.563" r="0.953"/> 
				<circle i:knockout="Off" cx="454.402" cy="300.782" r="0.953"/> 
				<circle i:knockout="Off" cx="454.402" cy="305.001" r="0.953"/> 
				<circle i:knockout="Off" cx="454.402" cy="309.22" r="0.953"/> 
				<circle i:knockout="Off" cx="454.402" cy="313.438" r="0.953"/> 
				<circle i:knockout="Off" cx="454.402" cy="317.657" r="0.953"/> 
			</g>
			<g>
				<circle i:knockout="Off" cx="454.402" cy="123.881" r="0.953"/> 
				<circle i:knockout="Off" cx="454.402" cy="128.1" r="0.953"/> 
				<circle i:knockout="Off" cx="454.402" cy="132.319" r="0.953"/> 
				<circle i:knockout="Off" cx="454.402" cy="136.538" r="0.953"/> 
				<circle i:knockout="Off" cx="454.402" cy="140.756" r="0.953"/> 
				<circle i:knockout="Off" cx="454.402" cy="144.975" r="0.953"/> 
				<circle i:knockout="Off" cx="454.402" cy="149.194" r="0.953"/> 
				<circle i:knockout="Off" cx="454.402" cy="153.413" r="0.953"/> 
				<circle i:knockout="Off" cx="454.402" cy="157.631" r="0.953"/> 
			</g>
			<g>
				<circle i:knockout="Off" cx="220.636" cy="162.992" r="0.953"/> 
				<circle i:knockout="Off" cx="220.636" cy="167.211" r="0.953"/> 
				<circle i:knockout="Off" cx="220.636" cy="171.43" r="0.953"/> 
				<circle i:knockout="Off" cx="220.407" cy="226.054" r="0.953"/> 
				<circle i:knockout="Off" cx="220.407" cy="230.272" r="0.953"/> 
				<circle i:knockout="Off" cx="220.407" cy="234.491" r="0.953"/> 
				<circle i:knockout="Off" cx="220.407" cy="238.71" r="0.953"/> 
				<circle i:knockout="Off" cx="220.407" cy="242.929" r="0.953"/> 
				<circle i:knockout="Off" cx="220.407" cy="247.147" r="0.953"/> 
				<circle i:knockout="Off" cx="220.407" cy="204.929" r="0.953"/> 
				<circle i:knockout="Off" cx="220.407" cy="209.147" r="0.953"/> 
				<circle i:knockout="Off" cx="220.407" cy="213.366" r="0.953"/> 
				<circle i:knockout="Off" cx="220.407" cy="217.585" r="0.953"/> 
				<circle i:knockout="Off" cx="220.407" cy="221.804" r="0.953"/> 
				<circle i:knockout="Off" cx="220.678" cy="287.875" r="0.953"/> 
				<circle i:knockout="Off" cx="220.678" cy="292.094" r="0.953"/> 
				<circle i:knockout="Off" cx="220.678" cy="296.312" r="0.953"/> 
				<circle i:knockout="Off" cx="220.678" cy="279.438" r="0.953"/> 
				<circle i:knockout="Off" cx="220.678" cy="283.656" r="0.953"/> 
			</g>
		</g>
	</svg>