<?xml version="1.0" encoding="UTF-8"?>
<!-- Generator: Adobe Illustrator 11 Build 196, SVG Export Plug-In . SVG Version: 6.0.0 Build 78)  -->
<!DOCTYPE svg PUBLIC "-//W3C//DTD SVG 1.0//EN" "http://www.w3.org/TR/2001/REC-SVG-20010904/DTD/svg10.dtd">
<svg xmlns:x="http://ns.adobe.com/Extensibility/1.0/" xmlns:i="http://ns.adobe.com/AdobeIllustrator/10.0/" xmlns:graph="http://ns.adobe.com/Graphs/1.0/" i:viewOrigin="-51.8862 878.0635" i:rulerOrigin="0 0" i:pageBounds="0 792 612 0" xmlns="http://www.w3.org/2000/svg" xmlns:xlink="http://www.w3.org/1999/xlink" xmlns:a="http://ns.adobe.com/AdobeSVGViewerExtensions/3.0/" width="695.126" height="379.677" viewBox="0 0 695.126 379.677" overflow="visible" enable-background="new 0 0 695.126 379.677" xml:space="preserve">
	<metadata>
		<variableSets xmlns="http://ns.adobe.com/Variables/1.0/">
			<variableSet varSetName="binding1" locked="none">
				<variables/>
				<v:sampleDataSets xmlns="http://ns.adobe.com/GenericCustomNamespace/1.0/" xmlns:v="http://ns.adobe.com/Variables/1.0/"/>
			</variableSet>
		</variableSets>
		<sfw xmlns="http://ns.adobe.com/SaveForWeb/1.0/">
			<slices/>
			<sliceSourceBounds y="498.386" x="-51.886" width="695.126" height="379.677" bottomLeftOrigin="true"/>
		</sfw>
<?xpacket begin='﻿' id='W5M0MpCehiHzreSzNTczkc9d'?><x:xmpmeta xmlns:x="adobe:ns:meta/" x:xmptk="XMP toolkit 3.0-29, framework 1.6">
<rdf:RDF xmlns:rdf="http://www.w3.org/1999/02/22-rdf-syntax-ns#" xmlns:iX="http://ns.adobe.com/iX/1.0/">

 <rdf:Description rdf:about="uuid:9b10b9e4-6f06-11e4-ad99-000d933a9528" xmlns:pdf="http://ns.adobe.com/pdf/1.3/">
  <pdf:Producer>Adobe PDF library 6.66</pdf:Producer>
 </rdf:Description>

 <rdf:Description rdf:about="uuid:9b10b9e4-6f06-11e4-ad99-000d933a9528" xmlns:tiff="http://ns.adobe.com/tiff/1.0/">
 </rdf:Description>

 <rdf:Description rdf:about="uuid:9b10b9e4-6f06-11e4-ad99-000d933a9528" xmlns:xap="http://ns.adobe.com/xap/1.0/" xmlns:xapGImg="http://ns.adobe.com/xap/1.0/g/img/">
  <xap:CreateDate>2014-11-11T06:04:16-05:00</xap:CreateDate>
  <xap:ModifyDate>2014-11-18T09:38:26Z</xap:ModifyDate>
  <xap:CreatorTool>Illustrator</xap:CreatorTool>
  <xap:MetadataDate>2014-11-18T04:37:55-05:00</xap:MetadataDate>
  <xap:Thumbnails>
   <rdf:Alt>
    <rdf:li rdf:parseType="Resource">
     <xapGImg:format>JPEG</xapGImg:format>
     <xapGImg:width>256</xapGImg:width>
     <xapGImg:height>140</xapGImg:height>
     <xapGImg:image>/9j/4AAQSkZJRgABAgEASABIAAD/7QAsUGhvdG9zaG9wIDMuMAA4QklNA+0AAAAAABAASAAAAAEA
AQBIAAAAAQAB/+4ADkFkb2JlAGTAAAAAAf/bAIQABgQEBAUEBgUFBgkGBQYJCwgGBggLDAoKCwoK
DBAMDAwMDAwQDA4PEA8ODBMTFBQTExwbGxscHx8fHx8fHx8fHwEHBwcNDA0YEBAYGhURFRofHx8f
Hx8fHx8fHx8fHx8fHx8fHx8fHx8fHx8fHx8fHx8fHx8fHx8fHx8fHx8fHx8f/8AAEQgAjAEAAwER
AAIRAQMRAf/EAaIAAAAHAQEBAQEAAAAAAAAAAAQFAwIGAQAHCAkKCwEAAgIDAQEBAQEAAAAAAAAA
AQACAwQFBgcICQoLEAACAQMDAgQCBgcDBAIGAnMBAgMRBAAFIRIxQVEGE2EicYEUMpGhBxWxQiPB
UtHhMxZi8CRygvElQzRTkqKyY3PCNUQnk6OzNhdUZHTD0uIIJoMJChgZhJRFRqS0VtNVKBry4/PE
1OT0ZXWFlaW1xdXl9WZ2hpamtsbW5vY3R1dnd4eXp7fH1+f3OEhYaHiImKi4yNjo+Ck5SVlpeYmZ
qbnJ2en5KjpKWmp6ipqqusra6voRAAICAQIDBQUEBQYECAMDbQEAAhEDBCESMUEFURNhIgZxgZEy
obHwFMHR4SNCFVJicvEzJDRDghaSUyWiY7LCB3PSNeJEgxdUkwgJChgZJjZFGidkdFU38qOzwygp
0+PzhJSktMTU5PRldYWVpbXF1eX1RlZmdoaWprbG1ub2R1dnd4eXp7fH1+f3OEhYaHiImKi4yNjo
+DlJWWl5iZmpucnZ6fkqOkpaanqKmqq6ytrq+v/aAAwDAQACEQMRAD8A9UYq3irsVdirsVdirsVU
pLmCOaKF2pLPy9JaHfiKnFV0csbtIqmpibg/sSob9TDFV+KuxV2KuxV2KuxV2KuxV2KuxV2KuxV2
KuxV2KuxV2KuxV2KuxV2KuxVrFW8VeT/AJ0+b/OPlq9t30eHUJrO/wBI1S1tv0fbfWuGsOsX6PeQ
BWZaMWpXY+BxVimt/nd+bWl299b2nln63c6df22nG5eyvZIiDAxkd5EMPOSSdOPwIESoIMoZTiqa
3v5w/mXY+k17oVvClzrGo2UMaWt9LJHZWXL0ppaFYqSHjWTmBxBcKwrwVYzD/wA5Efm7L5bh1e28
pJqImntvSltLDUPRkiltVuJowXfmHQsVWRQ6N1G3xFVMdZ/PP83rS4ItPKsc1NXubGa1ax1ANbwW
9DCJJw3pySXSksjxrxWm6moxV9B4ql2oWcD31lK3Pm0yq4V3VWESSSoGUEKaOK7jFUBrfmOy8uaf
qerXscktvHd28RSHhz5XAggj/vHjWnqSKCS23XFUo0383/KGqX8Fnpq312Lji0NxFZzGJkaAXAdT
x5NRDuFUsD1FCCVUEfzz8nlHMVtfTPFzM8ccURaNFkihWR6ygKsktwijeo3LBVFcVR0X5veUJzbN
bG6ure8kiitbiC3eRZDNALkNwWsqqsToSzIB8VRUByqq6x/Mu31nS7y78u6dJf3FklpNLbTTQW/7
m7T1fV5q81VSMNWgNWBQVZW4qoC3/PTyVLbJcvFqEERUy3DyWrFbeGkbiad0LoiGKYSV5bKN6NRS
qr/8rn8oDSrHVHS7jtdRdorX1IlRzJHJBFJGVZx8aS3PBl8Uf+XdVC6d+eflW9mA+rXcEDtaQwmV
AJGuL4SPBFwUso9SKL1Fbn068SMVRFt+dPlG4WGRIb9beUwVuJLYxIi3RmETNzKtR/qzceIPL4Qt
WZQVV13+ZWpN5dfX9M0CabT7h7C30d7mVbaS4uNQu0sgrwuvKNI5JF+Mmjjdfh+LFUu0j8/fKF7a
2XqxXC3s7W8VzDEqSRxSXKpT97zVWX1HKUH7yqtVBQ4qzvy5r1nr+i2ur2ayJbXYYokwUSLxcoQ6
qz8WBU1Umo6GhqMVTLFXYq7FXYq7FXYq7FXYq7FXYq7FXYqgdTurqD0vq5jHLly9RS3SlKUZMVSH
U/OdrpRpqmq6dYH0zNS6YQ/u1ZUZ/jmX4Q0iqT4keOKo9dV1NlDLJblSKgiNyCD/AM9MVWzX2oTR
PDN9WkikUpJG8LMrKwoVYGShBGKoLQ9dhlsjb6LJZCy02R9PEFvAyRQPaH0mgVFkCr6fHjQbDFUw
/Seq/wA8H/Ip/wDqpirv0nqv88H/ACKf/qpiqGu9S1Qz2VXg2mJH7p/98yf8WYqhbhZNTjvrS/it
rm1e5hleGSJyheFYZYyR6m4DxqaHFUVGZIp/rEUFkk4VUEq2xD8VHFV5B60ANBiqHsbC3sLb6taW
djFCVdGUW5PJZaeoGJkJbnwXlXrQV6YqqyRiVSstrYSKQgIa1qCIqiMbv+xyPHwriqpbyT2yultD
ZwrJQSLHblAwVQgqBIK0UAD2xVT9MEAG1sKKGVR9V6K6CNwPj6MihT4jbFV83OZUWa3spFjdpYw9
tyCyOSWcVfZmLEk4q1FziNYreyjNUNVtqbxiiHZ/2R9nwxVqOP0pFkitbGORW9RXW2oQ55fECH6/
G2/ufHFVRJZ47dbeOKzS3RhIkK25CBw/qBgokpXn8VfHfFUtv9B02/a2N1Y2bC1niuokSKSNDNB/
cu6Ryqsnp/s8wadsVTaG9v4IkhhFtFDGoWONIWVVUCgCgSUAGKr/ANJ6r/PB/wAin/6qYq79J6r/
ADwf8in/AOqmKu/Seq/zwf8AIp/+qmKu/Seq/wA8H/Ip/wDqpirv0nqv88H/ACKf/qpirv0nqv8A
PB/yKf8A6qYq79J6r/PB/wAin/6qYq79J6r/ADwf8in/AOqmKu/Seq/zwf8AIp/+qmKu/Seq/wA8
H/Ip/wDqpirv0nqv88H/ACKf/qpiqO0y6up/V+sGM8ePH01K9a1rVnxVZq3+6v8AZfwxV5T+Zv5W
X/m7XdG1my1CKzudCR5LRJozLG9x68E0fqp0aOkLAjxIPbFWO+X/AMifMdtrkt7rXmGTULSbVE1C
5hE0yetEiXHwOE9P4uc61+IhlWnTbFUpuf8AnHTzidIFjb+amXm9lNdKZLikk0EUsU0oZzLxYiRC
nw/s9tjir1nyF5TuvLWm39pc3X1uS81K91ATb8uN3MZAHJAqwr8Rp1xVktMVdTFUNdD9/Z/8Zj/y
ZkxV1qP395/xmH/JmPFUTTFXUxV1MVdTFXUxV1MVdTFXUxV1MVdTFXUxVK/MWvQ6JYLcyRtM8sgh
hiU8eTlWbdt+IohqaZKETI0058wxR4ixtPzGu26aXH/0kn/qjlv5cuCO1YdxV08+XzdNMi/6SW/6
o4PALMdpQ7irp5x1FumnQ/8ASS3/AFQweCWQ7Qj3FWTzPqbdNPg/6SX/AOqGPhFmNbHuKIi8wXgk
Q3VpHHAzqjPHMZGBdgqni0cYpU775EwIbIamMjSdqVYBlNQdwRkHIbpirqYq6mKupiqYaT/u3/Y/
xxVdqn+6v9l/DFUBTFXUxV1MVU5poYIzJM6xxggF2IABY0G58ScVUv0lp3/LXD/yMX+uKu/SWnf8
tcP/ACMX+uKqUl1az3NosEySsspZgjBiB6Tipp7nFVW0H7+8/wCMw/5Mx4qiaYq6mKupirqYq6mK
upirqYq6mKupirqYqhbh7r61FDA6IHSR2LoX+wUApRk/nxVh35hQ3yaXYm4kDD683KlSGJjmKFQf
sBU2Iqa+3e7B9Tr+0/7n4h5nrWl+ZrnULafRr2O0RYZYZzISd3pwYR8G5FSP51p79MypA3s6bBOA
jUhaX30f5prLefVDy/0eRrdYHg4etJcq0caNMgNY4eSl3Wnbj+3lcuJy8Zw7fjoyC207zZeaDqOm
6hJMbi+eWK1ukaGMQ24binMo3Pk4BJKqTQjoa4KNJEoiQI6Iyw0P8yI3b/czbxxxqIbZAokRlW3E
QlkVoVKv6q+pxVuIqRUjI0W0Sh3M0iS4j0m2S5NbhTbCY8/Uq4kTl8fCLlv34LXwGCXJsxfWPey7
Tx/ocXyP6zmO7RE0xV1MVdTFXUxVH6X/ALt/2P8AHFW9T/3V/sv4YqgaYq6mKupiqG1AfuE/4zQf
8nkxVZq+qWuladNf3QYww8aqgBYl2CKoBIFSzAbnCBZoMMmQQiZHkGOr+ZOlN0sL3/gbf/qtlngS
cMdpYvNVX8wNPbpp9591v/1Wx8GTIdoYlGy812sdxLJ9QvPjJNecbcy1PiZWnKqVUBRx+fegHhSZ
DW40wXzdA3TT7v8A6d/+q2Dwyy/NwVR5ogA5S2VxDEu8kr+iVRR1Y8ZWag9hiYFkNRApyKEVG4PQ
jIN7dMVdTFXUxV1MVdTFXUxV1MVQ0g/3JQf8YZv+JRYqk/nW1t7iwtI7iJJo/rIPCRQwqIpN6GuQ
mSBs42qFwY5Domjf8sFt/wAik/plPiS7y64RHcjotE0bb/QLb/kTH/TJeJLvLYIhEWWmaHM0oXTr
cei5jasURqQAailf5u++Hjl3toiEyh0TRf8Algtv+RMf9MlxnvZiIdqekaTFYNJHZQJIkkJV1iQE
ESruCBkhItsALTPTh/oUXyP6zknJRNMVdTFXUxV1MVR2mf7t/wBj/HFW9R/3X9P8MVQVMVdTFXUx
VDagP3Cf8ZoP+TyYqkv5iD/nUbz/AIyWv/UVFlmH6g4ev/uZfjq8W1lPNa6hbzaKI3gEEyTRytRf
VIrC3EnoGG/fMyV3s6HD4dES711sPzGMsUoaAIOJeCRI1UmsKsrFHkZdmlf4SfsgCveHqcgeF+Px
7kdYnzZ+hNSg1BpU1u9gZbF4Ebgkvo8FIZDLFF8dDUsPHboI702+ixXJEWqfmbHex21usaabZkok
1w8c8lwkd0Qhdi3MF7XjyY78gTkd20cFef4/Sy6zOrHytcHVhTUPQn+sABAgajf3fAt+7/k5fFxp
y3rgPJlGuLZnelVNinzP68x3bIumKupirqYq6mKupirqYq6mKoaQf7koP+MM3/EosVSvzeP9DtP+
Ykf8mpMry8nH1X0JHDmOHXhHRdskGwO0ivq3xIIrcnqqr/utB+z1+Z3yTYnUOSDMLdX/AOOY/wDr
xf8AJ1ckG2HNFaaP9Bi+R/WcschE0xV1MVdTFXUxVG6d/uz6P44q3fj+7+n+GKoSmKupirqYqhdR
H+jp/wAZoP8Ak8mKpZ52t4p/LlxFKCY3ltgwBI/4+Y+4ocEpECw0akAwNsPh8v6V/vp/+Rsv/NWV
ePPvdUMUe4I2HQNL/wB9v/yOl/5rw+NPvbBjj3Kmn6Xp01zeRGFlW2kWNGFxKxYNEkhqoeq/bpv8
8Piy720Yo9ybw6Bpn8kn/I6b/mvD4ku9mMce5fqOh6aulXjBJKiCUis0xGyHsXph4z3tsYC+Sa6Q
P9BT5t+vJOWipZI4kLuaKCB0J3JoAAPEnFXlfnbzJex67qB/SUltp1gqFWhmeGMR+gkru7RsoO7H
c9sysMImNl0mu1GSOXhiWOS+fbO3iZ2125lZWMfpR3kzOXXjzQD1B8ShwSvWmSMYNUMuoPUpjo3n
Gx1Qxra61cySyEBYTd3AcnizbAvvtG242264BGJZnLmjzJRg826YmqQaZJq9yLm4Myxk3c4T1Lf0
/Uj5GSnIeqNvmOu2RMYtkcuWrtXbzl5dit4bg63LNBNwKyxXszoEeT0Q7MJKKvqArv3Bp0ORMYts
Z5e8st0m/nttVgsuck0F3HI7etI8jK0bRqCrOWIB9Tcew6b1hMAOVpshldp/IP8AclB/xhm/4nFl
blJX5wH+hWn/ADEj/k1JleXk4+q+hIYcxw68I6Ltkg2BdpkDxPMxNfVYPJ8HD97Ti3HduSUVeJO+
TNNxronEOEJC3V/+OY/+vF/ydXJBthzRmmD/AEGL5H9ZyxyEVTFXUxV1MVdTFUXYD+8+j+OKt337
H0/wxVC0xV1MVdTFUNqI/wBHT/jNB/yeTFUv84D/AHATf8Zbb/qJjyGTk06j6CwHX/McegxWU8sD
z29xcGG4aOnKKJLead5iCRVUEFWA3p0BOxx4i3XwjaVx/nL5PWQo63iALI7M9uy0WOf0ORUkPRj8
Q+HpWtCCBPhLcMRTM/mP5Z0+zl1K6guLe3t7x9MkY24DxzgGaZX4FiwUAsXFVCrt0yW5bdzQbuPz
n8uxW9y1ta3c1zZIkt1btGFeKJqVZ1DF615KFC8iaEDgyuSAkQLPJrqO88uTXcW0dxZtKm6t8LxF
huhZT1/ZJHvhDKPNHaOP9AT5t+vLHIUbXTLGaFnaFBMLmWQTKqhwyXDMpDUrWoxV5l5y0Ke48xax
Atm09nclFkAdByElvGJORZ1arEmpy6GeERRdHrsUjl4h5MfX8ttKkuVuX0GsyvJKrCRAA8u0hCiU
AcvCnv3w+Pia4jNVWmFh5AWzuUubGwntJoojDAySW7+mrlC/D1Wkpy9JQe3hQsxI8eDZwZCKNJtB
5LiJ5S6TJM5bm7PJFQuZIpXbgJBGC8sCO3FQC29NzV8aDMY5qsP5caN9TFkdAc2ojEXo+spUoJDK
ob9/8XByShO61IWgweJFuEcl2yO0trqLX9NM0DwosUyqZGRyfjh7q7nt3yMpA8nJ08CLtlMg/wBy
cH/GGb/icWQcpS1jSl1K1WH1PSeNxJG9OQDAFd1qKijHvkZRsUwyQ4hTHx5X1xGIFxAwHQ+kw/5m
ZDwnHGkHeqroGvr/ALut/wDkW3/VTD4bL8sO9u20/wAwtJOnO3/cuErwbeqK/wDvz/Lx4GXgDvRa
2XmJf2rb/gG/6qYeBIwtzWOuzxejMYPTJUtwVlb4WDChLt3HhhEWYhSbWcDQ20cTGrKN6dK9ckzV
qYq6mKupirqYqirH9v6P44quvP2Pp/hiqGpirqYq6mKoXUR/o6f8ZoP+TyYql/nEf86/N/xltv8A
qJjyGTk06j6CxaNEcUdQw8CK9RT9RzGDrQi4be3rX0kqakniOp6/fkmwO0a3tUN9aRwxrBDcsVRV
Iq00aTyM3L7TM8zEkePjXJNqdxwwk8iiljuSQK9v6ZIMgqagqpo14iAKq20oVQKAARmgAyQbY80X
oo/3Hp82/XljkKmnD/R3/wCM0/8AyefFXnfn65161vNQl0O1jvb/ANaFFgmYolHhROZYEbIzBm/y
Qab0zHnXE4GcDxN+5iWn6p+aSvLNNpaMk07TQ23KMGGL6nX0XbkQ/wC/IpQr8QPxcW2aDGoJvaar
+YtppN7LJpiajdJNPLZooWF2hke5WCIo0vHlGyQsx5j929N2WpOzICKKi1j80hdQ8dItpI3kCSDl
6aJHKE4yNV3YtC5PKh+Ja0FaYdmYEVS28x/m6baKR/LlqLllk9SzWQkB1SdlHrtIi7ssK/ZPViKj
pLZmAGTW76veN5em1MfUNTeB2vILch0WUmHkFMqE0r0/jkotsGURWZSYTSTyTOqsi8wgADEE/YVP
5RkmxEUxV1MVdTFUK+m2zSyS1lV5SGfhNKgJCha8VYDooxV36Mt/55/+R8//ADXirv0Zb/zz/wDI
+f8A5rxVRurSOBEkjkmDiaEbzSsKNKqkEMxBqDiqYUxV1MVdTFXUxVE2f7f0fxxVu6H2Pp/hiqHp
irqYq6mKoXUR/o6f8Z4P+TyYql3nIf8AOvTf8Zbb/qJjyGTk06j6CxeHMYOtCNhyTYGtJat3qYqD
xulFAzEj/RoTQg7L16Lt36k5JsTuHJBmF2p/8ci9/wCYeX/iByQbYovRB/uOj+bfrOWOQq6cP9Hf
/jPP/wAnnxVhmvukeuag7sFRWRmYmgAEEZJJOY+X6nXan62N655g0CfQ7yCLzHZabLPF6UV+bmJf
SeZOUbA803K/Eu/uMiAwhE3ySTRoI4ELXPnk308FlcnUbc3awerzQQi4QmQ+ggcbOvwht1pVuU/g
3fBQjg1Izz27/mItteLp6zzPM/8AovrXcLs8kT+vDyiiWR5YuFOPJCzFUjVZNg9z1GXzx5StlvCd
Vtp5dPUve21rItzcRIrKjs8EPOWiFxy+HbEBQCjtTtrefWtKE0SSgLNQOoalXh8cnFuxpqlna2+q
Q+hDHFygm5cFC1o8XWgyTYi7ie3toXnuJUhhQVeWRgqqPEsaAYqgP8UeWf8Aq72X/SRF/wA1Yo4h
3u/xN5a/6u1l/wBJEX/NWK8Qb/xL5b/6u1l/0kRf81YrYd/iTy5/1dbP/pIi/wCasVsKtvrWi3My
wW1/bTzPXhFHNG7GgqaKpJ6DFbX6iP8AR0/4zwf8nkxSiqYq6mKupirqYqiLUfb+j+OKt3I+z9OK
qFMVdTFXUxVDaiP9HT/jPB/yeTFUt85j/nXp/wDjLbf9RMeQycmnUfQWKw5jB1oRsOSbAv0+KRJp
2aYyes3qPGUKiJgqxhEYswYFU5bAdfnSezcQKFJvDhCQu1T/AI499tX/AEeXb/YHJBtjzVNEupxp
0dLKZt23Bh8T4yZY5CP06ORbY+pGY3aSV+DEEgPKzCvEkdD44qwfzVZ291q2p2l3EJba5CpLE4qr
xvAisPkdxmPk+p12p2mkFv5C8qLdG6+ps1w5jLSPPcOS0RJVjykO/JizHqxNWqcjxFgMhXy/ln5V
k0xrG0gewYBPq91BLIZYWiqY3jZ2ajpWqt1B3G4GSEi2CZTaL8v/ACo1pHbS2hkWO3S0WQyyq4ji
EIQhkZeLr9ViIdaMCtQRvkrZiRRun/l95PtRAINOVRbcRCPUlYKEllmXZnNf3lw538adAKG2YkU4
vCDrumAblVk5Dw5PHxr8+Jp8snFuxptdOIr+3kZJGT0plLJG8lCWjIB4BqVock2MJ/MnVUutHs4k
RlrfkHrTjEky0kBAKEsvJVYb9RWhpdg+p1/af9yfeHmnmDVr3S9LN1Z24uJ/URODH4QrN8TEAgmi
9sy5mg6PBASNFC235l6Z+8V7K6V4vWrVUCn0ApZuZbiEPKvImgX4moprlfiOWNMe8Jw3nG4t9K8v
alJaUttUWKXUZK7W0TwiRnO4+FC1WbsoJwGXJnHFuR3IzR/zEsb4WpFhcwC8eBLd5vSRGE/L4i/P
4eJTjRt2YgKDXI8Tb4JHVmtwzLAjKaMs0BU+BEyEZGXJsw/UGWerJNpVvJIau0sFT40nUZju1TKm
KupirqYq6mKq9sPtfRirc4+z9OKqVMVdTFXUxVC6kP8AR0/4z2//ACfTFUt86j/nXZ/+Mtt/1Ex5
DJyadR9BePL5R83JqF/PY62tvaXU7TRWvGQ8RJz9Q8gw4t8S0oKVG+UAhwhONckvi8t/mq3oyDUZ
Q6vcyhTPQBjb+nb+oBIQQ1wFlePdVWoSleJnYbRKLK7ryrreoSaTIt9Gt95c/wB5rxpppmmmIi5N
cxKIQPViUqw5NQSGnugpjIfNU0ryR51gsI7e58yzXLni1wWeX4pAZxyRwQ6gLJCeFeLFCCKMclbP
iCc6D5e1LRtM1pbhbeG0ntkeC2tpJHSN0s0glUKyRKF5Q8gwFTyNadyzB3ZRoOqQ/VFiZHqEEoMa
PKQJGYUcRq3Bhw3U7jvljenME0U8QkjJKEkbgqaqSpBDAEUIxVQv9I03UFAvLaOfj9lnUEj5E7jF
BCB/wd5c/wCWGL/gRgpeEN/4P8u/8sMf/AjDS0Hf4R8vf8sUf3DFaDf+EvL/APyxp92K0r2ug6Va
OHt4BGQeQpsK+NMUphTFWIfmVpxvNHs40kELC9V+RXkP7mUdAV8fHCMnBu4muhxY6YRD5auv+WyP
/kSf+qmH86e51A0o70dD5cvB/wAfkf8AyIb/AKq4/nD3Ng0o70RaeUjDM80UtvHNLvLKttxZu/xM
JKnH8z5NwweZTSHQL7/lsi/5EN/1Vx/MHubBpx3r77RryKz9RrqN1SSElRCyk0lXv6hp92Pi2348
IBBZFAP9wtr/AMZYP+ohci5qb0xV1MVdTFXUxVVgH2voxVuX9nFVOmKupirqYqhdSH+jp/xnt/8A
k+mKpb52H/OuT/8AGW2/6iY8hk5NOo+gsRhzGDrQjYck2B2lMxu9SBJIFyoUc+dB9WhNKU+D/V+n
vkmxOockGYXan/xyL3/mHl/4gckG2KYaAo/RqGm5LVP+yOWOQr6aP9Hf/jPcf8n3xVFUxV1MVdTF
XUxV1MVdTFXUxVjnngf7jrT/AJih/wAmpMry8nH1X0MYhzHDrwjou2SDYHaQnGW++Glbkn7AStY0
32+188k2J1DkgzC3V/8AjmP/AK8X/J1ckG2HNGwD/cJa/wDGaD/qIXLHITemKupirqYq6mKqkX7W
KrpO2KrKYq6mKupiqE1If6On/Ge3/wCT6Yqlnncf863P/wAZbX/qJjyGTk06j6CxCHMYOtCNhyTY
F+nwyRzTuZC/rP6kiMhUIwVYwqNU8lKRhvmfoE9m4gUKTeHCEhdqf/HIvf8AmHl/4gckG2KZeXx/
uLj+bf8AEjljkK+mj/R3/wCM9x/yffFUXTFXUxV1MVdTFXUxV1MVdTFWN+eh/uOtP+Yof8mpMry8
nH1X0MWhzHDrwjou2SDYGtIUrJdVTh68guI/gdOUcihQx5dTyjYfR0ydNxiRzTuHCEhbq/8AxzH/
ANeL/k6uSDbDmj7cf7g7X/jNB/1ELljkJxTFXUxV1MVdTFV8ffFW2HTFVtMVdTFXUxVC6kP9HT/j
Pb/8n0xVT1zSv0ppktl6nomQoyyceVGjkWQVWq1FV8cEhYphOHEKYifJ3mKN2CTQOoPwt6ZFR40M
uVeE440g71VPLPmZf2oD/sP+vuHw0/lvNu20jzM0k6fuP3LhK8TvVFf/AH7/AJeHw2QweaLTSvM6
9rf/AIE/9VcPAyGHzXTaZ5kmt5LeRYPTlRo3KijcWFDQmQ70Phh4WQx0nuk2klrYRwy09QVLAb0q
a0yTYu00f6O//Ge4/wCT74qiqYq6mKupirqYq6mKupirqYqkPnKyurnTIfq8TStDOsjog5Nx4Omy
jc7sOmQyCw054mUaDCY7hVNGimBHUGCX/mnKeAuEMM+5Fx38A6rN/wAiZv8AmnDwFmMUu5XttT09
S4QSAhv3gEM32iAd/g8CMlwls8OSOj1mwHUy/wDIib/mjDwlkIF1/qtnc2bQQmQyM0ZAMUqiiyKx
3ZQOgyQDZGJtPLdSNCtKin72D8bhcm3JxTFXUxV1MVdTFVyjrirZGKtUxV1MVdTFVC9tpLiD043E
bh43V2XmKxur7gFevGnXFVno6r/y0Qf8iH/6rYq70dV/5aIP+RD/APVbFXejqv8Ay0Qf8iH/AOq2
KrrS1lhMzSyLJJNJ6jFFKAURUoAWf+TxxVEUxV1MVdTFUBbx6pArxiGB1MsrqxmcErJIzio9I0NG
8cVVeeq/8s0H/I9/+qWKu56r/wAs0H/I9/8Aqlirueq/8s0H/I9/+qWKu56r/wAs0H/I9/8Aqlir
ueq/8s0H/I9/+qWKu56r/wAs0H/I9/8Aqlirueq/8s0H/I9/+qWKu56r/wAs0H/I9/8AqliqmY75
iS1lbEnqTK3/AFRxV3o3v/LDa/8AI1v+qOKoD0NVh1AgWVv6VzNzJUl1oIONGfgDHRowfsEGtKg4
qj/Rvf8Alhtf+Rrf9UcVd6N7/wAsNr/yNb/qjirU8WpzqkbQwIglidmEzsQI5Fc0HpL2XxxVH0xV
1MVdTFXUxVsDFXb4q7fFXb4q7fFXb4q7fFXb4q7fFXb4q7fFXb4q7fFXb4q7fFXb4q7fFXb4q7fF
Xb4q7fFXb4q7fFXb4q7fFXb4q7fFXb4q7fFXb4q7fFXb4q7fFX//2Q==</xapGImg:image>
    </rdf:li>
   </rdf:Alt>
  </xap:Thumbnails>
 </rdf:Description>

 <rdf:Description rdf:about="uuid:9b10b9e4-6f06-11e4-ad99-000d933a9528" xmlns:xapMM="http://ns.adobe.com/xap/1.0/mm/">
  <xapMM:DocumentID>uuid:ccfd6a0c-6996-11e4-baf7-000d933a9528</xapMM:DocumentID>
 </rdf:Description>

 <rdf:Description rdf:about="uuid:9b10b9e4-6f06-11e4-ad99-000d933a9528" xmlns:dc="http://purl.org/dc/elements/1.1/">
  <dc:format>image/svg+xml</dc:format>
 </rdf:Description>

</rdf:RDF>
</x:xmpmeta>
                                                                                                                                                                                                                                                                                                                                                                                                                                                                                                                                                                                                                                                                                                                                                                                                                                                                                                                                                                                                                                                                                                                                                                                                                                                                                                                                                                                                                                                                                                                                                                                                                                                                                                                                                                                                                                                                                                                                                                                                                                                                                                                                <?xpacket end='w'?>
			</metadata>
		<g id="Layer_1" i:layer="yes" i:dimmedPercent="50" i:rgbTrio="#4F008000FFFF">
			<linearGradient id="XMLID_10_" gradientUnits="userSpaceOnUse" x1="347.5635" y1="-306.5312" x2="347.5634" y2="367.3533">
				<stop offset="0" style="stop-color:#C2C2C2"/>
				<stop offset="0.3258" style="stop-color:#D9D9D9"/>
				<stop offset="1" style="stop-color:#FFFFFF"/>
				<a:midPointStop offset="0" style="stop-color:#C2C2C2"/>
				<a:midPointStop offset="0.5" style="stop-color:#C2C2C2"/>
				<a:midPointStop offset="0.3258" style="stop-color:#D9D9D9"/>
				<a:midPointStop offset="0.5" style="stop-color:#D9D9D9"/>
				<a:midPointStop offset="1" style="stop-color:#FFFFFF"/>
			</linearGradient>
			<rect x="11.344" y="52.164" i:knockout="Off" fill="url(#XMLID_10_)" width="672.44" height="316.17"/> 
			<g i:knockout="Off">
				<path i:knockout="Off" d="M35.598,26.476v8.514c0,2.574,0.99,3.872,2.684,3.872c1.761,0,2.729-1.232,2.729-3.872v-8.514h3.344      v8.316c0,4.576-2.31,6.754-6.182,6.754c-3.74,0-5.918-2.09-5.918-6.798v-8.272H35.598z"/>
				<path i:knockout="Off" d="M46.841,38.4c0.615,0.374,1.892,0.792,2.882,0.792c1.012,0,1.43-0.33,1.43-0.88      c0-0.572-0.33-0.836-1.562-1.254c-2.244-0.726-3.103-1.958-3.08-3.212c0-2.024,1.716-3.542,4.378-3.542      c1.254,0,2.354,0.308,3.014,0.638l-0.572,2.288c-0.483-0.242-1.43-0.594-2.332-0.594c-0.813,0-1.275,0.33-1.275,0.858      c0,0.528,0.418,0.792,1.738,1.254c2.046,0.682,2.882,1.738,2.903,3.3c0,2.024-1.562,3.498-4.642,3.498      c-1.408,0-2.662-0.33-3.477-0.77L46.841,38.4z"/>
				<path i:knockout="Off" d="M58.985,36.97c0.11,1.408,1.474,2.068,3.036,2.068c1.144,0,2.067-0.154,2.97-0.462l0.44,2.266      c-1.101,0.462-2.442,0.682-3.895,0.682c-3.651,0-5.742-2.112-5.742-5.5c0-2.728,1.717-5.742,5.435-5.742      c3.476,0,4.796,2.706,4.796,5.368c0,0.572-0.066,1.078-0.11,1.342L58.985,36.97z M62.922,34.682      c0-0.792-0.352-2.178-1.869-2.178c-1.431,0-2.002,1.298-2.091,2.178H62.922z"/>
				<path i:knockout="Off" d="M68.049,34.088c0-1.584-0.022-2.618-0.088-3.542h2.859l0.132,2.002h0.089      c0.55-1.584,1.848-2.244,2.903-2.244c0.309,0,0.462,0.022,0.704,0.066v3.146c-0.286-0.044-0.55-0.088-0.924-0.088      c-1.232,0-2.068,0.638-2.288,1.694c-0.044,0.22-0.066,0.462-0.066,0.748v5.434h-3.344L68.049,34.088z"/>
				<path i:knockout="Off" d="M76.366,38.4c0.615,0.374,1.892,0.792,2.882,0.792c1.012,0,1.43-0.33,1.43-0.88      c0-0.572-0.33-0.836-1.562-1.254c-2.244-0.726-3.103-1.958-3.08-3.212c0-2.024,1.716-3.542,4.378-3.542      c1.254,0,2.354,0.308,3.014,0.638l-0.572,2.288c-0.483-0.242-1.43-0.594-2.332-0.594c-0.813,0-1.275,0.33-1.275,0.858      c0,0.528,0.418,0.792,1.737,1.254c2.047,0.682,2.883,1.738,2.904,3.3c0,2.024-1.562,3.498-4.642,3.498      c-1.408,0-2.662-0.33-3.477-0.77L76.366,38.4z"/>
				<path i:knockout="Off" d="M85.934,34.154c0-1.408-0.044-2.596-0.088-3.608h2.904l0.153,1.496h0.044      c0.793-1.122,2.024-1.738,3.587-1.738c2.354,0,4.466,2.046,4.466,5.478c0,3.916-2.486,5.764-4.884,5.764      c-1.299,0-2.311-0.528-2.795-1.232h-0.044v5.346h-3.344V34.154z M89.278,36.684c0,0.264,0.022,0.484,0.066,0.704      c0.22,0.902,0.99,1.584,1.958,1.584c1.452,0,2.31-1.21,2.31-3.036c0-1.716-0.77-3.014-2.266-3.014      c-0.946,0-1.782,0.704-2.002,1.694c-0.044,0.176-0.066,0.396-0.066,0.594V36.684z"/>
				<path i:knockout="Off" d="M108.044,38.708c0,1.012,0.044,2.002,0.176,2.596h-3.014l-0.198-1.078h-0.065      c-0.704,0.858-1.805,1.32-3.08,1.32c-2.179,0-3.477-1.584-3.477-3.3c0-2.794,2.508-4.114,6.314-4.114V34      c0-0.572-0.309-1.386-1.958-1.386c-1.101,0-2.267,0.374-2.97,0.792l-0.616-2.134c0.748-0.418,2.222-0.968,4.18-0.968      c3.586,0,4.708,2.112,4.708,4.642V38.708z M104.81,36.222c-1.76,0-3.124,0.418-3.124,1.694c0,0.858,0.572,1.276,1.32,1.276      c0.814,0,1.519-0.55,1.738-1.232c0.044-0.176,0.065-0.374,0.065-0.572V36.222z"/>
				<path i:knockout="Off" d="M118.781,41.04c-0.594,0.286-1.716,0.506-2.992,0.506c-3.476,0-5.698-2.134-5.698-5.522      c0-3.146,2.156-5.72,6.16-5.72c0.88,0,1.849,0.154,2.552,0.418l-0.527,2.486c-0.396-0.176-0.99-0.33-1.87-0.33      c-1.76,0-2.904,1.254-2.882,3.014c0,1.98,1.319,3.036,2.947,3.036c0.792,0,1.408-0.132,1.914-0.352L118.781,41.04z"/>
				<path i:knockout="Off" d="M122.96,36.97c0.11,1.408,1.474,2.068,3.036,2.068c1.144,0,2.067-0.154,2.97-0.462l0.44,2.266      c-1.101,0.462-2.442,0.682-3.895,0.682c-3.651,0-5.742-2.112-5.742-5.5c0-2.728,1.717-5.742,5.435-5.742      c3.476,0,4.796,2.706,4.796,5.368c0,0.572-0.066,1.078-0.11,1.342L122.96,36.97z M126.898,34.682      c0-0.792-0.352-2.178-1.869-2.178c-1.431,0-2.002,1.298-2.091,2.178H126.898z"/>
				<path i:knockout="Off" d="M32.254,62.476h3.322v6.556h0.044c0.329-0.572,0.682-1.1,1.033-1.628l3.345-4.928h4.136l-4.906,6.314      l5.148,8.514h-3.895l-3.651-6.402l-1.254,1.562v4.84h-3.322V62.476z"/>
				<path i:knockout="Off" d="M47.856,72.97c0.11,1.408,1.474,2.068,3.036,2.068c1.144,0,2.067-0.154,2.97-0.462l0.44,2.266      c-1.101,0.462-2.442,0.682-3.895,0.682c-3.651,0-5.742-2.112-5.742-5.5c0-2.728,1.717-5.742,5.435-5.742      c3.476,0,4.796,2.706,4.796,5.368c0,0.572-0.066,1.078-0.11,1.342L47.856,72.97z M51.793,70.682      c0-0.792-0.352-2.178-1.869-2.178c-1.431,0-2.002,1.298-2.091,2.178H51.793z"/>
				<path i:knockout="Off" d="M56.919,70.088c0-1.584-0.022-2.618-0.088-3.542h2.859l0.132,2.002h0.088      c0.551-1.584,1.849-2.244,2.904-2.244c0.309,0,0.462,0.022,0.704,0.066v3.146c-0.286-0.044-0.55-0.088-0.924-0.088      c-1.232,0-2.068,0.638-2.288,1.694c-0.044,0.22-0.066,0.462-0.066,0.748v5.434h-3.344L56.919,70.088z"/>
				<path i:knockout="Off" d="M65.236,69.978c0-1.342-0.044-2.464-0.088-3.432h2.904l0.153,1.496h0.066      c0.44-0.704,1.518-1.738,3.322-1.738c2.2,0,3.85,1.474,3.85,4.642v6.358H72.1v-5.962c0-1.386-0.484-2.332-1.694-2.332      c-0.924,0-1.474,0.638-1.716,1.254c-0.088,0.22-0.11,0.528-0.11,0.836v6.204h-3.344V69.978z"/>
				<path i:knockout="Off" d="M80.702,72.97c0.11,1.408,1.474,2.068,3.036,2.068c1.144,0,2.067-0.154,2.97-0.462l0.44,2.266      c-1.101,0.462-2.442,0.682-3.895,0.682c-3.651,0-5.742-2.112-5.742-5.5c0-2.728,1.717-5.742,5.435-5.742      c3.476,0,4.796,2.706,4.796,5.368c0,0.572-0.066,1.078-0.11,1.342L80.702,72.97z M84.639,70.682      c0-0.792-0.352-2.178-1.869-2.178c-1.431,0-2.002,1.298-2.091,2.178H84.639z"/>
				<path i:knockout="Off" d="M89.744,61.684h3.344v15.62h-3.344V61.684z"/>
			</g>
			
				<rect x="0.005" y="0.005" i:knockout="Off" fill="none" stroke="#FCFCFC" stroke-width="0.01" width="695.117" height="379.667"/> 
			<g>
				<g>
					<path i:knockout="Off" fill="#CCCCCC" d="M569.028,182.635c0,3.118-2.551,5.669-5.669,5.669H462.197       c-3.118,0-5.669-2.551-5.669-5.669V89.007c0-3.118,2.551-5.669,5.669-5.669h101.162c3.118,0,5.669,2.551,5.669,5.669V182.635z"/>
					<linearGradient id="XMLID_11_" gradientUnits="userSpaceOnUse" x1="257.7153" y1="130.8208" x2="598.8378" y2="130.8208">
						<stop offset="0" style="stop-color:#169133"/>
						<stop offset="1" style="stop-color:#FFFFFF"/>
						<a:midPointStop offset="0" style="stop-color:#169133"/>
						<a:midPointStop offset="0.5" style="stop-color:#169133"/>
						<a:midPointStop offset="1" style="stop-color:#FFFFFF"/>
					</linearGradient>
					<path i:knockout="Off" fill="url(#XMLID_11_)" stroke="#000000" d="M562.028,177.635c0,3.118-2.551,5.669-5.669,5.669H455.197       c-3.118,0-5.669-2.551-5.669-5.669V84.007c0-3.118,2.551-5.669,5.669-5.669h101.162c3.118,0,5.669,2.551,5.669,5.669V177.635z"/>
				</g>
				<linearGradient id="XMLID_12_" gradientUnits="userSpaceOnUse" x1="384.3228" y1="94.5029" x2="640.7777" y2="94.5029">
					<stop offset="0" style="stop-color:#169197"/>
					<stop offset="1" style="stop-color:#FFFFFF"/>
					<a:midPointStop offset="0" style="stop-color:#169197"/>
					<a:midPointStop offset="0.5" style="stop-color:#169197"/>
					<a:midPointStop offset="1" style="stop-color:#FFFFFF"/>
				</linearGradient>
				<path i:knockout="Off" fill="url(#XMLID_12_)" stroke="#000000" d="M449.528,110.668V84.007c0-3.118,2.551-5.669,5.669-5.669      h101.162c3.118,0,5.669,2.551,5.669,5.669v26.662H449.528z"/>
			</g>
			<g i:knockout="Off">
				<path i:knockout="Off" d="M466.656,88.631h1.408v4.848h0.032c0.496-0.864,1.392-1.408,2.64-1.408c1.92,0,3.264,1.6,3.264,3.936      c0,2.784-1.76,4.16-3.487,4.16c-1.12,0-2-0.432-2.592-1.456h-0.032l-0.08,1.28h-1.216c0.048-0.528,0.063-1.312,0.063-2V88.631z       M468.064,96.887c0,0.176,0.016,0.352,0.049,0.512c0.271,0.976,1.104,1.648,2.111,1.648c1.488,0,2.352-1.2,2.352-2.976      c0-1.568-0.799-2.896-2.304-2.896c-0.96,0-1.856,0.672-2.128,1.728c-0.048,0.176-0.08,0.368-0.08,0.592V96.887z"/>
				<path i:knockout="Off" d="M482.24,97.879c0,0.8,0.017,1.504,0.064,2.112h-1.248l-0.08-1.264h-0.031      c-0.353,0.624-1.185,1.44-2.561,1.44c-1.216,0-2.672-0.688-2.672-3.392v-4.528h1.408v4.272c0,1.472,0.464,2.48,1.728,2.48      c0.944,0,1.601-0.656,1.856-1.296c0.08-0.192,0.127-0.448,0.127-0.72v-4.736h1.408V97.879z"/>
				<path i:knockout="Off" d="M491.2,98.855c0,1.792-0.368,2.864-1.104,3.552c-0.768,0.688-1.855,0.928-2.832,0.928      c-0.928,0-1.951-0.224-2.576-0.64l0.353-1.088c0.513,0.336,1.312,0.624,2.272,0.624c1.439,0,2.496-0.752,2.496-2.72v-0.848      h-0.033c-0.415,0.72-1.264,1.296-2.463,1.296c-1.92,0-3.297-1.632-3.297-3.792c0-2.624,1.713-4.096,3.504-4.096      c1.345,0,2.064,0.688,2.416,1.328h0.033l0.047-1.152h1.248c-0.047,0.544-0.063,1.168-0.063,2.112V98.855z M489.792,95.287      c0-0.224-0.017-0.432-0.08-0.624c-0.256-0.832-0.928-1.504-1.968-1.504c-1.344,0-2.305,1.136-2.305,2.944      c0,1.504,0.785,2.784,2.289,2.784c0.879,0,1.664-0.544,1.951-1.456c0.08-0.224,0.112-0.496,0.112-0.752V95.287z"/>
				<path i:knockout="Off" d="M500.144,98.855c0,1.792-0.368,2.864-1.104,3.552c-0.769,0.688-1.856,0.928-2.832,0.928      c-0.929,0-1.953-0.224-2.576-0.64l0.352-1.088c0.512,0.336,1.312,0.624,2.271,0.624c1.44,0,2.496-0.752,2.496-2.72v-0.848      h-0.031c-0.416,0.72-1.264,1.296-2.465,1.296c-1.92,0-3.295-1.632-3.295-3.792c0-2.624,1.711-4.096,3.504-4.096      c1.344,0,2.063,0.688,2.416,1.328h0.031l0.049-1.152h1.248c-0.049,0.544-0.064,1.168-0.064,2.112V98.855z M498.736,95.287      c0-0.224-0.016-0.432-0.08-0.624c-0.256-0.832-0.928-1.504-1.968-1.504c-1.344,0-2.304,1.136-2.304,2.944      c0,1.504,0.783,2.784,2.287,2.784c0.881,0,1.664-0.544,1.953-1.456c0.08-0.224,0.111-0.496,0.111-0.752V95.287z"/>
				<path i:knockout="Off" d="M502.96,92.247l1.68,4.576c0.191,0.512,0.384,1.12,0.512,1.584h0.031      c0.145-0.464,0.305-1.056,0.496-1.616l1.537-4.544h1.487l-2.112,5.52c-1.008,2.656-1.695,4.016-2.656,4.864      c-0.703,0.592-1.375,0.832-1.728,0.896l-0.352-1.184c0.352-0.096,0.815-0.32,1.231-0.688c0.385-0.304,0.848-0.848,1.185-1.568      c0.063-0.144,0.112-0.24,0.112-0.336c0-0.08-0.033-0.192-0.112-0.352l-2.849-7.152H502.96z"/>
				<path i:knockout="Off" d="M516.816,101.191v0.8h-8v-0.8H516.816z"/>
				<path i:knockout="Off" d="M518.112,99.991v-6.672h-1.071v-1.072h1.071v-0.368c0-1.088,0.256-2.08,0.912-2.704      c0.528-0.512,1.231-0.72,1.872-0.72c0.512,0,0.928,0.112,1.199,0.224l-0.176,1.088c-0.224-0.096-0.496-0.176-0.912-0.176      c-1.184,0-1.504,1.056-1.504,2.24v0.416h1.873v1.072h-1.856v6.672H518.112z"/>
				<path i:knockout="Off" d="M529.136,97.879c0,0.8,0.016,1.504,0.063,2.112h-1.248l-0.08-1.264h-0.032      c-0.352,0.624-1.184,1.44-2.56,1.44c-1.216,0-2.672-0.688-2.672-3.392v-4.528h1.407v4.272c0,1.472,0.465,2.48,1.729,2.48      c0.943,0,1.6-0.656,1.855-1.296c0.08-0.192,0.129-0.448,0.129-0.72v-4.736h1.408V97.879z"/>
				<path i:knockout="Off" d="M531.472,94.343c0-0.816-0.017-1.456-0.064-2.096h1.248l0.08,1.264h0.031      c0.385-0.72,1.281-1.44,2.561-1.44c1.072,0,2.736,0.64,2.736,3.296v4.624h-1.408v-4.464c0-1.248-0.465-2.304-1.792-2.304      c-0.912,0-1.632,0.656-1.888,1.44c-0.064,0.176-0.096,0.432-0.096,0.656v4.672h-1.408V94.343z"/>
				<path i:knockout="Off" d="M545.872,99.719c-0.368,0.176-1.185,0.448-2.224,0.448c-2.336,0-3.856-1.584-3.856-3.968      s1.632-4.128,4.16-4.128c0.832,0,1.567,0.208,1.952,0.416l-0.32,1.072c-0.336-0.176-0.863-0.368-1.632-0.368      c-1.776,0-2.736,1.328-2.736,2.944c0,1.792,1.152,2.896,2.688,2.896c0.8,0,1.328-0.192,1.728-0.368L545.872,99.719z"/>
			</g>
			<g>
				<g>
					<path i:knockout="Off" fill="#CCCCCC" d="M409.075,260.823c0,3.118-2.551,5.669-5.669,5.669H302.242       c-3.118,0-5.669-2.551-5.669-5.669v-93.628c0-3.118,2.551-5.669,5.669-5.669h101.164c3.118,0,5.669,2.551,5.669,5.669V260.823z       "/>
					<linearGradient id="XMLID_13_" gradientUnits="userSpaceOnUse" x1="97.7583" y1="209.0088" x2="438.8852" y2="209.0088">
						<stop offset="0" style="stop-color:#169133"/>
						<stop offset="1" style="stop-color:#FFFFFF"/>
						<a:midPointStop offset="0" style="stop-color:#169133"/>
						<a:midPointStop offset="0.5" style="stop-color:#169133"/>
						<a:midPointStop offset="1" style="stop-color:#FFFFFF"/>
					</linearGradient>
					<path i:knockout="Off" fill="url(#XMLID_13_)" stroke="#000000" d="M402.075,255.823c0,3.118-2.551,5.669-5.669,5.669H295.242       c-3.118,0-5.669-2.551-5.669-5.669v-93.628c0-3.118,2.551-5.669,5.669-5.669h101.164c3.118,0,5.669,2.551,5.669,5.669V255.823z       "/>
				</g>
				<linearGradient id="XMLID_14_" gradientUnits="userSpaceOnUse" x1="224.3672" y1="172.6909" x2="480.8255" y2="172.6909">
					<stop offset="0" style="stop-color:#169197"/>
					<stop offset="1" style="stop-color:#FFFFFF"/>
					<a:midPointStop offset="0" style="stop-color:#169197"/>
					<a:midPointStop offset="0.5" style="stop-color:#169197"/>
					<a:midPointStop offset="1" style="stop-color:#FFFFFF"/>
				</linearGradient>
				<path i:knockout="Off" fill="url(#XMLID_14_)" stroke="#000000" d="M289.573,188.856v-26.662c0-3.118,2.551-5.669,5.669-5.669      h101.164c3.118,0,5.669,2.551,5.669,5.669v26.662H289.573z"/>
			</g>
			<g i:knockout="Off">
				<path i:knockout="Off" d="M301.547,172.849c0-0.912-0.016-1.696-0.064-2.416h1.232l0.064,1.52h0.048      c0.352-1.04,1.216-1.696,2.16-1.696c0.144,0,0.256,0.016,0.384,0.048v1.312c-0.16-0.016-0.304-0.032-0.496-0.032      c-0.992,0-1.696,0.752-1.888,1.792c-0.032,0.208-0.048,0.432-0.048,0.672v4.128h-1.408L301.547,172.849z"/>
				<path i:knockout="Off" d="M307.469,174.545c0.032,1.904,1.232,2.688,2.64,2.688c1.008,0,1.632-0.176,2.144-0.384l0.256,0.992      c-0.496,0.224-1.36,0.496-2.592,0.496c-2.368,0-3.808-1.584-3.808-3.904c0-2.352,1.392-4.192,3.648-4.192      c2.528,0,3.184,2.224,3.184,3.648c0,0.288-0.016,0.512-0.048,0.672L307.469,174.545z M311.582,173.537      c0.016-0.88-0.368-2.288-1.936-2.288c-1.44,0-2.048,1.312-2.16,2.288H311.582z"/>
				<path i:knockout="Off" d="M320.142,176.321c0,0.672,0.032,1.328,0.112,1.856h-1.264l-0.128-0.976h-0.048      c-0.416,0.608-1.264,1.152-2.368,1.152c-1.568,0-2.368-1.104-2.368-2.224c0-1.872,1.664-2.896,4.656-2.88v-0.16      c0-0.64-0.176-1.808-1.76-1.792c-0.736,0-1.488,0.208-2.032,0.576l-0.32-0.944c0.64-0.4,1.584-0.672,2.56-0.672      c2.384,0,2.96,1.616,2.96,3.168V176.321z M318.766,174.225c-1.536-0.032-3.28,0.24-3.28,1.744c0,0.928,0.608,1.344,1.312,1.344      c1.024,0,1.68-0.64,1.904-1.296c0.048-0.144,0.064-0.304,0.064-0.448V174.225z"/>
				<path i:knockout="Off" d="M322.397,166.817h1.408v11.36h-1.408V166.817z"/>
				<path i:knockout="Off" d="M326.813,169.009c-0.528,0-0.88-0.416-0.88-0.912c0-0.496,0.368-0.896,0.912-0.896      s0.896,0.4,0.896,0.896c0,0.496-0.352,0.912-0.912,0.912H326.813z M326.141,178.177v-7.744h1.408v7.744H326.141z"/>
				<path i:knockout="Off" d="M331.581,168.577v1.856h2.016v1.072h-2.016v4.176c0,0.96,0.272,1.504,1.056,1.504      c0.384,0,0.608-0.032,0.816-0.096l0.064,1.072c-0.272,0.096-0.704,0.192-1.248,0.192c-0.656,0-1.184-0.224-1.52-0.592      c-0.384-0.432-0.544-1.12-0.544-2.032v-4.224h-1.2v-1.072h1.2v-1.424L331.581,168.577z"/>
				<path i:knockout="Off" d="M335.833,170.433l1.68,4.576c0.192,0.512,0.384,1.12,0.512,1.584h0.032      c0.144-0.464,0.304-1.056,0.496-1.616l1.536-4.544h1.488l-2.112,5.52c-1.008,2.656-1.696,4.016-2.656,4.864      c-0.704,0.592-1.376,0.832-1.728,0.896l-0.352-1.184c0.352-0.096,0.816-0.32,1.232-0.688c0.384-0.304,0.848-0.848,1.184-1.568      c0.064-0.144,0.112-0.24,0.112-0.336c0-0.08-0.032-0.192-0.112-0.352l-2.848-7.152H335.833z"/>
				<path i:knockout="Off" d="M349.689,179.377v0.8h-8v-0.8H349.689z"/>
				<path i:knockout="Off" d="M356.377,177.905c-0.368,0.176-1.184,0.448-2.224,0.448c-2.336,0-3.856-1.584-3.856-3.968      s1.632-4.128,4.16-4.128c0.832,0,1.568,0.208,1.952,0.416l-0.32,1.072c-0.336-0.176-0.864-0.368-1.632-0.368      c-1.776,0-2.736,1.328-2.736,2.944c0,1.792,1.152,2.896,2.688,2.896c0.8,0,1.328-0.192,1.728-0.368L356.377,177.905z"/>
				<path i:knockout="Off" d="M358.825,166.817h1.409v4.832h0.031c0.225-0.4,0.576-0.768,1.008-0.992      c0.416-0.256,0.912-0.4,1.44-0.4c1.04,0,2.704,0.64,2.704,3.312v4.608h-1.408v-4.448c0-1.264-0.465-2.304-1.792-2.304      c-0.912,0-1.616,0.64-1.888,1.408c-0.08,0.192-0.096,0.4-0.096,0.672v4.672h-1.409V166.817z"/>
				<path i:knockout="Off" d="M369.305,174.545c0.032,1.904,1.231,2.688,2.64,2.688c1.008,0,1.633-0.176,2.145-0.384l0.256,0.992      c-0.496,0.224-1.359,0.496-2.592,0.496c-2.368,0-3.809-1.584-3.809-3.904c0-2.352,1.393-4.192,3.648-4.192      c2.527,0,3.184,2.224,3.184,3.648c0,0.288-0.016,0.512-0.047,0.672L369.305,174.545z M373.417,173.537      c0.016-0.88-0.368-2.288-1.936-2.288c-1.44,0-2.049,1.312-2.16,2.288H373.417z"/>
				<path i:knockout="Off" d="M382.841,177.905c-0.369,0.176-1.185,0.448-2.225,0.448c-2.336,0-3.855-1.584-3.855-3.968      s1.631-4.128,4.16-4.128c0.832,0,1.567,0.208,1.951,0.416l-0.32,1.072c-0.336-0.176-0.863-0.368-1.631-0.368      c-1.776,0-2.736,1.328-2.736,2.944c0,1.792,1.152,2.896,2.688,2.896c0.801,0,1.328-0.192,1.729-0.368L382.841,177.905z"/>
				<path i:knockout="Off" d="M386.697,173.985h0.032c0.192-0.272,0.448-0.624,0.672-0.88l2.288-2.672h1.68l-2.992,3.184l3.408,4.56      h-1.711l-2.656-3.728l-0.721,0.816v2.912h-1.408v-11.36h1.408V173.985z"/>
				<path i:knockout="Off" d="M298.452,204.433l1.04,3.92c0.208,0.864,0.416,1.68,0.56,2.48h0.048      c0.176-0.784,0.432-1.616,0.688-2.464l1.264-3.936h1.184l1.2,3.872c0.288,0.912,0.512,1.744,0.688,2.528h0.048      c0.128-0.784,0.336-1.6,0.592-2.512l1.104-3.888h1.392l-2.496,7.744h-1.28l-1.184-3.696c-0.272-0.88-0.496-1.648-0.688-2.56      h-0.032c-0.192,0.928-0.432,1.744-0.704,2.576l-1.248,3.68h-1.28l-2.336-7.744H298.452z"/>
				<path i:knockout="Off" d="M309.507,200.817h1.408v4.832h0.032c0.224-0.4,0.576-0.768,1.008-0.992      c0.416-0.256,0.912-0.4,1.44-0.4c1.04,0,2.704,0.64,2.704,3.312v4.608h-1.408v-4.448c0-1.264-0.464-2.304-1.792-2.304      c-0.912,0-1.616,0.64-1.888,1.408c-0.08,0.192-0.096,0.4-0.096,0.672v4.672h-1.408V200.817z"/>
				<path i:knockout="Off" d="M318.899,203.009c-0.528,0-0.88-0.416-0.88-0.912c0-0.496,0.368-0.896,0.912-0.896      s0.896,0.4,0.896,0.896c0,0.496-0.352,0.912-0.912,0.912H318.899z M318.228,212.177v-7.744h1.408v7.744H318.228z"/>
				<path i:knockout="Off" d="M327.331,211.905c-0.368,0.176-1.184,0.448-2.224,0.448c-2.336,0-3.856-1.584-3.856-3.968      s1.632-4.128,4.16-4.128c0.832,0,1.568,0.208,1.952,0.416l-0.32,1.072c-0.336-0.176-0.864-0.368-1.632-0.368      c-1.776,0-2.736,1.328-2.736,2.944c0,1.792,1.152,2.896,2.688,2.896c0.8,0,1.328-0.192,1.728-0.368L327.331,211.905z"/>
				<path i:knockout="Off" d="M328.819,200.817h1.408v4.832h0.032c0.224-0.4,0.576-0.768,1.008-0.992      c0.416-0.256,0.912-0.4,1.44-0.4c1.04,0,2.704,0.64,2.704,3.312v4.608h-1.408v-4.448c0-1.264-0.464-2.304-1.792-2.304      c-0.912,0-1.616,0.64-1.888,1.408c-0.08,0.192-0.096,0.4-0.096,0.672v4.672h-1.408V200.817z"/>
				<path i:knockout="Off" d="M347.251,210.065c0,0.8,0.016,1.504,0.064,2.112h-1.248l-0.08-1.264h-0.032      c-0.352,0.624-1.184,1.44-2.56,1.44c-1.216,0-2.672-0.688-2.672-3.392v-4.528h1.408v4.272c0,1.472,0.464,2.48,1.728,2.48      c0.944,0,1.6-0.656,1.856-1.296c0.08-0.192,0.128-0.448,0.128-0.72v-4.736h1.408V210.065z"/>
				<path i:knockout="Off" d="M349.427,206.529c0-0.816-0.016-1.456-0.064-2.096h1.248l0.08,1.264h0.032      c0.384-0.72,1.28-1.44,2.56-1.44c1.072,0,2.736,0.64,2.736,3.296v4.624h-1.408v-4.464c0-1.248-0.464-2.304-1.792-2.304      c-0.912,0-1.632,0.656-1.888,1.44c-0.064,0.176-0.096,0.432-0.096,0.656v4.672h-1.408V206.529z"/>
				<path i:knockout="Off" d="M358.819,203.009c-0.528,0-0.88-0.416-0.88-0.912c0-0.496,0.368-0.896,0.912-0.896      s0.896,0.4,0.896,0.896c0,0.496-0.353,0.912-0.913,0.912H358.819z M358.147,212.177v-7.744h1.408v7.744H358.147z"/>
				<path i:knockout="Off" d="M362.275,204.433l1.52,4.336c0.256,0.72,0.465,1.36,0.625,2h0.047c0.177-0.64,0.4-1.28,0.656-2      l1.504-4.336h1.473l-3.04,7.744h-1.345l-2.943-7.744H362.275z"/>
				<path i:knockout="Off" d="M369.89,208.545c0.032,1.904,1.232,2.688,2.641,2.688c1.008,0,1.631-0.176,2.144-0.384l0.256,0.992      c-0.496,0.224-1.36,0.496-2.592,0.496c-2.368,0-3.808-1.584-3.808-3.904c0-2.352,1.392-4.192,3.647-4.192      c2.528,0,3.185,2.224,3.185,3.648c0,0.288-0.017,0.512-0.049,0.672L369.89,208.545z M374.002,207.537      c0.016-0.88-0.368-2.288-1.937-2.288c-1.439,0-2.047,1.312-2.16,2.288H374.002z"/>
				<path i:knockout="Off" d="M376.962,206.849c0-0.912-0.016-1.696-0.063-2.416h1.231l0.064,1.52h0.048      c0.353-1.04,1.216-1.696,2.16-1.696c0.144,0,0.256,0.016,0.384,0.048v1.312c-0.16-0.016-0.304-0.032-0.496-0.032      c-0.992,0-1.695,0.752-1.888,1.792c-0.032,0.208-0.048,0.432-0.048,0.672v4.128h-1.408L376.962,206.849z"/>
				<path i:knockout="Off" d="M381.827,210.753c0.433,0.256,1.168,0.544,1.872,0.544c1.008,0,1.488-0.496,1.488-1.152      c0-0.672-0.4-1.04-1.424-1.424c-1.408-0.512-2.064-1.264-2.064-2.192c0-1.248,1.023-2.272,2.672-2.272      c0.783,0,1.472,0.208,1.888,0.48l-0.336,1.008c-0.304-0.176-0.864-0.448-1.584-0.448c-0.832,0-1.28,0.48-1.28,1.056      c0,0.656,0.448,0.944,1.457,1.328c1.327,0.496,2.031,1.168,2.031,2.336c0,1.376-1.072,2.336-2.88,2.336      c-0.849,0-1.632-0.224-2.176-0.544L381.827,210.753z"/>
				<path i:knockout="Off" d="M388.994,208.545c0.033,1.904,1.232,2.688,2.641,2.688c1.008,0,1.632-0.176,2.145-0.384l0.256,0.992      c-0.496,0.224-1.36,0.496-2.592,0.496c-2.369,0-3.809-1.584-3.809-3.904c0-2.352,1.393-4.192,3.648-4.192      c2.527,0,3.184,2.224,3.184,3.648c0,0.288-0.016,0.512-0.048,0.672L388.994,208.545z M393.107,207.537      c0.016-0.88-0.369-2.288-1.937-2.288c-1.44,0-2.048,1.312-2.16,2.288H393.107z"/>
				<path i:knockout="Off" d="M328.331,226.321c0,0.672,0.032,1.328,0.112,1.856h-1.264l-0.128-0.976h-0.048      c-0.416,0.608-1.264,1.152-2.368,1.152c-1.568,0-2.368-1.104-2.368-2.224c0-1.872,1.664-2.896,4.656-2.88v-0.16      c0-0.64-0.176-1.808-1.76-1.792c-0.736,0-1.488,0.208-2.032,0.576l-0.32-0.944c0.64-0.4,1.584-0.672,2.56-0.672      c2.384,0,2.96,1.616,2.96,3.168V226.321z M326.955,224.225c-1.536-0.032-3.28,0.24-3.28,1.744c0,0.928,0.608,1.344,1.312,1.344      c1.024,0,1.68-0.64,1.904-1.296c0.048-0.144,0.064-0.304,0.064-0.448V224.225z"/>
				<path i:knockout="Off" d="M330.443,222.849c0-0.912-0.016-1.696-0.064-2.416h1.232l0.064,1.52h0.048      c0.352-1.04,1.216-1.696,2.16-1.696c0.144,0,0.256,0.016,0.384,0.048v1.312c-0.16-0.016-0.304-0.032-0.496-0.032      c-0.992,0-1.696,0.752-1.888,1.792c-0.032,0.208-0.048,0.432-0.048,0.672v4.128h-1.408L330.443,222.849z"/>
				<path i:knockout="Off" d="M336.205,224.545c0.032,1.904,1.232,2.688,2.64,2.688c1.008,0,1.632-0.176,2.144-0.384l0.256,0.992      c-0.496,0.224-1.36,0.496-2.592,0.496c-2.368,0-3.808-1.584-3.808-3.904c0-2.352,1.392-4.192,3.648-4.192      c2.528,0,3.184,2.224,3.184,3.648c0,0.288-0.016,0.512-0.048,0.672L336.205,224.545z M340.317,223.537      c0.016-0.88-0.368-2.288-1.936-2.288c-1.44,0-2.048,1.312-2.16,2.288H340.317z"/>
				<path i:knockout="Off" d="M347.005,220.433l1.68,4.576c0.192,0.512,0.384,1.12,0.512,1.584h0.032      c0.144-0.464,0.304-1.056,0.496-1.616l1.536-4.544h1.488l-2.112,5.52c-1.008,2.656-1.696,4.016-2.656,4.864      c-0.704,0.592-1.376,0.832-1.728,0.896l-0.352-1.184c0.352-0.096,0.816-0.32,1.232-0.688c0.384-0.304,0.848-0.848,1.184-1.568      c0.064-0.144,0.112-0.24,0.112-0.336c0-0.08-0.032-0.192-0.112-0.352l-2.848-7.152H347.005z"/>
				<path i:knockout="Off" d="M356.865,228.353c-2.08,0-3.712-1.536-3.712-3.984c0-2.592,1.712-4.112,3.84-4.112      c2.224,0,3.728,1.616,3.728,3.968c0,2.88-2,4.128-3.839,4.128H356.865z M356.913,227.297c1.344,0,2.352-1.264,2.352-3.024      c0-1.312-0.656-2.96-2.32-2.96c-1.648,0-2.368,1.536-2.368,3.008c0,1.696,0.96,2.976,2.32,2.976H356.913z"/>
				<path i:knockout="Off" d="M368.816,226.065c0,0.8,0.017,1.504,0.064,2.112h-1.248l-0.08-1.264h-0.031      c-0.353,0.624-1.185,1.44-2.561,1.44c-1.216,0-2.672-0.688-2.672-3.392v-4.528h1.408v4.272c0,1.472,0.464,2.48,1.728,2.48      c0.944,0,1.601-0.656,1.856-1.296c0.08-0.192,0.127-0.448,0.127-0.72v-4.736h1.408V226.065z"/>
				<path i:knockout="Off" d="M307.147,243.905c-0.368,0.176-1.184,0.448-2.224,0.448c-2.336,0-3.856-1.584-3.856-3.968      s1.632-4.128,4.16-4.128c0.832,0,1.568,0.208,1.952,0.416l-0.32,1.072c-0.336-0.176-0.864-0.368-1.632-0.368      c-1.776,0-2.736,1.328-2.736,2.944c0,1.792,1.152,2.896,2.688,2.896c0.8,0,1.328-0.192,1.728-0.368L307.147,243.905z"/>
				<path i:knockout="Off" d="M311.693,244.353c-2.08,0-3.712-1.536-3.712-3.984c0-2.592,1.712-4.112,3.84-4.112      c2.224,0,3.728,1.616,3.728,3.968c0,2.88-2,4.128-3.84,4.128H311.693z M311.741,243.297c1.344,0,2.352-1.264,2.352-3.024      c0-1.312-0.656-2.96-2.32-2.96c-1.648,0-2.368,1.536-2.368,3.008c0,1.696,0.96,2.976,2.32,2.976H311.741z"/>
				<path i:knockout="Off" d="M317.166,238.529c0-0.816-0.032-1.456-0.064-2.096h1.232l0.064,1.248h0.048      c0.432-0.736,1.152-1.424,2.448-1.424c1.04,0,1.84,0.64,2.176,1.552h0.032c0.24-0.448,0.56-0.768,0.88-1.008      c0.464-0.352,0.96-0.544,1.696-0.544c1.04,0,2.56,0.672,2.56,3.36v4.56h-1.376v-4.384c0-1.504-0.56-2.384-1.68-2.384      c-0.816,0-1.424,0.592-1.68,1.264c-0.064,0.208-0.112,0.464-0.112,0.704v4.8h-1.376v-4.64c0-1.248-0.544-2.128-1.616-2.128      c-0.864,0-1.52,0.704-1.744,1.408c-0.08,0.208-0.112,0.448-0.112,0.688v4.672h-1.376V238.529z"/>
				<path i:knockout="Off" d="M331.021,235.009c-0.528,0-0.88-0.416-0.88-0.912c0-0.496,0.368-0.896,0.912-0.896      s0.896,0.4,0.896,0.896c0,0.496-0.352,0.912-0.912,0.912H331.021z M330.349,244.177v-7.744h1.408v7.744H330.349z"/>
				<path i:knockout="Off" d="M333.933,238.529c0-0.816-0.016-1.456-0.064-2.096h1.248l0.08,1.264h0.032      c0.384-0.72,1.28-1.44,2.56-1.44c1.072,0,2.736,0.64,2.736,3.296v4.624h-1.408v-4.464c0-1.248-0.464-2.304-1.792-2.304      c-0.912,0-1.632,0.656-1.888,1.44c-0.064,0.176-0.096,0.432-0.096,0.656v4.672h-1.408V238.529z"/>
				<path i:knockout="Off" d="M349.277,243.041c0,1.792-0.368,2.864-1.104,3.552c-0.768,0.688-1.856,0.928-2.832,0.928      c-0.928,0-1.952-0.224-2.576-0.64l0.352-1.088c0.512,0.336,1.312,0.624,2.272,0.624c1.44,0,2.496-0.752,2.496-2.72v-0.848      h-0.032c-0.416,0.72-1.264,1.296-2.464,1.296c-1.92,0-3.296-1.632-3.296-3.792c0-2.624,1.712-4.096,3.504-4.096      c1.344,0,2.064,0.688,2.416,1.328h0.032l0.048-1.152h1.248c-0.048,0.544-0.064,1.168-0.064,2.112V243.041z M347.869,239.473      c0-0.224-0.016-0.432-0.08-0.624c-0.256-0.832-0.928-1.504-1.968-1.504c-1.344,0-2.304,1.136-2.304,2.944      c0,1.504,0.784,2.784,2.288,2.784c0.88,0,1.664-0.544,1.952-1.456c0.08-0.224,0.112-0.496,0.112-0.752V239.473z"/>
				<path i:knockout="Off" d="M354.796,244.177v-6.672h-1.072v-1.072h1.072v-0.368c0-1.088,0.256-2.08,0.912-2.704      c0.528-0.512,1.232-0.72,1.872-0.72c0.512,0,0.928,0.112,1.2,0.224l-0.176,1.088c-0.224-0.096-0.496-0.176-0.912-0.176      c-1.184,0-1.504,1.056-1.504,2.24v0.416h1.872v1.072h-1.856v6.672H354.796z"/>
				<path i:knockout="Off" d="M359.197,238.849c0-0.912-0.016-1.696-0.064-2.416h1.232l0.064,1.52h0.047      c0.353-1.04,1.217-1.696,2.16-1.696c0.145,0,0.256,0.016,0.385,0.048v1.312c-0.16-0.016-0.305-0.032-0.496-0.032      c-0.992,0-1.696,0.752-1.889,1.792c-0.031,0.208-0.047,0.432-0.047,0.672v4.128h-1.408L359.197,238.849z"/>
				<path i:knockout="Off" d="M367.31,244.353c-2.08,0-3.711-1.536-3.711-3.984c0-2.592,1.711-4.112,3.84-4.112      c2.224,0,3.728,1.616,3.728,3.968c0,2.88-2,4.128-3.84,4.128H367.31z M367.359,243.297c1.344,0,2.352-1.264,2.352-3.024      c0-1.312-0.656-2.96-2.32-2.96c-1.647,0-2.367,1.536-2.367,3.008c0,1.696,0.96,2.976,2.32,2.976H367.359z"/>
				<path i:knockout="Off" d="M372.783,238.529c0-0.816-0.032-1.456-0.064-2.096h1.232l0.064,1.248h0.047      c0.433-0.736,1.152-1.424,2.449-1.424c1.039,0,1.84,0.64,2.176,1.552h0.031c0.24-0.448,0.561-0.768,0.881-1.008      c0.463-0.352,0.959-0.544,1.695-0.544c1.04,0,2.561,0.672,2.561,3.36v4.56h-1.377v-4.384c0-1.504-0.56-2.384-1.68-2.384      c-0.816,0-1.424,0.592-1.68,1.264c-0.064,0.208-0.111,0.464-0.111,0.704v4.8h-1.377v-4.64c0-1.248-0.543-2.128-1.615-2.128      c-0.864,0-1.521,0.704-1.744,1.408c-0.08,0.208-0.112,0.448-0.112,0.688v4.672h-1.376V238.529z"/>
				<path i:knockout="Off" d="M387.054,241.121l-0.031-0.416c-0.096-0.864,0.191-1.808,0.992-2.768      c0.72-0.848,1.119-1.472,1.119-2.176c0-0.816-0.512-1.376-1.52-1.376c-0.576,0-1.216,0.176-1.615,0.496l-0.385-1.008      c0.544-0.4,1.439-0.656,2.288-0.656c1.84,0,2.672,1.152,2.672,2.368c0,1.072-0.608,1.872-1.376,2.768      c-0.704,0.832-0.96,1.536-0.912,2.352l0.032,0.416H387.054z M387.647,244.353c-0.544,0-0.929-0.432-0.929-0.992      c0-0.592,0.4-1.008,0.944-1.008c0.576,0,0.944,0.416,0.944,1.008c0,0.56-0.368,0.992-0.944,0.992H387.647z"/>
			</g>
			<g i:knockout="On" a:adobe-knockout="true">
				<polygon i:knockout="Off" fill="#FFFFFF" stroke="#000000" a:adobe-knockout="false" points="500.417,161.083 505.403,169.719       510.389,161.083 "/>
			</g>
			<g>
				<g>
					<path i:knockout="Off" fill="#CCCCCC" d="M569.028,342.635c0,3.118-2.551,5.669-5.669,5.669H462.197       c-3.118,0-5.669-2.551-5.669-5.669v-93.628c0-3.118,2.551-5.669,5.669-5.669h101.162c3.118,0,5.669,2.551,5.669,5.669V342.635z       "/>
					<linearGradient id="XMLID_15_" gradientUnits="userSpaceOnUse" x1="257.7153" y1="290.8208" x2="598.8378" y2="290.8208">
						<stop offset="0" style="stop-color:#169133"/>
						<stop offset="1" style="stop-color:#FFFFFF"/>
						<a:midPointStop offset="0" style="stop-color:#169133"/>
						<a:midPointStop offset="0.5" style="stop-color:#169133"/>
						<a:midPointStop offset="1" style="stop-color:#FFFFFF"/>
					</linearGradient>
					<path i:knockout="Off" fill="url(#XMLID_15_)" stroke="#000000" d="M562.028,337.635c0,3.118-2.551,5.669-5.669,5.669H455.197       c-3.118,0-5.669-2.551-5.669-5.669v-93.628c0-3.118,2.551-5.669,5.669-5.669h101.162c3.118,0,5.669,2.551,5.669,5.669V337.635z       "/>
				</g>
				<linearGradient id="XMLID_16_" gradientUnits="userSpaceOnUse" x1="384.3228" y1="254.5029" x2="640.7777" y2="254.5029">
					<stop offset="0" style="stop-color:#169197"/>
					<stop offset="1" style="stop-color:#FFFFFF"/>
					<a:midPointStop offset="0" style="stop-color:#169197"/>
					<a:midPointStop offset="0.5" style="stop-color:#169197"/>
					<a:midPointStop offset="1" style="stop-color:#FFFFFF"/>
				</linearGradient>
				<path i:knockout="Off" fill="url(#XMLID_16_)" stroke="#000000" d="M449.528,270.668v-26.662c0-3.118,2.551-5.669,5.669-5.669      h101.162c3.118,0,5.669,2.551,5.669,5.669v26.662H449.528z"/>
			</g>
			<g i:knockout="Off">
				<path i:knockout="Off" d="M472.024,259.991v-6.672h-1.071v-1.072h1.071v-0.368c0-1.088,0.256-2.08,0.912-2.704      c0.528-0.512,1.231-0.72,1.872-0.72c0.512,0,0.928,0.112,1.199,0.224l-0.176,1.088c-0.224-0.096-0.496-0.176-0.912-0.176      c-1.184,0-1.504,1.056-1.504,2.24v0.416h1.873v1.072h-1.856v6.672H472.024z"/>
				<path i:knockout="Off" d="M477.24,250.823c-0.527,0-0.88-0.416-0.88-0.912c0-0.496,0.368-0.896,0.912-0.896      s0.896,0.4,0.896,0.896c0,0.496-0.352,0.912-0.912,0.912H477.24z M476.568,259.991v-7.744h1.408v7.744H476.568z"/>
				<path i:knockout="Off" d="M480.968,252.247l1.104,1.648c0.288,0.448,0.528,0.832,0.784,1.264h0.048      c0.256-0.448,0.512-0.848,0.784-1.264l1.071-1.648h1.537l-2.641,3.744l2.704,4h-1.601l-1.135-1.744      c-0.305-0.448-0.561-0.88-0.832-1.344h-0.033c-0.256,0.464-0.527,0.88-0.815,1.344l-1.12,1.744h-1.552l2.752-3.952l-2.624-3.792      H480.968z"/>
				<path i:knockout="Off" d="M488.281,256.359c0.033,1.904,1.232,2.688,2.641,2.688c1.008,0,1.632-0.176,2.145-0.384l0.256,0.992      c-0.496,0.224-1.36,0.496-2.592,0.496c-2.369,0-3.809-1.584-3.809-3.904c0-2.352,1.393-4.192,3.648-4.192      c2.527,0,3.184,2.224,3.184,3.648c0,0.288-0.016,0.512-0.048,0.672L488.281,256.359z M492.394,255.351      c0.016-0.88-0.369-2.288-1.937-2.288c-1.44,0-2.048,1.312-2.16,2.288H492.394z"/>
				<path i:knockout="Off" d="M502.185,248.631v9.36c0,0.688,0.017,1.472,0.064,2h-1.264l-0.064-1.344h-0.031      c-0.433,0.864-1.361,1.52-2.625,1.52c-1.871,0-3.328-1.584-3.328-3.936c-0.016-2.592,1.601-4.16,3.473-4.16      c1.199,0,2,0.56,2.336,1.168h0.031v-4.608H502.185z M500.777,255.399c0-0.192-0.016-0.416-0.063-0.608      c-0.208-0.88-0.976-1.616-2.032-1.616c-1.455,0-2.32,1.28-2.32,2.976c0,1.584,0.785,2.88,2.289,2.88      c0.943,0,1.808-0.64,2.063-1.68c0.048-0.192,0.063-0.384,0.063-0.608V255.399z"/>
				<path i:knockout="Off" d="M511.353,261.191v0.8h-8v-0.8H511.353z"/>
				<path i:knockout="Off" d="M512.649,259.991v-6.672h-1.071v-1.072h1.071v-0.368c0-1.088,0.256-2.08,0.912-2.704      c0.528-0.512,1.231-0.72,1.872-0.72c0.512,0,0.928,0.112,1.199,0.224l-0.176,1.088c-0.224-0.096-0.496-0.176-0.912-0.176      c-1.184,0-1.504,1.056-1.504,2.24v0.416h1.873v1.072h-1.856v6.672H512.649z"/>
				<path i:knockout="Off" d="M523.673,257.879c0,0.8,0.016,1.504,0.063,2.112h-1.248l-0.08-1.264h-0.032      c-0.352,0.624-1.184,1.44-2.56,1.44c-1.216,0-2.672-0.688-2.672-3.392v-4.528h1.407v4.272c0,1.472,0.465,2.48,1.729,2.48      c0.943,0,1.6-0.656,1.855-1.296c0.08-0.192,0.129-0.448,0.129-0.72v-4.736h1.408V257.879z"/>
				<path i:knockout="Off" d="M526.009,254.343c0-0.816-0.016-1.456-0.064-2.096h1.248l0.08,1.264h0.032      c0.384-0.72,1.28-1.44,2.56-1.44c1.072,0,2.736,0.64,2.736,3.296v4.624h-1.408v-4.464c0-1.248-0.464-2.304-1.791-2.304      c-0.912,0-1.633,0.656-1.889,1.44c-0.064,0.176-0.096,0.432-0.096,0.656v4.672h-1.408V254.343z"/>
				<path i:knockout="Off" d="M540.41,259.719c-0.369,0.176-1.185,0.448-2.225,0.448c-2.336,0-3.855-1.584-3.855-3.968      s1.631-4.128,4.16-4.128c0.832,0,1.567,0.208,1.951,0.416l-0.32,1.072c-0.336-0.176-0.863-0.368-1.631-0.368      c-1.776,0-2.736,1.328-2.736,2.944c0,1.792,1.152,2.896,2.688,2.896c0.801,0,1.328-0.192,1.729-0.368L540.41,259.719z"/>
			</g>
			<g i:knockout="On" a:adobe-knockout="true">
				<polygon i:knockout="Off" fill="#FFFFFF" stroke="#000000" a:adobe-knockout="false" points="500.417,321.083 505.403,329.719       510.389,321.083 "/>
			</g>
			<g i:knockout="On" a:adobe-knockout="true">
				<g i:knockout="On">
					
						<line i:knockout="Off" fill="#FFFFFF" stroke="#000000" a:adobe-knockout="false" x1="264.011" y1="175.103" x2="280.941" y2="175.103"/>
				</g>
				<polygon i:knockout="Off" fill="#FFFFFF" stroke="#000000" a:adobe-knockout="false" points="279.482,180.104 288.118,175.118       279.482,170.132 "/>
			</g>
			<polyline i:knockout="Off" fill="none" stroke="#000000" points="505.388,343.563 505.388,360.321 263.823,360.321 "/>
			<g i:knockout="On" a:adobe-knockout="true">
				<g i:knockout="On">
					
						<line i:knockout="Off" fill="#FFFFFF" stroke="#000000" a:adobe-knockout="false" x1="424.194" y1="201.509" x2="424.194" y2="96.007"/>
				</g>
			</g>
			<g i:knockout="On" a:adobe-knockout="true">
				<g i:knockout="On">
					
						<line i:knockout="Off" fill="#FFFFFF" stroke="#000000" a:adobe-knockout="false" x1="423.702" y1="95.961" x2="440.765" y2="95.961"/>
				</g>
				<polygon i:knockout="Off" fill="#FFFFFF" stroke="#000000" a:adobe-knockout="false" points="439.306,100.962 447.943,95.977       439.306,90.992 "/>
			</g>
			<line i:knockout="Off" fill="none" stroke="#000000" x1="401.929" y1="201.018" x2="424.653" y2="201.018"/>
			<g i:knockout="On" a:adobe-knockout="true">
				<g i:knockout="On">
					
						<line i:knockout="Off" fill="#FFFFFF" stroke="#000000" a:adobe-knockout="false" x1="424.194" y1="218.554" x2="424.194" y2="256.023"/>
				</g>
			</g>
			<g i:knockout="On" a:adobe-knockout="true">
				<g i:knockout="On">
					
						<line i:knockout="Off" fill="#FFFFFF" stroke="#000000" a:adobe-knockout="false" x1="423.702" y1="256.068" x2="440.765" y2="256.068"/>
				</g>
				<polygon i:knockout="Off" fill="#FFFFFF" stroke="#000000" a:adobe-knockout="false" points="439.306,251.067 447.943,256.053       439.306,261.038 "/>
			</g>
			<line i:knockout="Off" fill="none" stroke="#000000" x1="401.929" y1="219.045" x2="424.653" y2="219.045"/>
			<g i:knockout="On" a:adobe-knockout="true">
				<g i:knockout="On">
					
						<line i:knockout="Off" fill="#FFFFFF" stroke="#000000" a:adobe-knockout="false" x1="581.446" y1="199.795" x2="581.446" y2="360.756"/>
				</g>
			</g>
			<polyline i:knockout="Off" fill="none" stroke="#000000" points="505.388,183.296 505.388,200.054 581.954,200.054 "/>
			<g i:knockout="On" a:adobe-knockout="true">
				<g i:knockout="On">
					
						<line i:knockout="Off" fill="#FFFFFF" stroke="#000000" a:adobe-knockout="false" x1="104.327" y1="357.066" x2="104.327" y2="105.859"/>
				</g>
			</g>
			<g i:knockout="On" a:adobe-knockout="true">
				<g i:knockout="On">
					
						<line i:knockout="Off" fill="#FFFFFF" stroke="#000000" a:adobe-knockout="false" x1="103.846" y1="105.907" x2="165.694" y2="105.907"/>
					
						<line i:knockout="Off" fill="#FFFFFF" stroke="#000000" a:adobe-knockout="false" x1="505.351" y1="360.329" x2="581.941" y2="360.329"/>
				</g>
			</g>
			<line i:knockout="Off" fill="none" stroke="#B3B3B3" stroke-width="2" x1="11.373" y1="52.443" x2="683.783" y2="52.443"/>
			<g i:knockout="On" a:adobe-knockout="true">
				<g i:knockout="On">
					
						<line i:knockout="Off" fill="#FFFFFF" stroke="#000000" a:adobe-knockout="false" x1="181.083" y1="15.86" x2="181.083" y2="115.126"/>
				</g>
				<polygon i:knockout="Off" fill="#FFFFFF" stroke="#000000" a:adobe-knockout="false" points="176.083,113.667 181.068,122.303       186.053,113.667 "/>
			</g>
			<g>
				<circle i:knockout="Off" cx="505.422" cy="283.907" r="0.953"/> 
				<circle i:knockout="Off" cx="505.422" cy="288.126" r="0.953"/> 
				<circle i:knockout="Off" cx="505.422" cy="292.345" r="0.953"/> 
				<circle i:knockout="Off" cx="505.422" cy="296.563" r="0.953"/> 
				<circle i:knockout="Off" cx="505.422" cy="300.782" r="0.953"/> 
				<circle i:knockout="Off" cx="505.422" cy="305.001" r="0.953"/> 
				<circle i:knockout="Off" cx="505.422" cy="309.22" r="0.953"/> 
				<circle i:knockout="Off" cx="505.422" cy="313.438" r="0.953"/> 
				<circle i:knockout="Off" cx="505.422" cy="317.657" r="0.953"/> 
			</g>
			<g>
				<circle i:knockout="Off" cx="505.422" cy="123.881" r="0.953"/> 
				<circle i:knockout="Off" cx="505.422" cy="128.1" r="0.953"/> 
				<circle i:knockout="Off" cx="505.422" cy="132.319" r="0.953"/> 
				<circle i:knockout="Off" cx="505.422" cy="136.538" r="0.953"/> 
				<circle i:knockout="Off" cx="505.422" cy="140.756" r="0.953"/> 
				<circle i:knockout="Off" cx="505.422" cy="144.975" r="0.953"/> 
				<circle i:knockout="Off" cx="505.422" cy="149.194" r="0.953"/> 
				<circle i:knockout="Off" cx="505.422" cy="153.413" r="0.953"/> 
				<circle i:knockout="Off" cx="505.422" cy="157.631" r="0.953"/> 
			</g>
			<g i:knockout="On" a:adobe-knockout="true">
				<g i:knockout="On">
					
						<line i:knockout="Off" fill="#FFFFFF" stroke="#000000" a:adobe-knockout="false" x1="165.739" y1="106.398" x2="165.739" y2="24.108"/>
					
						<line i:knockout="Off" fill="#FFFFFF" stroke="#000000" a:adobe-knockout="false" x1="264.501" y1="255.606" x2="264.501" y2="175.016"/>
				</g>
				<polygon i:knockout="Off" fill="#FFFFFF" stroke="#000000" a:adobe-knockout="false" points="160.738,25.567 165.724,16.93       170.709,25.567 "/>
			</g>
			<g i:knockout="Off">
				<path i:knockout="Off" d="M190.109,39.023c0-1.054-0.017-1.904-0.068-2.686h1.343l0.085,1.411h0.034      c0.595-1.02,1.581-1.598,2.907-1.598c2.006,0,3.502,1.683,3.502,4.182c0,2.958-1.819,4.42-3.74,4.42      c-1.105,0-2.04-0.476-2.533-1.292h-0.034v4.471h-1.496V39.023z M191.605,41.216c0,0.204,0.017,0.425,0.068,0.612      c0.255,1.037,1.173,1.751,2.227,1.751c1.581,0,2.499-1.292,2.499-3.179c0-1.649-0.85-3.06-2.431-3.06      c-1.02,0-1.989,0.714-2.278,1.836c-0.034,0.204-0.085,0.425-0.085,0.612V41.216z"/>
				<path i:knockout="Off" d="M200.648,40.707c0.034,2.023,1.309,2.856,2.805,2.856c1.071,0,1.734-0.187,2.278-0.408l0.272,1.054      c-0.527,0.238-1.445,0.527-2.754,0.527c-2.516,0-4.046-1.683-4.046-4.148c0-2.499,1.479-4.454,3.876-4.454      c2.686,0,3.383,2.363,3.383,3.876c0,0.306-0.017,0.544-0.051,0.714L200.648,40.707z M205.018,39.635      c0.017-0.935-0.391-2.431-2.057-2.431c-1.53,0-2.176,1.394-2.295,2.431H205.018z"/>
				<path i:knockout="Off" d="M208.332,38.904c0-0.969-0.017-1.802-0.068-2.567h1.309l0.068,1.615h0.051      c0.374-1.105,1.292-1.802,2.295-1.802c0.153,0,0.272,0.017,0.408,0.051v1.394c-0.17-0.017-0.323-0.034-0.527-0.034      c-1.054,0-1.802,0.799-2.006,1.904c-0.034,0.221-0.051,0.459-0.051,0.714v4.386h-1.496L208.332,38.904z"/>
				<path i:knockout="Off" d="M217.342,39.431v1.088h-4.199v-1.088H217.342z"/>
				<path i:knockout="Off" d="M219.093,39.023c0-1.054-0.017-1.904-0.068-2.686h1.343l0.085,1.411h0.034      c0.595-1.02,1.581-1.598,2.907-1.598c2.006,0,3.502,1.683,3.502,4.182c0,2.958-1.819,4.42-3.74,4.42      c-1.105,0-2.04-0.476-2.533-1.292h-0.034v4.471h-1.496V39.023z M220.589,41.216c0,0.204,0.017,0.425,0.068,0.612      c0.255,1.037,1.173,1.751,2.227,1.751c1.581,0,2.499-1.292,2.499-3.179c0-1.649-0.85-3.06-2.431-3.06      c-1.02,0-1.989,0.714-2.278,1.836c-0.034,0.204-0.085,0.425-0.085,0.612V41.216z"/>
				<path i:knockout="Off" d="M228.783,38.904c0-0.969-0.017-1.802-0.068-2.567h1.309l0.068,1.615h0.051      c0.374-1.105,1.292-1.802,2.295-1.802c0.153,0,0.272,0.017,0.408,0.051v1.394c-0.17-0.017-0.323-0.034-0.527-0.034      c-1.054,0-1.802,0.799-2.006,1.904c-0.034,0.221-0.051,0.459-0.051,0.714v4.386h-1.496L228.783,38.904z"/>
				<path i:knockout="Off" d="M237.574,44.752c-2.21,0-3.944-1.632-3.944-4.233c0-2.754,1.819-4.369,4.08-4.369      c2.363,0,3.961,1.717,3.961,4.216c0,3.06-2.125,4.386-4.08,4.386H237.574z M237.625,43.63c1.428,0,2.499-1.343,2.499-3.213      c0-1.394-0.697-3.145-2.465-3.145c-1.751,0-2.516,1.632-2.516,3.196c0,1.802,1.02,3.162,2.465,3.162H237.625z"/>
				<path i:knockout="Off" d="M249.44,44.276c-0.391,0.187-1.258,0.476-2.363,0.476c-2.482,0-4.097-1.683-4.097-4.216      c0-2.533,1.734-4.386,4.42-4.386c0.884,0,1.666,0.221,2.074,0.442l-0.34,1.139c-0.357-0.187-0.918-0.391-1.734-0.391      c-1.887,0-2.907,1.411-2.907,3.128c0,1.904,1.224,3.077,2.856,3.077c0.85,0,1.411-0.204,1.836-0.391L249.44,44.276z"/>
				<path i:knockout="Off" d="M251.941,40.707c0.034,2.023,1.309,2.856,2.805,2.856c1.071,0,1.734-0.187,2.278-0.408l0.271,1.054      c-0.526,0.238-1.445,0.527-2.754,0.527c-2.516,0-4.046-1.683-4.046-4.148c0-2.499,1.479-4.454,3.876-4.454      c2.687,0,3.383,2.363,3.383,3.876c0,0.306-0.017,0.544-0.051,0.714L251.941,40.707z M256.311,39.635      c0.017-0.935-0.392-2.431-2.058-2.431c-1.53,0-2.176,1.394-2.295,2.431H256.311z"/>
				<path i:knockout="Off" d="M259.404,43.052c0.459,0.272,1.241,0.578,1.989,0.578c1.07,0,1.581-0.527,1.581-1.224      c0-0.714-0.426-1.105-1.514-1.513c-1.496-0.544-2.192-1.343-2.192-2.329c0-1.326,1.088-2.414,2.839-2.414      c0.833,0,1.563,0.221,2.006,0.51l-0.357,1.071c-0.322-0.187-0.918-0.476-1.683-0.476c-0.884,0-1.36,0.51-1.36,1.122      c0,0.697,0.477,1.003,1.547,1.411c1.411,0.527,2.159,1.241,2.159,2.482c0,1.462-1.139,2.482-3.06,2.482      c-0.901,0-1.734-0.238-2.312-0.578L259.404,43.052z"/>
				<path i:knockout="Off" d="M266.136,43.052c0.459,0.272,1.241,0.578,1.989,0.578c1.07,0,1.581-0.527,1.581-1.224      c0-0.714-0.426-1.105-1.514-1.513C266.696,40.35,266,39.55,266,38.564c0-1.326,1.088-2.414,2.839-2.414      c0.833,0,1.563,0.221,2.006,0.51l-0.357,1.071c-0.322-0.187-0.918-0.476-1.683-0.476c-0.884,0-1.36,0.51-1.36,1.122      c0,0.697,0.477,1.003,1.547,1.411c1.411,0.527,2.159,1.241,2.159,2.482c0,1.462-1.139,2.482-3.06,2.482      c-0.901,0-1.734-0.238-2.312-0.578L266.136,43.052z"/>
				<path i:knockout="Off" d="M276.029,36.949c0.392-1.428,1.122-3.264,1.581-4.046l0.952-0.102      c-0.356,1.003-0.815,2.754-1.003,3.978L276.029,36.949z M278.546,36.949c0.391-1.428,1.122-3.264,1.581-4.046l0.952-0.102      c-0.374,1.003-0.816,2.754-1.004,3.978L278.546,36.949z"/>
				<path i:knockout="Off" d="M282.304,38.564c0-0.867-0.018-1.547-0.068-2.227h1.326l0.085,1.343h0.034      c0.408-0.765,1.36-1.53,2.72-1.53c1.14,0,2.907,0.68,2.907,3.502v4.913h-1.496v-4.743c0-1.326-0.493-2.448-1.904-2.448      c-0.969,0-1.733,0.697-2.006,1.53c-0.067,0.187-0.102,0.459-0.102,0.697v4.964h-1.496V38.564z"/>
				<path i:knockout="Off" d="M292.588,40.707c0.034,2.023,1.31,2.856,2.806,2.856c1.07,0,1.733-0.187,2.277-0.408l0.272,1.054      c-0.527,0.238-1.445,0.527-2.754,0.527c-2.517,0-4.046-1.683-4.046-4.148c0-2.499,1.479-4.454,3.876-4.454      c2.686,0,3.383,2.363,3.383,3.876c0,0.306-0.018,0.544-0.051,0.714L292.588,40.707z M296.957,39.635      c0.018-0.935-0.391-2.431-2.057-2.431c-1.53,0-2.177,1.394-2.295,2.431H296.957z"/>
				<path i:knockout="Off" d="M300.85,36.337l1.105,4.165c0.221,0.918,0.441,1.785,0.595,2.635h0.051      c0.188-0.833,0.459-1.717,0.731-2.618l1.343-4.182h1.258l1.275,4.114c0.306,0.969,0.544,1.853,0.73,2.686h0.052      c0.136-0.833,0.356-1.7,0.629-2.669l1.173-4.131h1.479l-2.651,8.228h-1.36l-1.258-3.927c-0.289-0.935-0.527-1.751-0.731-2.72      h-0.034c-0.203,0.986-0.459,1.853-0.748,2.737l-1.325,3.91h-1.36l-2.482-8.228H300.85z"/>
				<path i:knockout="Off" d="M323.256,42.321c0,0.85,0.018,1.598,0.068,2.244h-1.326l-0.085-1.343h-0.034      c-0.374,0.663-1.258,1.53-2.72,1.53c-1.292,0-2.839-0.731-2.839-3.604v-4.811h1.495v4.539c0,1.564,0.493,2.635,1.837,2.635      c1.003,0,1.699-0.697,1.972-1.377c0.085-0.204,0.136-0.476,0.136-0.765v-5.032h1.496V42.321z"/>
				<path i:knockout="Off" d="M325.738,38.564c0-0.867-0.018-1.547-0.068-2.227h1.326l0.085,1.343h0.034      c0.408-0.765,1.36-1.53,2.72-1.53c1.14,0,2.907,0.68,2.907,3.502v4.913h-1.496v-4.743c0-1.326-0.493-2.448-1.904-2.448      c-0.969,0-1.733,0.697-2.006,1.53c-0.067,0.187-0.102,0.459-0.102,0.697v4.964h-1.496V38.564z"/>
				<path i:knockout="Off" d="M335.887,34.824c-0.562,0-0.936-0.442-0.936-0.969c0-0.527,0.392-0.952,0.97-0.952      s0.952,0.425,0.952,0.952c0,0.527-0.374,0.969-0.97,0.969H335.887z M335.173,44.565v-8.228h1.496v8.228H335.173z"/>
				<path i:knockout="Off" d="M339.729,36.337l1.614,4.607c0.272,0.765,0.493,1.445,0.663,2.125h0.052      c0.187-0.68,0.425-1.36,0.696-2.125l1.599-4.607h1.563l-3.229,8.228h-1.429l-3.128-8.228H339.729z"/>
				<path i:knockout="Off" d="M347.99,40.707c0.034,2.023,1.31,2.856,2.806,2.856c1.07,0,1.733-0.187,2.277-0.408l0.272,1.054      c-0.527,0.238-1.445,0.527-2.754,0.527c-2.517,0-4.046-1.683-4.046-4.148c0-2.499,1.479-4.454,3.876-4.454      c2.686,0,3.383,2.363,3.383,3.876c0,0.306-0.018,0.544-0.051,0.714L347.99,40.707z M352.359,39.635      c0.018-0.935-0.391-2.431-2.057-2.431c-1.53,0-2.177,1.394-2.295,2.431H352.359z"/>
				<path i:knockout="Off" d="M355.674,38.904c0-0.969-0.017-1.802-0.067-2.567h1.309l0.068,1.615h0.051      c0.374-1.105,1.292-1.802,2.295-1.802c0.152,0,0.271,0.017,0.408,0.051v1.394c-0.17-0.017-0.324-0.034-0.527-0.034      c-1.054,0-1.802,0.799-2.006,1.904c-0.034,0.221-0.051,0.459-0.051,0.714v4.386h-1.496L355.674,38.904z"/>
				<path i:knockout="Off" d="M361.013,43.052c0.459,0.272,1.24,0.578,1.988,0.578c1.07,0,1.582-0.527,1.582-1.224      c0-0.714-0.426-1.105-1.514-1.513c-1.496-0.544-2.193-1.343-2.193-2.329c0-1.326,1.088-2.414,2.84-2.414      c0.832,0,1.562,0.221,2.006,0.51l-0.357,1.071c-0.322-0.187-0.918-0.476-1.684-0.476c-0.883,0-1.359,0.51-1.359,1.122      c0,0.697,0.477,1.003,1.547,1.411c1.41,0.527,2.158,1.241,2.158,2.482c0,1.462-1.139,2.482-3.059,2.482      c-0.902,0-1.734-0.238-2.312-0.578L361.013,43.052z"/>
				<path i:knockout="Off" d="M368.798,40.707c0.033,2.023,1.309,2.856,2.805,2.856c1.07,0,1.734-0.187,2.277-0.408l0.273,1.054      c-0.527,0.238-1.445,0.527-2.754,0.527c-2.518,0-4.047-1.683-4.047-4.148c0-2.499,1.479-4.454,3.877-4.454      c2.686,0,3.383,2.363,3.383,3.876c0,0.306-0.018,0.544-0.051,0.714L368.798,40.707z M373.167,39.635      c0.018-0.935-0.391-2.431-2.057-2.431c-1.531,0-2.178,1.394-2.295,2.431H373.167z"/>
				<path i:knockout="Off" d="M375.818,36.949c0.393-1.428,1.123-3.264,1.582-4.046l0.951-0.102      c-0.355,1.003-0.814,2.754-1.002,3.978L375.818,36.949z M378.335,36.949c0.391-1.428,1.121-3.264,1.58-4.046l0.953-0.102      c-0.375,1.003-0.816,2.754-1.004,3.978L378.335,36.949z"/>
				<path i:knockout="Off" d="M386.222,44.565v-7.089h-1.139v-1.139h1.139v-0.391c0-1.156,0.273-2.21,0.969-2.873      c0.562-0.544,1.311-0.765,1.99-0.765c0.543,0,0.986,0.119,1.275,0.238l-0.188,1.156c-0.238-0.102-0.527-0.187-0.969-0.187      c-1.258,0-1.598,1.122-1.598,2.38v0.442h1.988v1.139h-1.973v7.089H386.222z"/>
				<path i:knockout="Off" d="M391.05,32.495h1.496v12.07h-1.496V32.495z"/>
				<path i:knockout="Off" d="M400.826,42.593c0,0.714,0.033,1.411,0.119,1.972h-1.344l-0.137-1.037h-0.051      c-0.441,0.646-1.342,1.224-2.516,1.224c-1.666,0-2.516-1.173-2.516-2.363c0-1.989,1.768-3.077,4.947-3.06v-0.17      c0-0.68-0.188-1.921-1.871-1.904c-0.781,0-1.58,0.221-2.158,0.612l-0.34-1.003c0.68-0.425,1.684-0.714,2.719-0.714      c2.533,0,3.146,1.717,3.146,3.366V42.593z M399.363,40.366c-1.631-0.034-3.484,0.255-3.484,1.853      c0,0.986,0.646,1.428,1.395,1.428c1.088,0,1.785-0.68,2.021-1.377c0.051-0.153,0.068-0.323,0.068-0.476V40.366z"/>
				<path i:knockout="Off" d="M410.261,43.358c0,1.904-0.393,3.043-1.174,3.774c-0.816,0.731-1.973,0.986-3.01,0.986      c-0.984,0-2.072-0.238-2.736-0.68l0.375-1.156c0.543,0.357,1.393,0.663,2.414,0.663c1.529,0,2.65-0.799,2.65-2.89v-0.901h-0.033      c-0.441,0.765-1.344,1.377-2.617,1.377c-2.041,0-3.502-1.734-3.502-4.029c0-2.788,1.818-4.352,3.723-4.352      c1.428,0,2.193,0.731,2.566,1.411h0.033l0.053-1.224h1.324c-0.051,0.578-0.066,1.241-0.066,2.244V43.358z M408.765,39.567      c0-0.238-0.018-0.459-0.086-0.663c-0.271-0.884-0.986-1.598-2.09-1.598c-1.43,0-2.449,1.207-2.449,3.128      c0,1.598,0.834,2.958,2.432,2.958c0.936,0,1.768-0.578,2.074-1.547c0.084-0.238,0.119-0.527,0.119-0.799V39.567z"/>
				<path i:knockout="Off" d="M412.521,43.052c0.459,0.272,1.242,0.578,1.99,0.578c1.07,0,1.58-0.527,1.58-1.224      c0-0.714-0.426-1.105-1.514-1.513c-1.496-0.544-2.191-1.343-2.191-2.329c0-1.326,1.088-2.414,2.838-2.414      c0.834,0,1.564,0.221,2.006,0.51l-0.357,1.071c-0.322-0.187-0.918-0.476-1.682-0.476c-0.885,0-1.361,0.51-1.361,1.122      c0,0.697,0.477,1.003,1.547,1.411c1.412,0.527,2.16,1.241,2.16,2.482c0,1.462-1.139,2.482-3.061,2.482      c-0.9,0-1.734-0.238-2.312-0.578L412.521,43.052z"/>
			</g>
			<polygon i:knockout="Off" fill="#FFFFFF" stroke="#000000" points="515.549,365.28 506.913,360.295 515.549,355.31 "/>
			<g>
				<g>
					<path i:knockout="Off" fill="#CCCCCC" d="M244.472,334.409c0,3.833-2.551,6.97-5.669,6.97H137.641       c-3.118,0-5.669-3.137-5.669-6.97V135.663c0-3.833,2.551-6.97,5.669-6.97h101.162c3.118,0,5.669,3.137,5.669,6.97V334.409z"/>
					<linearGradient id="XMLID_17_" gradientUnits="userSpaceOnUse" x1="-66.8423" y1="230.0361" x2="274.2817" y2="230.0361">
						<stop offset="0" style="stop-color:#169133"/>
						<stop offset="1" style="stop-color:#FFFFFF"/>
						<a:midPointStop offset="0" style="stop-color:#169133"/>
						<a:midPointStop offset="0.5" style="stop-color:#169133"/>
						<a:midPointStop offset="1" style="stop-color:#FFFFFF"/>
					</linearGradient>
					<path i:knockout="Off" fill="url(#XMLID_17_)" stroke="#000000" d="M237.472,329.409c0,3.833-2.551,6.97-5.669,6.97H130.641       c-3.118,0-5.669-3.137-5.669-6.97V130.663c0-3.833,2.551-6.97,5.669-6.97h101.162c3.118,0,5.669,3.137,5.669,6.97V329.409z"/>
				</g>
				<linearGradient id="XMLID_18_" gradientUnits="userSpaceOnUse" x1="59.7661" y1="139.8584" x2="316.2222" y2="139.8584">
					<stop offset="0" style="stop-color:#169197"/>
					<stop offset="1" style="stop-color:#FFFFFF"/>
					<a:midPointStop offset="0" style="stop-color:#169197"/>
					<a:midPointStop offset="0.5" style="stop-color:#169197"/>
					<a:midPointStop offset="1" style="stop-color:#FFFFFF"/>
				</linearGradient>
				<path i:knockout="Off" fill="url(#XMLID_18_)" stroke="#000000" d="M124.971,156.024v-26.662c0-3.118,2.551-5.669,5.669-5.669      h101.162c3.118,0,5.669,2.551,5.669,5.669v26.662H124.971z"/>
			</g>
			<g i:knockout="Off">
				<path i:knockout="Off" d="M142.175,141.033h0.034c0.204-0.289,0.476-0.663,0.714-0.935l2.431-2.839h1.785l-3.179,3.383      l3.621,4.845h-1.819l-2.822-3.961l-0.765,0.867v3.094h-1.496v-12.07h1.496V141.033z"/>
				<path i:knockout="Off" d="M149.618,141.628c0.034,2.023,1.309,2.856,2.805,2.856c1.071,0,1.734-0.187,2.278-0.408l0.272,1.054      c-0.527,0.238-1.445,0.527-2.754,0.527c-2.516,0-4.046-1.683-4.046-4.148c0-2.499,1.479-4.454,3.876-4.454      c2.686,0,3.383,2.363,3.383,3.876c0,0.306-0.017,0.544-0.051,0.714L149.618,141.628z M153.987,140.557      c0.017-0.935-0.391-2.431-2.057-2.431c-1.53,0-2.176,1.394-2.295,2.431H153.987z"/>
				<path i:knockout="Off" d="M157.302,139.826c0-0.969-0.017-1.802-0.068-2.567h1.309l0.068,1.615h0.051      c0.374-1.105,1.292-1.802,2.295-1.802c0.153,0,0.272,0.017,0.408,0.051v1.394c-0.17-0.017-0.323-0.034-0.527-0.034      c-1.054,0-1.802,0.799-2.006,1.904c-0.034,0.221-0.051,0.459-0.051,0.714v4.386h-1.496L157.302,139.826z"/>
				<path i:knockout="Off" d="M162.911,139.486c0-0.867-0.017-1.547-0.068-2.227h1.326l0.085,1.343h0.034      c0.408-0.765,1.36-1.53,2.72-1.53c1.139,0,2.907,0.68,2.907,3.502v4.913h-1.496v-4.743c0-1.326-0.493-2.448-1.904-2.448      c-0.969,0-1.734,0.697-2.006,1.53c-0.068,0.187-0.102,0.459-0.102,0.697v4.964h-1.496V139.486z"/>
				<path i:knockout="Off" d="M173.195,141.628c0.034,2.023,1.309,2.856,2.805,2.856c1.071,0,1.734-0.187,2.278-0.408l0.272,1.054      c-0.527,0.238-1.445,0.527-2.754,0.527c-2.516,0-4.046-1.683-4.046-4.148c0-2.499,1.479-4.454,3.876-4.454      c2.686,0,3.383,2.363,3.383,3.876c0,0.306-0.017,0.544-0.051,0.714L173.195,141.628z M177.564,140.557      c0.017-0.935-0.391-2.431-2.057-2.431c-1.53,0-2.176,1.394-2.295,2.431H177.564z"/>
				<path i:knockout="Off" d="M180.863,133.417h1.496v12.07h-1.496V133.417z"/>
				<path i:knockout="Off" d="M192.1,146.762v0.85h-8.5v-0.85H192.1z"/>
				<path i:knockout="Off" d="M193.477,145.487v-7.089h-1.139v-1.139h1.139v-0.391c0-1.156,0.272-2.21,0.969-2.873      c0.561-0.544,1.309-0.765,1.989-0.765c0.544,0,0.986,0.119,1.275,0.238l-0.187,1.156c-0.238-0.102-0.527-0.187-0.969-0.187      c-1.258,0-1.598,1.122-1.598,2.38v0.442h1.989v1.139h-1.972v7.089H193.477z"/>
				<path i:knockout="Off" d="M205.189,143.243c0,0.85,0.017,1.598,0.068,2.244h-1.326l-0.085-1.343h-0.034      c-0.374,0.663-1.258,1.53-2.72,1.53c-1.292,0-2.839-0.731-2.839-3.604v-4.811h1.496v4.539c0,1.564,0.493,2.635,1.836,2.635      c1.003,0,1.7-0.697,1.972-1.377c0.085-0.204,0.136-0.476,0.136-0.765v-5.032h1.496V143.243z"/>
				<path i:knockout="Off" d="M207.671,139.486c0-0.867-0.017-1.547-0.068-2.227h1.326l0.085,1.343h0.034      c0.408-0.765,1.36-1.53,2.72-1.53c1.139,0,2.907,0.68,2.907,3.502v4.913h-1.496v-4.743c0-1.326-0.493-2.448-1.904-2.448      c-0.969,0-1.734,0.697-2.006,1.53c-0.068,0.187-0.102,0.459-0.102,0.697v4.964h-1.496V139.486z"/>
				<path i:knockout="Off" d="M222.971,145.198c-0.391,0.187-1.258,0.476-2.363,0.476c-2.482,0-4.097-1.683-4.097-4.216      c0-2.533,1.734-4.386,4.42-4.386c0.884,0,1.666,0.221,2.074,0.442l-0.34,1.139c-0.357-0.187-0.918-0.391-1.734-0.391      c-1.887,0-2.907,1.411-2.907,3.128c0,1.904,1.224,3.077,2.856,3.077c0.85,0,1.411-0.204,1.836-0.391L222.971,145.198z"/>
			</g>
			<g i:knockout="Off">
				<path i:knockout="Off" d="M144.273,184.487h1.408v4.832h0.032c0.224-0.4,0.576-0.768,1.008-0.992      c0.416-0.256,0.912-0.4,1.44-0.4c1.04,0,2.704,0.64,2.704,3.312v4.608h-1.408v-4.448c0-1.264-0.464-2.304-1.792-2.304      c-0.912,0-1.616,0.64-1.888,1.408c-0.08,0.192-0.096,0.4-0.096,0.672v4.672h-1.408V184.487z"/>
				<path i:knockout="Off" d="M153.953,192.215c0.032,1.904,1.232,2.688,2.64,2.688c1.008,0,1.632-0.176,2.144-0.384l0.256,0.992      c-0.496,0.224-1.36,0.496-2.592,0.496c-2.368,0-3.808-1.584-3.808-3.904c0-2.352,1.392-4.192,3.648-4.192      c2.528,0,3.184,2.224,3.184,3.648c0,0.288-0.016,0.512-0.048,0.672L153.953,192.215z M158.065,191.207      c0.016-0.88-0.368-2.288-1.936-2.288c-1.44,0-2.048,1.312-2.16,2.288H158.065z"/>
				<path i:knockout="Off" d="M166.625,193.991c0,0.672,0.032,1.328,0.112,1.856h-1.264l-0.128-0.976h-0.048      c-0.416,0.608-1.264,1.152-2.368,1.152c-1.568,0-2.368-1.104-2.368-2.224c0-1.872,1.664-2.896,4.656-2.88v-0.16      c0-0.64-0.176-1.808-1.76-1.792c-0.736,0-1.488,0.208-2.032,0.576l-0.32-0.944c0.64-0.4,1.584-0.672,2.56-0.672      c2.384,0,2.96,1.616,2.96,3.168V193.991z M165.249,191.895c-1.536-0.032-3.28,0.24-3.28,1.744c0,0.928,0.608,1.344,1.312,1.344      c1.024,0,1.68-0.64,1.904-1.296c0.048-0.144,0.064-0.304,0.064-0.448V191.895z"/>
				<path i:knockout="Off" d="M169.218,188.103l1.52,4.336c0.256,0.72,0.464,1.36,0.624,2h0.048c0.176-0.64,0.4-1.28,0.656-2      l1.504-4.336h1.472l-3.04,7.744h-1.344l-2.944-7.744H169.218z"/>
				<path i:knockout="Off" d="M177.058,188.103l1.68,4.576c0.192,0.512,0.384,1.12,0.512,1.584h0.032      c0.144-0.464,0.304-1.056,0.496-1.616l1.536-4.544h1.488l-2.112,5.52c-1.008,2.656-1.696,4.016-2.656,4.864      c-0.704,0.592-1.376,0.832-1.728,0.896l-0.352-1.184c0.352-0.096,0.816-0.32,1.232-0.688c0.384-0.304,0.848-0.848,1.184-1.568      c0.064-0.144,0.112-0.24,0.112-0.336c0-0.08-0.032-0.192-0.112-0.352l-2.848-7.152H177.058z"/>
				<path i:knockout="Off" d="M188.034,188.103l1.04,3.92c0.208,0.864,0.416,1.68,0.56,2.48h0.048      c0.176-0.784,0.432-1.616,0.688-2.464l1.264-3.936h1.184l1.2,3.872c0.288,0.912,0.512,1.744,0.688,2.528h0.048      c0.128-0.784,0.336-1.6,0.592-2.512l1.104-3.888h1.392l-2.496,7.744h-1.28l-1.184-3.696c-0.272-0.88-0.496-1.648-0.688-2.56      h-0.032c-0.192,0.928-0.432,1.744-0.704,2.576l-1.248,3.68h-1.28l-2.336-7.744H188.034z"/>
				<path i:knockout="Off" d="M202.26,196.022c-2.08,0-3.712-1.536-3.712-3.984c0-2.592,1.712-4.112,3.84-4.112      c2.224,0,3.728,1.616,3.728,3.968c0,2.88-2,4.128-3.84,4.128H202.26z M202.309,194.967c1.344,0,2.352-1.264,2.352-3.024      c0-1.312-0.656-2.96-2.32-2.96c-1.648,0-2.368,1.536-2.368,3.008c0,1.696,0.96,2.976,2.32,2.976H202.309z"/>
				<path i:knockout="Off" d="M207.909,190.519c0-0.912-0.016-1.696-0.064-2.416h1.232l0.064,1.52h0.048      c0.352-1.04,1.216-1.696,2.16-1.696c0.144,0,0.256,0.016,0.384,0.048v1.312c-0.16-0.016-0.304-0.032-0.496-0.032      c-0.992,0-1.696,0.752-1.888,1.792c-0.032,0.208-0.048,0.432-0.048,0.672v4.128h-1.408L207.909,190.519z"/>
				<path i:knockout="Off" d="M214.595,191.655h0.032c0.192-0.272,0.448-0.624,0.672-0.88l2.288-2.672h1.68l-2.992,3.184l3.408,4.56      h-1.712l-2.656-3.728l-0.72,0.816v2.912h-1.408v-11.36h1.408V191.655z"/>
				<path i:knockout="Off" d="M134.697,260.887h1.408v4.848h0.032c0.496-0.864,1.392-1.408,2.64-1.408c1.92,0,3.264,1.6,3.264,3.936      c0,2.784-1.76,4.16-3.488,4.16c-1.12,0-2-0.432-2.592-1.456h-0.032l-0.08,1.28h-1.216c0.048-0.528,0.064-1.312,0.064-2V260.887z       M136.105,269.143c0,0.176,0.016,0.352,0.048,0.512c0.272,0.976,1.104,1.648,2.112,1.648c1.488,0,2.352-1.2,2.352-2.976      c0-1.568-0.8-2.896-2.304-2.896c-0.96,0-1.856,0.672-2.128,1.728c-0.048,0.176-0.08,0.368-0.08,0.592V269.143z"/>
				<path i:knockout="Off" d="M150.281,270.135c0,0.8,0.016,1.504,0.064,2.112h-1.248l-0.08-1.264h-0.032      c-0.352,0.624-1.184,1.44-2.56,1.44c-1.216,0-2.672-0.688-2.672-3.392v-4.528h1.408v4.272c0,1.472,0.464,2.48,1.728,2.48      c0.944,0,1.6-0.656,1.856-1.296c0.08-0.192,0.128-0.448,0.128-0.72v-4.736h1.408V270.135z"/>
				<path i:knockout="Off" d="M159.241,271.11c0,1.792-0.368,2.864-1.104,3.552c-0.768,0.688-1.856,0.928-2.832,0.928      c-0.928,0-1.952-0.224-2.576-0.64l0.352-1.088c0.512,0.336,1.312,0.624,2.272,0.624c1.44,0,2.496-0.752,2.496-2.72v-0.848      h-0.032c-0.416,0.72-1.264,1.296-2.464,1.296c-1.92,0-3.296-1.632-3.296-3.792c0-2.624,1.712-4.096,3.504-4.096      c1.344,0,2.064,0.688,2.416,1.328h0.032l0.048-1.152h1.248c-0.048,0.544-0.064,1.168-0.064,2.112V271.11z M157.833,267.542      c0-0.224-0.016-0.432-0.08-0.624c-0.256-0.832-0.928-1.504-1.968-1.504c-1.344,0-2.304,1.136-2.304,2.944      c0,1.504,0.784,2.784,2.288,2.784c0.88,0,1.664-0.544,1.952-1.456c0.08-0.224,0.112-0.496,0.112-0.752V267.542z"/>
				<path i:knockout="Off" d="M168.185,271.11c0,1.792-0.368,2.864-1.104,3.552c-0.768,0.688-1.856,0.928-2.832,0.928      c-0.928,0-1.952-0.224-2.576-0.64l0.352-1.088c0.512,0.336,1.312,0.624,2.272,0.624c1.44,0,2.496-0.752,2.496-2.72v-0.848      h-0.032c-0.416,0.72-1.264,1.296-2.464,1.296c-1.92,0-3.296-1.632-3.296-3.792c0-2.624,1.712-4.096,3.504-4.096      c1.344,0,2.064,0.688,2.416,1.328h0.032l0.048-1.152h1.248c-0.048,0.544-0.064,1.168-0.064,2.112V271.11z M166.776,267.542      c0-0.224-0.016-0.432-0.08-0.624c-0.256-0.832-0.928-1.504-1.968-1.504c-1.344,0-2.304,1.136-2.304,2.944      c0,1.504,0.784,2.784,2.288,2.784c0.88,0,1.664-0.544,1.952-1.456c0.08-0.224,0.112-0.496,0.112-0.752V267.542z"/>
				<path i:knockout="Off" d="M171.001,264.502l1.68,4.576c0.192,0.512,0.384,1.12,0.512,1.584h0.032      c0.144-0.464,0.304-1.056,0.496-1.616l1.536-4.544h1.488l-2.112,5.52c-1.008,2.656-1.696,4.016-2.656,4.864      c-0.704,0.592-1.376,0.832-1.728,0.896l-0.352-1.184c0.352-0.096,0.816-0.32,1.232-0.688c0.384-0.304,0.848-0.848,1.184-1.568      c0.064-0.144,0.112-0.24,0.112-0.336c0-0.08-0.032-0.192-0.112-0.352l-2.848-7.152H171.001z"/>
				<path i:knockout="Off" d="M184.857,273.447v0.8h-8v-0.8H184.857z"/>
				<path i:knockout="Off" d="M186.153,272.247v-6.672h-1.072v-1.072h1.072v-0.368c0-1.088,0.256-2.08,0.912-2.704      c0.528-0.512,1.232-0.72,1.872-0.72c0.512,0,0.928,0.112,1.2,0.224l-0.176,1.088c-0.224-0.096-0.496-0.176-0.912-0.176      c-1.184,0-1.504,1.056-1.504,2.24v0.416h1.872v1.072h-1.856v6.672H186.153z"/>
				<path i:knockout="Off" d="M197.177,270.135c0,0.8,0.016,1.504,0.064,2.112h-1.248l-0.08-1.264h-0.032      c-0.352,0.624-1.184,1.44-2.56,1.44c-1.216,0-2.672-0.688-2.672-3.392v-4.528h1.408v4.272c0,1.472,0.464,2.48,1.728,2.48      c0.944,0,1.6-0.656,1.856-1.296c0.08-0.192,0.128-0.448,0.128-0.72v-4.736h1.408V270.135z"/>
				<path i:knockout="Off" d="M199.513,266.599c0-0.816-0.016-1.456-0.064-2.096h1.248l0.08,1.264h0.032      c0.384-0.72,1.28-1.44,2.56-1.44c1.072,0,2.736,0.64,2.736,3.296v4.624h-1.408v-4.464c0-1.248-0.464-2.304-1.792-2.304      c-0.912,0-1.632,0.656-1.888,1.44c-0.064,0.176-0.096,0.432-0.096,0.656v4.672h-1.408V266.599z"/>
				<path i:knockout="Off" d="M213.913,271.975c-0.368,0.176-1.184,0.448-2.224,0.448c-2.336,0-3.856-1.584-3.856-3.968      s1.632-4.128,4.16-4.128c0.832,0,1.568,0.208,1.952,0.416l-0.32,1.072c-0.336-0.176-0.864-0.368-1.632-0.368      c-1.776,0-2.736,1.328-2.736,2.944c0,1.792,1.152,2.896,2.688,2.896c0.8,0,1.328-0.192,1.728-0.368L213.913,271.975z"/>
				<path i:knockout="Off" d="M219.4,261.143c-1.168,1.584-2,3.648-2,6.56c0,2.848,0.88,4.88,2,6.48h-1.088      c-1.008-1.328-2.096-3.376-2.096-6.496c0.016-3.136,1.088-5.2,2.096-6.544H219.4z"/>
				<path i:knockout="Off" d="M221.656,274.183c1.12-1.584,2-3.648,2-6.528s-0.864-4.912-2-6.512h1.088      c1.008,1.312,2.096,3.376,2.096,6.512c-0.016,3.136-1.088,5.168-2.096,6.528H221.656z"/>
				<path i:knockout="Off" d="M226.152,274.214c0.352-0.944,0.784-2.656,0.96-3.824l1.552-0.16c-0.384,1.36-1.088,3.136-1.536,3.888      L226.152,274.214z M227.769,266.774c-0.544,0-0.928-0.432-0.928-0.992c0-0.592,0.4-1.008,0.944-1.008      c0.576,0,0.944,0.416,0.944,1.008c0,0.56-0.368,0.992-0.944,0.992H227.769z"/>
			</g>
			<g i:knockout="On" a:adobe-knockout="true">
				<polygon i:knockout="Off" fill="#FFFFFF" stroke="#000000" a:adobe-knockout="false" points="176.115,175.105 181.101,183.741       186.086,175.105 "/>
			</g>
			<g i:knockout="On" a:adobe-knockout="true">
				<polygon i:knockout="Off" fill="#FFFFFF" stroke="#000000" a:adobe-knockout="false" points="175.861,249.527 180.847,258.163       185.833,249.527 "/>
			</g>
			<g i:knockout="On" a:adobe-knockout="true">
				<g i:knockout="On">
					
						<line i:knockout="Off" fill="#FFFFFF" stroke="#000000" a:adobe-knockout="false" x1="237.383" y1="255.103" x2="264.648" y2="255.103"/>
				</g>
			</g>
			<g i:knockout="On" a:adobe-knockout="true">
				<g i:knockout="On">
					
						<line i:knockout="Off" fill="#FFFFFF" stroke="#000000" a:adobe-knockout="false" x1="263.866" y1="360.812" x2="263.866" y2="277.987"/>
				</g>
			</g>
			<g i:knockout="On" a:adobe-knockout="true">
				<g i:knockout="On">
					
						<line i:knockout="Off" fill="#FFFFFF" stroke="#000000" a:adobe-knockout="false" x1="264.358" y1="277.942" x2="246.164" y2="277.942"/>
				</g>
				<polygon i:knockout="Off" fill="#FFFFFF" stroke="#000000" a:adobe-knockout="false" points="247.623,282.943 238.986,277.958       247.623,272.973 "/>
			</g>
			<g>
				<circle i:knockout="Off" cx="181.101" cy="163.559" r="0.953"/> 
				<circle i:knockout="Off" cx="181.101" cy="167.778" r="0.953"/> 
				<circle i:knockout="Off" cx="181.101" cy="171.997" r="0.953"/> 
				<circle i:knockout="Off" cx="180.872" cy="225.487" r="0.953"/> 
				<circle i:knockout="Off" cx="180.872" cy="229.706" r="0.953"/> 
				<circle i:knockout="Off" cx="180.872" cy="233.924" r="0.953"/> 
				<circle i:knockout="Off" cx="180.872" cy="238.143" r="0.953"/> 
				<circle i:knockout="Off" cx="180.872" cy="242.361" r="0.953"/> 
				<circle i:knockout="Off" cx="180.872" cy="246.58" r="0.953"/> 
				<circle i:knockout="Off" cx="180.872" cy="204.386" r="0.953"/> 
				<circle i:knockout="Off" cx="180.872" cy="208.605" r="0.953"/> 
				<circle i:knockout="Off" cx="180.872" cy="212.824" r="0.953"/> 
				<circle i:knockout="Off" cx="180.872" cy="217.042" r="0.953"/> 
				<circle i:knockout="Off" cx="180.872" cy="221.261" r="0.953"/> 
				<g i:knockout="On" a:adobe-knockout="true">
					<polygon i:knockout="Off" fill="#FFFFFF" stroke="#000000" a:adobe-knockout="false" points="175.861,314.167        180.847,322.804 185.833,314.167 "/>
				</g>
				<circle i:knockout="Off" cx="180.872" cy="290.128" r="0.953"/> 
				<circle i:knockout="Off" cx="180.872" cy="294.347" r="0.953"/> 
				<circle i:knockout="Off" cx="180.872" cy="298.565" r="0.953"/> 
				<circle i:knockout="Off" cx="180.872" cy="302.784" r="0.953"/> 
				<circle i:knockout="Off" cx="180.872" cy="307.003" r="0.953"/> 
				<circle i:knockout="Off" cx="180.872" cy="311.222" r="0.953"/> 
				<circle i:knockout="Off" cx="180.872" cy="281.729" r="0.953"/> 
				<circle i:knockout="Off" cx="180.872" cy="285.948" r="0.953"/> 
			</g>
			<polyline i:knockout="Off" fill="none" stroke="#000000" points="180.981,336.416 180.981,356.575 103.825,356.575 "/>
		</g>
	</svg>